<svg width="1024" height="1024" viewBox="0 0 1024 1024" xmlns="http://www.w3.org/2000/svg">
  <path d="M 150.00 221.50 L 149.00 222.50 L 144.00 222.50 L 143.00 223.50 L 140.00 223.50 L 139.00 224.50 L 138.00 224.50 L 137.00 225.50 L 136.00 225.50 L 135.00 226.50 L 134.00 226.50 L 133.00 227.50 L 132.00 227.50 L 131.00 228.50 L 130.00 228.50 L 128.50 230.00 L 129.00 230.50 L 130.00 230.50 L 131.00 229.50 L 132.00 229.50 L 133.00 228.50 L 135.00 228.50 L 136.00 227.50 L 138.00 227.50 L 139.00 226.50 L 148.00 226.50 L 149.00 227.50 L 150.00 227.50 L 151.00 228.50 L 154.00 228.50 L 154.50 229.00 L 154.50 231.00 L 154.00 231.50 L 142.00 231.50 L 141.00 232.50 L 139.00 232.50 L 138.00 233.50 L 136.00 233.50 L 135.00 234.50 L 134.00 234.50 L 132.00 236.50 L 131.00 236.50 L 129.00 238.50 L 127.00 238.50 L 126.00 237.50 L 125.00 237.50 L 124.00 238.50 L 123.00 238.50 L 114.50 247.00 L 114.50 248.00 L 112.50 250.00 L 112.50 251.00 L 111.50 252.00 L 111.50 253.00 L 109.50 255.00 L 109.50 256.00 L 108.50 257.00 L 108.50 258.00 L 107.50 259.00 L 107.50 260.00 L 106.50 261.00 L 106.50 262.00 L 105.50 263.00 L 105.50 264.00 L 104.50 265.00 L 104.50 266.00 L 103.50 267.00 L 103.50 268.00 L 102.50 269.00 L 102.50 270.00 L 101.50 271.00 L 101.50 272.00 L 100.50 273.00 L 100.50 275.00 L 99.50 276.00 L 99.50 277.00 L 98.50 278.00 L 98.50 279.00 L 97.50 280.00 L 97.50 282.00 L 96.50 283.00 L 96.50 284.00 L 95.50 285.00 L 95.50 287.00 L 94.50 288.00 L 94.50 289.00 L 93.50 290.00 L 93.50 293.00 L 92.50 294.00 L 92.50 296.00 L 91.50 297.00 L 91.50 299.00 L 90.50 300.00 L 90.50 302.00 L 89.50 303.00 L 89.50 304.00 L 88.50 305.00 L 88.50 308.00 L 87.50 309.00 L 87.50 311.00 L 86.50 312.00 L 86.50 315.00 L 85.50 316.00 L 85.50 318.00 L 84.50 319.00 L 84.50 322.00 L 83.50 323.00 L 83.50 325.00 L 82.50 326.00 L 82.50 329.00 L 81.50 330.00 L 81.50 333.00 L 80.50 334.00 L 80.50 337.00 L 79.50 338.00 L 79.50 341.00 L 78.50 342.00 L 78.50 345.00 L 77.50 346.00 L 77.50 349.00 L 76.50 350.00 L 76.50 354.00 L 75.50 355.00 L 75.50 358.00 L 74.50 359.00 L 74.50 363.00 L 73.50 364.00 L 73.50 367.00 L 72.50 368.00 L 72.50 373.00 L 71.50 374.00 L 71.50 377.00 L 70.50 378.00 L 70.50 381.00 L 69.50 382.00 L 69.50 387.00 L 68.50 388.00 L 68.50 392.00 L 67.50 393.00 L 67.50 398.00 L 66.50 399.00 L 66.50 403.00 L 65.50 404.00 L 65.50 409.00 L 64.50 410.00 L 64.50 414.00 L 63.50 415.00 L 63.50 418.00 L 64.50 419.00 L 64.50 421.00 L 62.50 422.00 L 62.50 425.00 L 61.50 426.00 L 61.50 430.00 L 60.50 431.00 L 60.50 436.00 L 59.50 437.00 L 59.50 441.00 L 60.50 442.00 L 60.50 444.00 L 58.50 445.00 L 58.50 448.00 L 57.50 449.00 L 57.50 452.00 L 59.50 453.00 L 59.50 455.00 L 58.00 456.50 L 57.00 456.50 L 56.50 457.00 L 58.50 458.00 L 58.50 460.00 L 58.00 460.50 L 56.00 460.50 L 55.50 461.00 L 55.50 467.00 L 54.50 468.00 L 54.50 471.00 L 55.50 472.00 L 55.50 475.00 L 53.50 476.00 L 53.50 478.00 L 54.50 479.00 L 54.50 487.00 L 53.50 488.00 L 53.50 495.00 L 52.50 496.00 L 52.50 502.00 L 51.50 503.00 L 51.50 510.00 L 50.50 511.00 L 50.50 518.00 L 49.50 519.00 L 49.50 525.00 L 48.50 526.00 L 48.50 534.00 L 47.50 535.00 L 47.50 543.00 L 46.50 544.00 L 46.50 552.00 L 45.50 553.00 L 45.50 561.00 L 44.50 562.00 L 44.50 569.00 L 43.50 570.00 L 43.50 580.00 L 42.50 581.00 L 42.50 588.00 L 41.50 589.00 L 41.50 597.00 L 40.50 598.00 L 40.50 607.00 L 39.50 608.00 L 39.50 616.00 L 38.50 617.00 L 38.50 627.00 L 37.50 628.00 L 37.50 637.00 L 36.50 638.00 L 36.50 647.00 L 35.50 648.00 L 35.50 658.00 L 34.50 659.00 L 34.50 669.00 L 33.50 670.00 L 33.50 680.00 L 32.50 681.00 L 32.50 691.00 L 31.50 692.00 L 31.50 705.00 L 30.50 706.00 L 30.50 718.00 L 29.50 719.00 L 29.50 734.00 L 28.50 735.00 L 28.50 748.00 L 27.50 749.00 L 27.50 757.00 L 31.00 760.50 L 37.00 760.50 L 38.00 759.50 L 41.00 759.50 L 42.00 758.50 L 45.00 758.50 L 46.00 757.50 L 48.00 757.50 L 49.00 756.50 L 51.00 756.50 L 52.00 755.50 L 53.00 755.50 L 54.00 754.50 L 56.00 754.50 L 57.00 753.50 L 59.00 753.50 L 60.00 752.50 L 62.00 752.50 L 63.00 751.50 L 65.00 751.50 L 66.00 750.50 L 67.00 750.50 L 68.00 749.50 L 70.00 749.50 L 71.00 748.50 L 73.00 748.50 L 74.00 747.50 L 75.00 747.50 L 76.00 746.50 L 78.00 746.50 L 79.00 745.50 L 81.00 745.50 L 82.00 744.50 L 83.00 744.50 L 84.00 743.50 L 86.00 743.50 L 87.00 742.50 L 88.00 742.50 L 89.00 741.50 L 91.00 741.50 L 92.00 740.50 L 93.00 740.50 L 94.00 739.50 L 96.00 739.50 L 97.00 738.50 L 99.00 738.50 L 100.00 737.50 L 101.00 737.50 L 102.00 736.50 L 104.00 736.50 L 105.00 735.50 L 106.00 735.50 L 107.00 734.50 L 109.00 734.50 L 110.00 733.50 L 111.00 733.50 L 112.00 732.50 L 114.00 732.50 L 115.00 731.50 L 117.00 731.50 L 118.00 730.50 L 119.00 730.50 L 120.00 729.50 L 122.00 729.50 L 123.00 728.50 L 124.00 728.50 L 125.00 727.50 L 127.00 727.50 L 128.00 726.50 L 129.00 726.50 L 130.00 725.50 L 132.00 725.50 L 133.00 724.50 L 134.00 724.50 L 135.00 723.50 L 137.00 723.50 L 138.00 722.50 L 139.00 722.50 L 140.00 721.50 L 142.00 721.50 L 143.00 720.50 L 145.00 720.50 L 146.00 719.50 L 147.00 719.50 L 148.00 718.50 L 150.00 718.50 L 151.00 717.50 L 152.00 717.50 L 153.00 716.50 L 155.00 716.50 L 156.00 715.50 L 157.00 715.50 L 158.00 714.50 L 160.00 714.50 L 161.00 713.50 L 163.00 713.50 L 164.00 712.50 L 165.00 712.50 L 166.00 711.50 L 167.00 711.50 L 168.00 710.50 L 170.00 710.50 L 171.00 709.50 L 172.00 709.50 L 173.00 708.50 L 175.00 708.50 L 176.00 707.50 L 177.00 707.50 L 178.00 706.50 L 180.00 706.50 L 181.00 705.50 L 182.00 705.50 L 183.00 704.50 L 185.00 704.50 L 186.00 703.50 L 187.00 703.50 L 188.00 702.50 L 190.00 702.50 L 191.00 701.50 L 193.00 701.50 L 194.00 700.50 L 195.00 700.50 L 196.00 699.50 L 198.00 699.50 L 199.00 698.50 L 200.00 698.50 L 201.00 697.50 L 203.00 697.50 L 204.00 696.50 L 205.00 696.50 L 206.00 695.50 L 208.00 695.50 L 209.00 694.50 L 210.00 694.50 L 211.00 693.50 L 213.00 693.50 L 214.00 692.50 L 215.00 692.50 L 216.00 691.50 L 218.00 691.50 L 219.00 690.50 L 220.00 690.50 L 221.00 689.50 L 223.00 689.50 L 224.00 688.50 L 226.00 688.50 L 227.00 687.50 L 228.00 687.50 L 229.00 686.50 L 231.00 686.50 L 232.00 685.50 L 234.00 685.50 L 235.00 684.50 L 236.00 684.50 L 237.00 683.50 L 239.00 683.50 L 240.00 682.50 L 241.00 682.50 L 242.00 681.50 L 244.00 681.50 L 245.00 680.50 L 246.00 680.50 L 247.00 679.50 L 249.00 679.50 L 250.00 678.50 L 251.00 678.50 L 252.00 677.50 L 254.00 677.50 L 255.00 676.50 L 256.00 676.50 L 257.00 675.50 L 259.00 675.50 L 260.00 674.50 L 262.00 674.50 L 263.00 673.50 L 264.00 673.50 L 265.00 672.50 L 267.00 672.50 L 268.00 671.50 L 270.00 671.50 L 271.00 670.50 L 272.00 670.50 L 273.00 669.50 L 275.00 669.50 L 276.00 668.50 L 277.00 668.50 L 278.00 667.50 L 280.00 667.50 L 281.00 666.50 L 283.00 666.50 L 284.00 665.50 L 286.00 665.50 L 287.00 664.50 L 288.00 664.50 L 289.00 663.50 L 291.00 663.50 L 292.00 662.50 L 293.00 662.50 L 294.00 661.50 L 296.00 661.50 L 297.00 660.50 L 299.00 660.50 L 300.00 659.50 L 301.00 659.50 L 302.00 658.50 L 304.00 658.50 L 305.00 657.50 L 306.00 657.50 L 307.00 656.50 L 309.00 656.50 L 310.00 655.50 L 312.00 655.50 L 313.00 654.50 L 315.00 654.50 L 316.00 653.50 L 317.00 653.50 L 318.00 652.50 L 320.00 652.50 L 321.00 651.50 L 323.00 651.50 L 324.00 650.50 L 326.00 650.50 L 327.00 649.50 L 328.00 649.50 L 329.00 648.50 L 331.00 648.50 L 332.00 647.50 L 334.00 647.50 L 335.00 646.50 L 337.00 646.50 L 338.00 645.50 L 340.00 645.50 L 341.00 644.50 L 343.00 644.50 L 344.00 643.50 L 346.00 643.50 L 347.00 642.50 L 349.00 642.50 L 350.00 641.50 L 352.00 641.50 L 353.00 640.50 L 355.00 640.50 L 356.00 639.50 L 358.00 639.50 L 359.00 638.50 L 361.00 638.50 L 362.00 637.50 L 364.00 637.50 L 365.00 636.50 L 367.00 636.50 L 368.00 635.50 L 369.00 635.50 L 370.00 634.50 L 373.00 634.50 L 374.00 633.50 L 376.00 633.50 L 377.00 632.50 L 379.00 632.50 L 380.00 631.50 L 382.00 631.50 L 383.00 630.50 L 386.00 630.50 L 387.00 629.50 L 389.00 629.50 L 390.00 628.50 L 392.00 628.50 L 393.00 627.50 L 395.00 627.50 L 396.00 626.50 L 399.00 626.50 L 400.00 625.50 L 403.00 625.50 L 404.00 624.50 L 406.00 624.50 L 407.00 623.50 L 410.00 623.50 L 411.00 622.50 L 413.00 622.50 L 414.00 621.50 L 417.00 621.50 L 418.00 620.50 L 420.00 620.50 L 421.00 619.50 L 424.00 619.50 L 425.00 618.50 L 428.00 618.50 L 429.00 617.50 L 431.00 617.50 L 432.00 616.50 L 435.00 616.50 L 436.00 615.50 L 439.00 615.50 L 440.00 614.50 L 443.00 614.50 L 444.00 613.50 L 447.00 613.50 L 448.00 612.50 L 452.00 612.50 L 453.00 611.50 L 456.00 611.50 L 457.00 610.50 L 460.00 610.50 L 461.00 609.50 L 465.00 609.50 L 466.00 608.50 L 470.00 608.50 L 471.00 607.50 L 475.00 607.50 L 476.00 606.50 L 480.00 606.50 L 481.00 605.50 L 485.00 605.50 L 486.00 604.50 L 491.00 604.50 L 492.00 603.50 L 497.00 603.50 L 498.00 602.50 L 503.00 602.50 L 504.00 601.50 L 509.00 601.50 L 510.00 600.50 L 516.00 600.50 L 517.00 599.50 L 524.00 599.50 L 525.00 598.50 L 532.00 598.50 L 533.00 597.50 L 541.00 597.50 L 542.00 596.50 L 552.00 596.50 L 553.00 595.50 L 566.00 595.50 L 567.00 594.50 L 617.00 594.50 L 618.00 595.50 L 627.00 595.50 L 628.00 596.50 L 636.00 596.50 L 637.00 597.50 L 643.00 597.50 L 644.00 598.50 L 649.00 598.50 L 650.00 599.50 L 655.00 599.50 L 656.00 600.50 L 659.00 600.50 L 660.00 601.50 L 664.00 601.50 L 665.00 602.50 L 668.00 602.50 L 669.00 603.50 L 672.00 603.50 L 673.00 604.50 L 676.00 604.50 L 677.00 605.50 L 679.00 605.50 L 680.00 606.50 L 683.00 606.50 L 684.00 607.50 L 686.00 607.50 L 687.00 608.50 L 689.00 608.50 L 690.00 609.50 L 693.00 609.50 L 694.00 610.50 L 695.00 610.50 L 696.00 611.50 L 697.00 611.50 L 698.00 612.50 L 699.00 612.50 L 700.00 613.50 L 701.00 613.50 L 702.00 614.50 L 703.00 614.50 L 704.00 615.50 L 705.00 615.50 L 707.00 617.50 L 708.00 617.50 L 710.00 619.50 L 711.00 619.50 L 712.00 620.50 L 713.00 620.50 L 715.00 622.50 L 716.00 622.50 L 718.00 624.50 L 719.00 624.50 L 721.00 626.50 L 722.00 626.50 L 723.00 627.50 L 724.00 627.50 L 727.00 630.50 L 728.00 630.50 L 730.00 632.50 L 731.00 632.50 L 733.00 634.50 L 734.00 634.50 L 737.00 637.50 L 738.00 637.50 L 740.00 639.50 L 741.00 639.50 L 743.00 641.50 L 744.00 641.50 L 746.00 643.50 L 747.00 643.50 L 750.00 646.50 L 751.00 646.50 L 753.00 648.50 L 754.00 648.50 L 756.00 650.50 L 757.00 650.50 L 761.00 654.50 L 762.00 654.50 L 764.00 656.50 L 765.00 656.50 L 767.00 658.50 L 768.00 658.50 L 771.00 661.50 L 772.00 661.50 L 775.00 664.50 L 776.00 664.50 L 778.00 666.50 L 779.00 666.50 L 782.00 669.50 L 783.00 669.50 L 785.00 671.50 L 786.00 671.50 L 788.00 673.50 L 789.00 673.50 L 792.00 676.50 L 793.00 676.50 L 796.00 679.50 L 797.00 679.50 L 799.00 681.50 L 800.00 681.50 L 803.00 684.50 L 804.00 684.50 L 806.00 686.50 L 807.00 686.50 L 810.00 689.50 L 811.00 689.50 L 813.00 691.50 L 814.00 691.50 L 817.00 694.50 L 818.00 694.50 L 821.00 697.50 L 822.00 697.50 L 823.00 698.50 L 824.00 698.50 L 827.00 701.50 L 828.00 701.50 L 831.00 704.50 L 832.00 704.50 L 834.00 706.50 L 835.00 706.50 L 838.00 709.50 L 839.00 709.50 L 841.00 711.50 L 842.00 711.50 L 844.00 713.50 L 845.00 713.50 L 848.00 716.50 L 849.00 716.50 L 850.00 717.50 L 851.00 717.50 L 854.00 720.50 L 855.00 720.50 L 857.00 722.50 L 858.00 722.50 L 860.00 724.50 L 861.00 724.50 L 863.00 726.50 L 864.00 726.50 L 865.00 727.50 L 866.00 727.50 L 868.00 729.50 L 869.00 729.50 L 870.00 730.50 L 871.00 730.50 L 872.00 731.50 L 873.00 731.50 L 874.00 732.50 L 875.00 732.50 L 876.00 733.50 L 877.00 733.50 L 878.00 734.50 L 880.00 734.50 L 881.00 735.50 L 882.00 735.50 L 883.00 736.50 L 884.00 736.50 L 885.00 737.50 L 886.00 737.50 L 887.00 738.50 L 889.00 738.50 L 890.00 739.50 L 891.00 739.50 L 892.00 740.50 L 893.00 740.50 L 894.00 741.50 L 896.00 741.50 L 897.00 742.50 L 899.00 742.50 L 900.00 743.50 L 903.00 743.50 L 904.00 744.50 L 909.00 744.50 L 910.00 745.50 L 915.00 745.50 L 916.00 744.50 L 919.00 744.50 L 920.00 743.50 L 921.00 743.50 L 922.00 742.50 L 923.00 742.50 L 933.50 732.00 L 933.50 731.00 L 935.50 729.00 L 935.50 728.00 L 937.50 726.00 L 937.50 725.00 L 938.50 724.00 L 938.50 723.00 L 939.50 722.00 L 939.50 721.00 L 940.50 720.00 L 940.50 719.00 L 941.50 718.00 L 941.50 717.00 L 942.50 716.00 L 942.50 714.00 L 943.50 713.00 L 943.50 712.00 L 944.50 711.00 L 944.50 710.00 L 945.50 709.00 L 945.50 707.00 L 946.50 706.00 L 946.50 705.00 L 947.50 704.00 L 947.50 702.00 L 948.50 701.00 L 948.50 699.00 L 949.50 698.00 L 949.50 696.00 L 950.50 695.00 L 950.50 693.00 L 951.50 692.00 L 951.50 689.00 L 952.50 688.00 L 952.50 686.00 L 953.50 685.00 L 953.50 682.00 L 954.50 681.00 L 954.50 679.00 L 955.50 678.00 L 955.50 675.00 L 956.50 674.00 L 956.50 671.00 L 957.50 670.00 L 957.50 667.00 L 958.50 666.00 L 958.50 662.00 L 959.50 661.00 L 959.50 658.00 L 960.50 657.00 L 960.50 653.00 L 961.50 652.00 L 961.50 648.00 L 962.50 647.00 L 962.50 643.00 L 963.50 642.00 L 963.50 637.00 L 964.50 636.00 L 964.50 632.00 L 965.50 631.00 L 965.50 626.00 L 966.50 625.00 L 966.50 620.00 L 967.50 619.00 L 967.50 613.00 L 968.50 612.00 L 968.50 607.00 L 969.50 606.00 L 969.50 601.00 L 970.50 600.00 L 970.50 593.00 L 971.50 592.00 L 971.50 586.00 L 972.50 585.00 L 972.50 578.00 L 973.50 577.00 L 973.50 570.00 L 974.50 569.00 L 974.50 562.00 L 975.50 561.00 L 975.50 553.00 L 976.50 552.00 L 976.50 545.00 L 977.50 544.00 L 977.50 535.00 L 978.50 534.00 L 978.50 526.00 L 979.50 525.00 L 979.50 515.00 L 980.50 514.00 L 980.50 505.00 L 981.50 504.00 L 981.50 495.00 L 982.50 494.00 L 982.50 483.00 L 983.50 482.00 L 983.50 471.00 L 984.50 470.00 L 984.50 459.00 L 985.50 458.00 L 985.50 445.00 L 986.50 444.00 L 986.50 431.00 L 987.50 430.00 L 987.50 416.00 L 988.50 415.00 L 988.50 401.00 L 989.50 400.00 L 989.50 385.00 L 990.50 384.00 L 990.50 368.00 L 991.50 367.00 L 991.50 351.00 L 992.50 350.00 L 992.50 328.00 L 993.50 327.00 L 993.50 307.00 L 994.50 306.00 L 994.50 274.00 L 995.00 273.50 L 997.00 273.50 L 997.50 273.00 L 995.50 272.00 L 995.50 269.00 L 996.00 268.50 L 997.00 268.50 L 998.50 267.00 L 998.50 250.00 L 997.50 249.00 L 997.50 247.00 L 996.50 246.00 L 996.50 245.00 L 994.50 243.00 L 994.50 242.00 L 994.00 241.50 L 993.00 241.50 L 992.00 240.50 L 990.00 240.50 L 989.00 238.50 L 987.00 238.50 L 986.00 237.50 L 984.00 237.50 L 983.00 238.50 L 980.00 238.50 L 979.50 239.00 L 979.50 241.00 L 978.00 242.50 L 976.00 242.50 L 975.00 243.50 L 974.00 243.50 L 973.00 244.50 L 971.00 244.50 L 970.00 245.50 L 968.00 245.50 L 967.00 246.50 L 966.00 246.50 L 965.00 247.50 L 963.00 247.50 L 962.00 248.50 L 961.00 248.50 L 960.00 249.50 L 959.00 249.50 L 958.00 250.50 L 956.00 250.50 L 955.00 251.50 L 954.00 251.50 L 953.00 252.50 L 952.00 252.50 L 951.00 253.50 L 949.00 253.50 L 948.00 254.50 L 947.00 254.50 L 946.00 255.50 L 945.00 255.50 L 944.00 256.50 L 943.00 256.50 L 942.00 257.50 L 940.00 257.50 L 939.00 258.50 L 938.00 258.50 L 937.00 259.50 L 936.00 259.50 L 935.00 260.50 L 934.00 260.50 L 933.00 261.50 L 931.00 261.50 L 930.00 262.50 L 929.00 262.50 L 928.00 263.50 L 927.00 263.50 L 926.00 264.50 L 925.00 264.50 L 924.00 265.50 L 922.00 265.50 L 921.00 266.50 L 920.00 266.50 L 919.00 267.50 L 918.00 267.50 L 917.00 268.50 L 916.00 268.50 L 915.00 269.50 L 914.00 269.50 L 913.00 270.50 L 911.00 270.50 L 910.00 271.50 L 909.00 271.50 L 908.00 272.50 L 907.00 272.50 L 906.00 273.50 L 905.00 273.50 L 904.00 274.50 L 902.00 274.50 L 901.00 275.50 L 900.00 275.50 L 899.00 276.50 L 898.00 276.50 L 897.00 277.50 L 896.00 277.50 L 895.00 278.50 L 893.00 278.50 L 892.00 279.50 L 891.00 279.50 L 890.00 280.50 L 889.00 280.50 L 888.00 281.50 L 887.00 281.50 L 886.00 282.50 L 885.00 282.50 L 884.00 283.50 L 882.00 283.50 L 881.00 284.50 L 880.00 284.50 L 879.00 285.50 L 878.00 285.50 L 877.00 286.50 L 876.00 286.50 L 875.00 287.50 L 874.00 287.50 L 873.00 288.50 L 871.00 288.50 L 870.00 289.50 L 869.00 289.50 L 868.00 290.50 L 866.00 290.50 L 865.00 291.50 L 864.00 291.50 L 863.00 292.50 L 862.00 292.50 L 861.00 293.50 L 860.00 293.50 L 859.00 294.50 L 858.00 294.50 L 857.00 295.50 L 855.00 295.50 L 854.00 296.50 L 853.00 296.50 L 852.00 297.50 L 851.00 297.50 L 850.00 298.50 L 849.00 298.50 L 848.00 299.50 L 846.00 299.50 L 845.00 300.50 L 844.00 300.50 L 843.00 301.50 L 842.00 301.50 L 841.00 302.50 L 840.00 302.50 L 839.00 303.50 L 837.00 303.50 L 836.00 304.50 L 835.00 304.50 L 834.00 305.50 L 833.00 305.50 L 832.00 306.50 L 830.00 306.50 L 829.00 307.50 L 828.00 307.50 L 827.00 308.50 L 826.00 308.50 L 825.00 309.50 L 823.00 309.50 L 822.00 310.50 L 821.00 310.50 L 820.00 311.50 L 819.00 311.50 L 818.00 312.50 L 816.00 312.50 L 815.00 313.50 L 814.00 313.50 L 813.00 314.50 L 812.00 314.50 L 811.00 315.50 L 809.00 315.50 L 808.00 316.50 L 807.00 316.50 L 806.00 317.50 L 805.00 317.50 L 804.00 318.50 L 802.00 318.50 L 801.00 319.50 L 800.00 319.50 L 799.00 320.50 L 798.00 320.50 L 797.00 321.50 L 795.00 321.50 L 794.00 322.50 L 793.00 322.50 L 792.00 323.50 L 791.00 323.50 L 790.00 324.50 L 788.00 324.50 L 787.00 325.50 L 786.00 325.50 L 785.00 326.50 L 784.00 326.50 L 783.50 327.00 L 784.00 327.50 L 786.00 327.50 L 787.00 326.50 L 788.00 326.50 L 789.00 325.50 L 791.00 325.50 L 792.00 324.50 L 795.00 324.50 L 797.00 322.50 L 799.00 322.50 L 800.00 321.50 L 802.00 321.50 L 803.00 320.50 L 804.00 320.50 L 805.00 319.50 L 807.00 319.50 L 808.00 318.50 L 810.00 318.50 L 811.00 317.50 L 812.00 317.50 L 813.00 316.50 L 815.00 316.50 L 816.00 315.50 L 817.00 315.50 L 818.00 314.50 L 819.00 314.50 L 820.00 313.50 L 822.00 313.50 L 823.00 312.50 L 824.00 312.50 L 825.00 311.50 L 827.00 311.50 L 828.00 310.50 L 829.00 310.50 L 830.00 309.50 L 831.00 309.50 L 832.00 308.50 L 834.00 308.50 L 835.00 307.50 L 836.00 307.50 L 837.00 306.50 L 838.00 306.50 L 839.00 305.50 L 841.00 305.50 L 842.00 304.50 L 843.00 304.50 L 844.00 303.50 L 846.00 303.50 L 848.00 301.50 L 850.00 301.50 L 851.00 300.50 L 853.00 300.50 L 854.00 299.50 L 855.00 299.50 L 856.00 298.50 L 857.00 298.50 L 858.00 297.50 L 860.00 297.50 L 861.00 296.50 L 862.00 296.50 L 863.00 295.50 L 864.00 295.50 L 865.00 294.50 L 867.00 294.50 L 868.00 293.50 L 869.00 293.50 L 870.00 292.50 L 871.00 292.50 L 872.00 291.50 L 874.00 291.50 L 875.00 290.50 L 876.00 290.50 L 877.00 289.50 L 878.00 289.50 L 879.00 288.50 L 881.00 288.50 L 882.00 287.50 L 883.00 287.50 L 884.00 286.50 L 886.00 286.50 L 887.00 285.50 L 888.00 285.50 L 889.00 284.50 L 890.00 284.50 L 891.00 283.50 L 892.00 283.50 L 893.00 282.50 L 895.00 282.50 L 896.00 281.50 L 897.00 281.50 L 898.00 280.50 L 899.00 280.50 L 900.00 279.50 L 902.00 279.50 L 903.00 278.50 L 904.00 278.50 L 905.00 277.50 L 906.00 277.50 L 907.00 276.50 L 909.00 276.50 L 910.00 275.50 L 911.00 275.50 L 912.00 274.50 L 913.00 274.50 L 914.00 273.50 L 915.00 273.50 L 916.00 272.50 L 918.00 272.50 L 919.00 271.50 L 920.00 271.50 L 921.00 270.50 L 922.00 270.50 L 923.00 269.50 L 924.00 269.50 L 925.00 268.50 L 927.00 268.50 L 928.00 267.50 L 929.00 267.50 L 930.00 266.50 L 931.00 266.50 L 932.00 265.50 L 933.00 265.50 L 934.00 264.50 L 936.00 264.50 L 937.00 263.50 L 938.00 263.50 L 939.00 262.50 L 940.00 262.50 L 941.00 261.50 L 943.00 261.50 L 944.00 260.50 L 945.00 260.50 L 946.00 259.50 L 947.00 259.50 L 948.00 258.50 L 949.00 258.50 L 950.00 257.50 L 952.00 257.50 L 953.00 256.50 L 954.00 256.50 L 955.00 255.50 L 956.00 255.50 L 957.00 254.50 L 959.00 254.50 L 960.00 253.50 L 961.00 253.50 L 962.00 252.50 L 963.00 252.50 L 964.00 251.50 L 965.00 251.50 L 966.00 250.50 L 968.00 250.50 L 969.00 249.50 L 970.00 249.50 L 971.00 248.50 L 977.00 248.50 L 977.50 248.00 L 977.50 247.00 L 979.00 245.50 L 981.00 245.50 L 981.50 246.00 L 981.50 249.00 L 983.50 251.00 L 983.50 253.00 L 984.50 254.00 L 984.50 295.00 L 984.00 295.50 L 982.00 295.50 L 981.50 296.00 L 981.50 301.00 L 982.00 301.50 L 984.00 301.50 L 984.50 302.00 L 984.50 307.00 L 983.50 308.00 L 983.50 331.00 L 982.50 332.00 L 982.50 353.00 L 981.50 354.00 L 981.50 368.00 L 980.50 369.00 L 980.50 386.00 L 979.50 387.00 L 979.50 401.00 L 978.50 402.00 L 978.50 415.00 L 977.50 416.00 L 977.50 427.00 L 976.50 428.00 L 976.50 442.00 L 975.50 443.00 L 975.50 455.00 L 974.50 456.00 L 974.50 465.00 L 973.50 466.00 L 973.50 477.00 L 972.50 478.00 L 972.50 488.00 L 971.50 489.00 L 971.50 499.00 L 970.50 500.00 L 970.50 510.00 L 969.50 511.00 L 969.50 519.00 L 968.50 520.00 L 968.50 528.00 L 967.50 529.00 L 967.50 537.00 L 966.50 538.00 L 966.50 544.00 L 965.50 545.00 L 965.50 552.00 L 964.50 553.00 L 964.50 559.00 L 963.50 560.00 L 963.50 567.00 L 962.50 568.00 L 962.50 573.00 L 961.50 574.00 L 961.50 579.00 L 960.50 580.00 L 960.50 586.00 L 959.50 587.00 L 959.50 592.00 L 958.50 593.00 L 958.50 598.00 L 957.50 599.00 L 957.50 603.00 L 956.50 604.00 L 956.50 610.00 L 955.50 611.00 L 955.50 615.00 L 954.50 616.00 L 954.50 621.00 L 953.50 622.00 L 953.50 627.00 L 952.50 628.00 L 952.50 632.00 L 951.50 633.00 L 951.50 637.00 L 950.50 638.00 L 950.50 642.00 L 949.50 643.00 L 949.50 647.00 L 948.50 648.00 L 948.50 651.00 L 947.50 652.00 L 947.50 655.00 L 946.50 656.00 L 946.50 659.00 L 945.50 660.00 L 945.50 663.00 L 944.50 664.00 L 944.50 667.00 L 943.50 668.00 L 943.50 670.00 L 942.50 671.00 L 942.50 674.00 L 941.50 675.00 L 941.50 677.00 L 940.50 678.00 L 940.50 681.00 L 939.50 682.00 L 939.50 684.00 L 938.50 685.00 L 938.50 686.00 L 937.50 687.00 L 937.50 689.00 L 936.50 690.00 L 936.50 692.00 L 935.50 693.00 L 935.50 695.00 L 934.50 696.00 L 934.50 697.00 L 933.50 698.00 L 933.50 700.00 L 932.50 701.00 L 932.50 703.00 L 931.50 704.00 L 933.50 706.00 L 933.50 709.00 L 932.50 710.00 L 932.50 713.00 L 931.50 714.00 L 931.50 716.00 L 929.50 718.00 L 929.50 719.00 L 928.50 720.00 L 928.50 721.00 L 925.50 724.00 L 925.50 725.00 L 921.50 729.00 L 921.50 730.00 L 920.00 731.50 L 919.00 731.50 L 918.00 732.50 L 917.00 732.50 L 916.00 733.50 L 907.00 733.50 L 906.00 732.50 L 903.00 732.50 L 902.00 731.50 L 900.00 731.50 L 899.00 730.50 L 898.00 730.50 L 897.00 729.50 L 896.00 729.50 L 895.00 728.50 L 893.00 728.50 L 892.00 727.50 L 891.00 727.50 L 890.00 726.50 L 889.00 726.50 L 888.00 725.50 L 887.00 725.50 L 886.00 724.50 L 885.00 724.50 L 884.00 723.50 L 883.00 723.50 L 881.00 721.50 L 880.00 721.50 L 879.00 720.50 L 878.00 720.50 L 876.00 718.50 L 875.00 718.50 L 874.00 717.50 L 873.00 717.50 L 871.00 715.50 L 870.00 715.50 L 868.00 713.50 L 867.00 713.50 L 866.00 712.50 L 865.00 712.50 L 863.00 710.50 L 862.00 710.50 L 860.50 709.00 L 860.50 707.00 L 861.00 706.50 L 863.00 706.50 L 865.00 708.50 L 866.00 708.50 L 867.00 709.50 L 868.00 709.50 L 869.00 710.50 L 870.00 710.50 L 870.50 710.00 L 868.00 707.50 L 867.00 707.50 L 865.00 705.50 L 864.00 705.50 L 862.00 703.50 L 861.00 703.50 L 858.00 700.50 L 857.00 700.50 L 855.00 698.50 L 854.00 698.50 L 851.00 695.50 L 850.00 695.50 L 847.00 692.50 L 846.00 692.50 L 844.00 690.50 L 843.00 690.50 L 840.00 687.50 L 839.00 687.50 L 836.00 684.50 L 835.00 684.50 L 833.00 682.50 L 832.00 682.50 L 828.00 678.50 L 827.00 678.50 L 824.50 676.00 L 824.50 674.00 L 825.00 673.50 L 827.00 673.50 L 828.00 674.50 L 829.00 674.50 L 832.00 677.50 L 834.00 677.50 L 835.00 678.50 L 836.00 678.50 L 838.00 680.50 L 839.00 680.50 L 841.00 682.50 L 843.00 682.50 L 845.00 684.50 L 846.00 684.50 L 848.00 686.50 L 849.00 686.50 L 850.00 687.50 L 852.00 687.50 L 853.00 688.50 L 854.00 688.50 L 856.00 690.50 L 857.00 690.50 L 857.50 690.00 L 856.50 689.00 L 856.50 688.00 L 856.00 687.50 L 855.00 687.50 L 854.00 686.50 L 853.00 686.50 L 851.00 684.50 L 850.00 684.50 L 848.50 683.00 L 848.50 682.00 L 848.00 681.50 L 846.00 681.50 L 844.00 679.50 L 843.00 679.50 L 840.00 676.50 L 839.00 676.50 L 837.00 674.50 L 836.00 674.50 L 835.00 673.50 L 834.00 673.50 L 832.50 672.00 L 832.50 671.00 L 832.00 670.50 L 829.00 670.50 L 828.50 670.00 L 828.50 668.00 L 828.00 667.50 L 827.00 667.50 L 826.00 666.50 L 824.00 666.50 L 822.50 665.00 L 822.50 664.00 L 822.00 663.50 L 821.00 663.50 L 820.00 662.50 L 819.00 662.50 L 817.00 660.50 L 816.00 660.50 L 815.00 659.50 L 814.00 659.50 L 811.00 656.50 L 809.00 656.50 L 806.00 653.50 L 805.00 653.50 L 802.00 650.50 L 800.00 650.50 L 796.00 646.50 L 795.00 646.50 L 794.00 645.50 L 793.00 645.50 L 790.00 642.50 L 789.00 642.50 L 787.00 640.50 L 786.00 640.50 L 784.00 638.50 L 783.00 638.50 L 781.00 636.50 L 780.00 636.50 L 779.00 635.50 L 778.00 635.50 L 776.00 633.50 L 775.00 633.50 L 773.00 631.50 L 772.00 631.50 L 770.00 629.50 L 769.00 629.50 L 768.00 628.50 L 767.00 628.50 L 765.00 626.50 L 764.00 626.50 L 761.00 623.50 L 760.00 623.50 L 757.00 620.50 L 756.00 620.50 L 754.00 618.50 L 752.00 618.50 L 750.00 616.50 L 749.00 616.50 L 747.00 614.50 L 746.00 614.50 L 745.00 613.50 L 744.00 613.50 L 741.00 610.50 L 740.00 610.50 L 739.00 609.50 L 738.00 609.50 L 735.00 606.50 L 734.00 606.50 L 733.00 605.50 L 732.00 605.50 L 729.00 602.50 L 728.00 602.50 L 725.00 599.50 L 724.00 599.50 L 721.00 596.50 L 720.00 596.50 L 718.00 594.50 L 717.00 594.50 L 714.00 591.50 L 713.00 591.50 L 710.00 588.50 L 709.00 588.50 L 705.00 584.50 L 704.00 584.50 L 702.00 582.50 L 701.00 582.50 L 698.00 579.50 L 697.00 579.50 L 694.00 576.50 L 693.00 576.50 L 690.00 573.50 L 689.00 573.50 L 685.00 569.50 L 684.00 569.50 L 682.00 567.50 L 681.00 567.50 L 677.00 563.50 L 676.00 563.50 L 673.00 560.50 L 672.00 560.50 L 669.00 557.50 L 668.00 557.50 L 664.00 553.50 L 663.00 553.50 L 659.00 549.50 L 658.00 549.50 L 655.00 546.50 L 654.00 546.50 L 651.00 543.50 L 650.00 543.50 L 647.00 540.50 L 646.00 540.50 L 642.00 536.50 L 641.00 536.50 L 638.00 533.50 L 637.00 533.50 L 633.00 529.50 L 632.00 529.50 L 629.00 526.50 L 628.00 526.50 L 624.00 522.50 L 623.00 522.50 L 620.00 519.50 L 619.00 519.50 L 616.00 516.50 L 615.00 516.50 L 612.00 513.50 L 611.00 513.50 L 608.00 510.50 L 607.00 510.50 L 604.00 507.50 L 603.00 507.50 L 598.00 502.50 L 597.00 502.50 L 594.00 499.50 L 593.00 499.50 L 590.00 496.50 L 589.00 496.50 L 585.00 492.50 L 584.00 492.50 L 581.00 489.50 L 580.00 489.50 L 576.00 485.50 L 575.00 485.50 L 572.00 482.50 L 571.00 482.50 L 567.00 478.50 L 566.00 478.50 L 564.00 476.50 L 563.00 476.50 L 560.00 473.50 L 559.00 473.50 L 555.00 469.50 L 554.00 469.50 L 551.00 466.50 L 550.00 466.50 L 547.00 463.50 L 546.00 463.50 L 543.00 460.50 L 542.00 460.50 L 539.00 457.50 L 538.00 457.50 L 534.00 453.50 L 533.00 453.50 L 530.00 450.50 L 529.00 450.50 L 526.00 447.50 L 525.00 447.50 L 521.00 443.50 L 520.00 443.50 L 517.00 440.50 L 516.00 440.50 L 513.00 437.50 L 512.00 437.50 L 509.00 434.50 L 508.00 434.50 L 505.00 431.50 L 504.00 431.50 L 501.00 428.50 L 500.00 428.50 L 496.00 424.50 L 495.00 424.50 L 492.00 421.50 L 491.00 421.50 L 488.00 418.50 L 487.00 418.50 L 484.00 415.50 L 483.00 415.50 L 480.00 412.50 L 479.00 412.50 L 475.00 408.50 L 474.00 408.50 L 472.00 406.50 L 471.00 406.50 L 467.00 402.50 L 466.00 402.50 L 463.00 399.50 L 462.00 399.50 L 459.00 396.50 L 458.00 396.50 L 455.00 393.50 L 454.00 393.50 L 450.00 389.50 L 449.00 389.50 L 446.00 386.50 L 445.00 386.50 L 442.00 383.50 L 441.00 383.50 L 438.00 380.50 L 437.00 380.50 L 434.00 377.50 L 433.00 377.50 L 429.00 373.50 L 428.00 373.50 L 426.00 371.50 L 425.00 371.50 L 422.00 368.50 L 421.00 368.50 L 418.00 365.50 L 417.00 365.50 L 414.00 362.50 L 413.00 362.50 L 410.00 359.50 L 409.00 359.50 L 406.00 356.50 L 405.00 356.50 L 402.00 353.50 L 401.00 353.50 L 399.00 351.50 L 398.00 351.50 L 395.00 348.50 L 394.00 348.50 L 391.00 345.50 L 390.00 345.50 L 388.00 343.50 L 387.00 343.50 L 385.00 341.50 L 384.00 341.50 L 381.00 338.50 L 380.00 338.50 L 377.00 335.50 L 376.00 335.50 L 373.00 332.50 L 372.00 332.50 L 370.00 330.50 L 369.00 330.50 L 366.00 327.50 L 365.00 327.50 L 363.00 325.50 L 362.00 325.50 L 360.00 323.50 L 359.00 323.50 L 356.00 320.50 L 355.00 320.50 L 353.00 318.50 L 352.00 318.50 L 350.00 316.50 L 349.00 316.50 L 346.00 313.50 L 345.00 313.50 L 343.00 311.50 L 342.00 311.50 L 340.00 309.50 L 339.00 309.50 L 337.00 307.50 L 336.00 307.50 L 333.00 304.50 L 332.00 304.50 L 330.00 302.50 L 329.00 302.50 L 327.00 300.50 L 326.00 300.50 L 324.00 298.50 L 323.00 298.50 L 321.00 296.50 L 320.00 296.50 L 318.00 294.50 L 317.00 294.50 L 315.00 292.50 L 314.00 292.50 L 312.00 290.50 L 311.00 290.50 L 309.00 288.50 L 308.00 288.50 L 306.00 286.50 L 305.00 286.50 L 304.00 285.50 L 303.00 285.50 L 301.00 283.50 L 300.00 283.50 L 298.00 281.50 L 297.00 281.50 L 295.00 279.50 L 294.00 279.50 L 292.00 277.50 L 291.00 277.50 L 290.00 276.50 L 289.00 276.50 L 287.00 274.50 L 286.00 274.50 L 285.00 273.50 L 284.00 273.50 L 283.00 272.50 L 282.00 272.50 L 280.00 270.50 L 279.00 270.50 L 278.00 269.50 L 277.00 269.50 L 275.00 267.50 L 274.00 267.50 L 273.00 266.50 L 272.00 266.50 L 270.00 264.50 L 269.00 264.50 L 268.00 263.50 L 267.00 263.50 L 266.00 262.50 L 265.00 262.50 L 263.00 260.50 L 262.00 260.50 L 261.00 259.50 L 260.00 259.50 L 259.00 258.50 L 258.00 258.50 L 257.00 257.50 L 256.00 257.50 L 254.00 255.50 L 253.00 255.50 L 252.00 254.50 L 251.00 254.50 L 250.00 253.50 L 249.00 253.50 L 248.00 252.50 L 247.00 252.50 L 246.00 251.50 L 245.00 251.50 L 244.00 250.50 L 243.00 250.50 L 242.00 249.50 L 241.00 249.50 L 240.00 248.50 L 239.00 248.50 L 238.00 247.50 L 237.00 247.50 L 236.00 246.50 L 235.00 246.50 L 234.00 245.50 L 233.00 245.50 L 232.00 244.50 L 231.00 244.50 L 230.00 243.50 L 229.00 243.50 L 228.00 242.50 L 227.00 242.50 L 226.00 241.50 L 225.00 241.50 L 224.00 240.50 L 223.00 240.50 L 222.00 239.50 L 220.00 239.50 L 219.00 238.50 L 218.00 238.50 L 217.00 237.50 L 216.00 237.50 L 215.00 236.50 L 213.00 236.50 L 212.00 235.50 L 211.00 235.50 L 210.00 234.50 L 207.00 234.50 L 206.00 233.50 L 205.00 233.50 L 204.00 232.50 L 202.00 232.50 L 201.00 231.50 L 200.00 231.50 L 199.00 230.50 L 197.00 230.50 L 196.00 229.50 L 194.00 229.50 L 193.00 228.50 L 191.00 228.50 L 190.00 227.50 L 188.00 227.50 L 187.00 226.50 L 185.00 226.50 L 184.00 225.50 L 181.00 225.50 L 180.00 224.50 L 177.00 224.50 L 176.00 223.50 L 172.00 223.50 L 171.00 222.50 L 164.00 222.50 L 163.00 221.50 L 150.00 221.50 Z" fill="#000" />
</svg>