<svg width="1024" height="1024" viewBox="0 0 1024 1024" xmlns="http://www.w3.org/2000/svg">
  <path d="M 981.52 491.00 L 983.46 499.21 L 982.16 507.38 L 978.65 515.40 L 975.23 523.32 L 973.70 531.31 L 973.94 539.45 L 973.93 547.60 L 971.24 555.40 L 965.00 562.59 L 956.88 569.27 L 950.32 576.01 L 948.41 583.55 L 951.69 592.28 L 957.57 601.84 L 961.72 611.24 L 960.80 619.40 L 954.61 626.01 L 946.41 631.82 L 940.82 638.31 L 940.82 646.71 L 945.56 657.05 L 950.77 667.87 L 951.45 677.11 L 945.40 683.52 L 935.14 687.85 L 926.81 692.83 L 926.40 701.64 L 935.35 715.57 L 948.30 732.29 L 954.52 745.91 L 942.77 749.23 L 906.93 737.16 L 849.62 709.61 L 781.70 672.24 L 717.80 634.40 L 670.26 605.25 L 644.35 589.98 L 637.16 588.01 L 640.19 594.00 L 644.09 601.00 L 642.88 603.90 L 635.71 601.49 L 625.71 596.11 L 617.07 591.49 L 612.27 590.27 L 611.02 592.51 L 610.97 596.06 L 609.61 598.29 L 605.83 597.79 L 600.41 595.17 L 595.12 592.41 L 591.44 591.40 L 589.63 592.69 L 588.72 595.22 L 587.35 597.18 L 584.67 597.25 L 580.87 595.51 L 576.89 593.25 L 573.71 592.04 L 571.71 592.69 L 570.48 594.70 L 569.20 596.70 L 567.23 597.43 L 564.49 596.57 L 561.44 594.88 L 558.71 593.68 L 556.66 593.86 L 555.16 595.34 L 553.75 597.14 L 551.99 598.13 L 549.76 597.76 L 547.27 596.46 L 544.88 595.29 L 542.87 595.17 L 541.21 596.27 L 539.66 597.93 L 537.96 599.11 L 535.99 599.16 L 533.84 598.23 L 531.71 597.13 L 529.75 596.78 L 527.98 597.57 L 526.27 599.06 L 524.49 600.37 L 522.60 600.76 L 520.63 600.15 L 518.67 599.14 L 516.76 598.61 L 514.89 599.08 L 513.00 600.37 L 511.07 601.75 L 509.11 602.47 L 507.17 602.26 L 505.27 601.52 L 503.38 600.99 L 501.41 601.27 L 499.32 602.38 L 497.15 603.76 L 494.99 604.68 L 492.94 604.76 L 490.99 604.21 L 489.05 603.68 L 486.96 603.80 L 484.64 604.74 L 482.16 606.11 L 479.67 607.25 L 477.33 607.69 L 475.16 607.46 L 473.03 607.09 L 470.72 607.18 L 468.09 608.01 L 465.19 609.34 L 462.23 610.60 L 459.44 611.30 L 456.86 611.39 L 454.34 611.27 L 451.60 611.51 L 448.43 612.44 L 444.88 613.90 L 441.18 615.39 L 437.63 616.44 L 434.31 616.93 L 431.04 617.21 L 427.45 617.83 L 423.28 619.14 L 418.53 621.03 L 413.53 623.00 L 408.67 624.53 L 404.10 625.48 L 399.55 626.21 L 394.51 627.31 L 388.54 629.22 L 381.61 631.89 L 374.13 634.80 L 366.65 637.35 L 359.38 639.35 L 351.92 641.21 L 343.41 643.70 L 333.03 647.45 L 320.58 652.46 L 306.62 658.12 L 291.97 663.68 L 276.87 668.94 L 260.24 674.64 L 239.79 682.30 L 213.08 693.30 L 179.07 707.86 L 139.47 724.41 L 98.77 739.89 L 62.99 750.82 L 37.32 754.67 L 24.09 750.96 L 21.87 741.25 L 26.25 728.40 L 32.00 715.29 L 35.32 703.68 L 35.13 693.84 L 32.86 684.99 L 30.98 676.03 L 31.29 666.33 L 33.87 655.98 L 37.30 645.56 L 39.77 635.68 L 40.29 626.55 L 39.31 617.92 L 38.24 609.37 L 38.44 600.56 L 40.35 591.46 L 43.20 582.32 L 45.63 573.41 L 46.65 564.86 L 46.26 556.60 L 45.44 548.41 L 45.41 540.15 L 46.83 531.78 L 49.35 523.42 L 51.89 515.17 L 53.38 507.05 L 53.50 499.02 L 52.83 491.00 L 52.45 482.96 L 53.21 474.94 L 55.16 467.01 L 57.58 459.15 L 59.52 451.33 L 60.42 443.43 L 60.52 435.44 L 60.64 427.43 L 61.59 419.50 L 63.62 411.76 L 66.24 404.16 L 68.61 396.54 L 70.10 388.75 L 70.74 380.73 L 71.16 372.61 L 72.19 364.60 L 74.23 356.85 L 77.04 349.35 L 79.91 341.87 L 82.15 334.18 L 83.59 326.17 L 84.71 317.96 L 86.23 309.85 L 88.68 302.08 L 92.03 294.70 L 95.73 287.48 L 99.13 280.12 L 101.99 272.46 L 104.66 264.65 L 107.82 257.07 L 112.08 250.10 L 117.53 243.88 L 123.79 238.25 L 130.40 232.93 L 137.30 227.93 L 145.18 223.76 L 155.23 221.40 L 168.58 221.91 L 185.65 225.92 L 205.91 233.32 L 228.03 243.28 L 250.54 254.68 L 272.38 266.61 L 293.17 278.71 L 313.01 291.01 L 332.03 303.60 L 350.03 316.24 L 366.45 328.24 L 380.68 338.78 L 392.46 347.35 L 402.14 354.10 L 410.50 359.80 L 418.33 365.37 L 426.05 371.32 L 433.50 377.47 L 440.23 383.11 L 445.82 387.55 L 450.26 390.60 L 453.98 392.78 L 457.56 394.98 L 461.39 397.90 L 465.44 401.55 L 469.33 405.29 L 472.64 408.24 L 475.20 409.94 L 477.23 410.65 L 479.15 411.25 L 481.34 412.63 L 483.85 415.07 L 486.45 418.05 L 488.76 420.61 L 490.57 421.98 L 491.95 422.14 L 493.18 421.87 L 494.57 422.23 L 496.26 423.84 L 498.10 426.44 L 499.83 429.05 L 501.27 430.64 L 502.39 430.82 L 503.36 430.12 L 504.38 429.67 L 505.56 430.42 L 506.85 432.47 L 508.10 435.03 L 509.22 436.89 L 510.19 437.30 L 511.10 436.49 L 512.03 435.50 L 513.00 435.51 L 513.94 437.04 L 514.80 439.54 L 515.58 441.76 L 516.38 442.62 L 517.29 441.93 L 518.30 440.56 L 519.28 439.87 L 520.06 440.76 L 520.59 443.06 L 521.00 445.60 L 521.54 447.05 L 522.40 446.77 L 523.55 445.32 L 524.70 444.08 L 525.51 444.32 L 525.82 446.29 L 525.83 449.04 L 525.99 451.03 L 526.70 451.21 L 528.02 449.74 L 529.54 447.92 L 530.64 447.35 L 530.91 448.80 L 530.51 451.67 L 530.10 454.32 L 530.44 455.24 L 531.84 454.03 L 533.85 451.79 L 535.53 450.35 L 536.05 451.08 L 535.31 453.88 L 534.13 457.19 L 533.74 459.06 L 534.96 458.45 L 537.50 456.00 L 540.09 453.71 L 541.24 453.52 L 540.34 456.01 L 538.20 459.88 L 536.69 462.76 L 537.48 462.84 L 540.76 460.17 L 544.91 456.79 L 547.37 455.41 L 546.43 457.57 L 542.62 462.39 L 538.80 466.94 L 538.41 468.12 L 543.07 464.86 L 550.83 459.26 L 556.72 455.59 L 555.70 457.64 L 546.47 465.78 L 534.17 475.62 L 529.74 479.28 L 545.84 468.85 L 591.00 440.35 L 664.82 396.14 L 756.89 344.45 L 850.29 296.27 L 927.92 261.00 L 978.97 243.24 L 1002.12 241.78 L 1004.55 251.25 L 997.38 265.13 L 990.30 278.49 L 988.07 289.35 L 990.21 298.19 L 993.46 306.57 L 994.88 315.61 L 993.81 325.44 L 991.65 335.48 L 990.21 345.10 L 989.95 354.24 L 989.64 363.28 L 987.38 372.72 L 982.35 382.64 L 975.79 392.63 L 970.43 402.08 L 968.81 410.63 L 971.52 418.38 L 976.73 425.83 L 981.21 433.51 L 982.40 441.66 L 979.98 450.14 L 975.97 458.63 L 973.34 466.87 L 973.98 474.90 L 977.48 482.89 Z" fill="#000" />
</svg>