<svg width="1024" height="1024" viewBox="0 0 1024 1024" xmlns="http://www.w3.org/2000/svg">
  <path d="M 621.50 483.00 L 622.00 482.50 L 623.00 482.50 L 624.00 482.50 L 624.50 483.00 L 625.00 483.50 L 626.00 483.50 L 626.50 484.00 L 627.00 484.50 L 628.00 484.50 L 629.00 484.50 L 629.50 485.00 L 630.00 485.50 L 631.00 485.50 L 631.50 486.00 L 632.00 486.50 L 633.00 486.50 L 633.50 487.00 L 634.00 487.50 L 635.00 487.50 L 635.50 488.00 L 636.00 488.50 L 637.00 488.50 L 638.00 488.50 L 638.50 489.00 L 639.00 489.50 L 640.00 489.50 L 640.50 490.00 L 641.00 490.50 L 642.00 490.50 L 642.50 491.00 L 643.00 491.50 L 644.00 491.50 L 644.50 492.00 L 645.00 492.50 L 646.00 492.50 L 646.50 493.00 L 647.00 493.50 L 648.00 493.50 L 648.50 494.00 L 649.00 494.50 L 650.00 494.50 L 650.50 495.00 L 651.00 495.50 L 652.00 495.50 L 652.50 496.00 L 653.00 496.50 L 653.50 497.00 L 654.00 497.50 L 655.00 497.50 L 655.50 498.00 L 656.00 498.50 L 657.00 498.50 L 657.50 499.00 L 658.00 499.50 L 659.00 499.50 L 659.50 500.00 L 660.00 500.50 L 660.50 501.00 L 661.00 501.50 L 662.00 501.50 L 662.50 502.00 L 663.00 502.50 L 664.00 502.50 L 664.50 503.00 L 665.00 503.50 L 666.00 503.50 L 666.50 504.00 L 667.00 504.50 L 667.50 505.00 L 668.00 505.50 L 669.00 505.50 L 669.50 506.00 L 670.00 506.50 L 670.50 507.00 L 671.00 507.50 L 672.00 507.50 L 672.50 508.00 L 673.00 508.50 L 673.50 509.00 L 674.00 509.50 L 675.00 509.50 L 675.50 510.00 L 676.00 510.50 L 676.50 511.00 L 677.00 511.50 L 678.00 511.50 L 678.50 512.00 L 679.00 512.50 L 679.50 513.00 L 680.00 513.50 L 681.00 513.50 L 681.50 514.00 L 682.00 514.50 L 682.50 515.00 L 683.00 515.50 L 684.00 515.50 L 684.50 516.00 L 685.00 516.50 L 685.50 517.00 L 686.00 517.50 L 687.00 517.50 L 687.50 518.00 L 688.00 518.50 L 688.50 519.00 L 689.00 519.50 L 690.00 519.50 L 690.50 520.00 L 691.00 520.50 L 691.50 521.00 L 692.00 521.50 L 693.00 521.50 L 693.50 522.00 L 694.00 522.50 L 694.50 523.00 L 695.00 523.50 L 696.00 523.50 L 696.50 524.00 L 697.00 524.50 L 697.50 525.00 L 698.00 525.50 L 698.50 526.00 L 699.00 526.50 L 700.00 526.50 L 700.50 527.00 L 701.00 527.50 L 701.50 528.00 L 702.00 528.50 L 703.00 528.50 L 703.50 529.00 L 704.00 529.50 L 704.50 530.00 L 705.00 530.50 L 706.00 530.50 L 706.50 531.00 L 707.00 531.50 L 707.50 532.00 L 708.00 532.50 L 709.00 532.50 L 709.50 533.00 L 710.00 533.50 L 711.00 533.50 L 711.50 534.00 L 712.00 534.50 L 712.50 535.00 L 713.00 535.50 L 714.00 535.50 L 714.50 536.00 L 715.00 536.50 L 716.00 536.50 L 716.50 537.00 L 717.00 537.50 L 718.00 537.50 L 718.50 538.00 L 719.00 538.50 L 720.00 538.50 L 720.50 539.00 L 721.00 539.50 L 722.00 539.50 L 722.50 540.00 L 723.00 540.50 L 724.00 540.50 L 724.50 541.00 L 725.00 541.50 L 726.00 541.50 L 726.50 542.00 L 727.00 542.50 L 728.00 542.50 L 728.50 543.00 L 729.00 543.50 L 730.00 543.50 L 730.50 544.00 L 731.00 544.50 L 732.00 544.50 L 733.00 544.50 L 733.50 545.00 L 734.00 545.50 L 735.00 545.50 L 735.50 546.00 L 736.00 546.50 L 737.00 546.50 L 738.00 546.50 L 738.50 547.00 L 739.00 547.50 L 740.00 547.50 L 741.00 547.50 L 741.50 548.00 L 742.00 548.50 L 743.00 548.50 L 743.50 549.00 L 744.00 549.50 L 745.00 549.50 L 746.00 549.50 L 746.50 550.00 L 747.00 550.50 L 748.00 550.50 L 749.00 550.50 L 749.50 551.00 L 750.00 551.50 L 751.00 551.50 L 751.50 552.00 L 752.00 552.50 L 753.00 552.50 L 754.00 552.50 L 754.50 553.00 L 755.00 553.50 L 756.00 553.50 L 757.00 553.50 L 758.00 553.50 L 758.50 554.00 L 759.00 554.50 L 760.00 554.50 L 761.00 554.50 L 761.50 555.00 L 762.00 555.50 L 763.00 555.50 L 764.00 555.50 L 765.00 555.50 L 766.00 555.50 L 766.50 556.00 L 767.00 556.50 L 768.00 556.50 L 769.00 556.50 L 769.50 557.00 L 770.00 557.50 L 771.00 557.50 L 772.00 557.50 L 773.00 557.50 L 773.50 558.00 L 774.00 558.50 L 775.00 558.50 L 776.00 558.50 L 777.00 558.50 L 777.50 559.00 L 778.00 559.50 L 779.00 559.50 L 780.00 559.50 L 780.50 560.00 L 781.00 560.50 L 782.00 560.50 L 783.00 560.50 L 784.00 560.50 L 784.50 561.00 L 785.00 561.50 L 786.00 561.50 L 787.00 561.50 L 788.00 561.50 L 788.50 562.00 L 789.00 562.50 L 790.00 562.50 L 791.00 562.50 L 792.00 562.50 L 792.50 563.00 L 793.00 563.50 L 794.00 563.50 L 795.00 563.50 L 796.00 563.50 L 796.50 564.00 L 797.00 564.50 L 798.00 564.50 L 799.00 564.50 L 800.00 564.50 L 800.50 565.00 L 801.00 565.50 L 802.00 565.50 L 803.00 565.50 L 804.00 565.50 L 804.50 566.00 L 805.00 566.50 L 806.00 566.50 L 807.00 566.50 L 808.00 566.50 L 808.50 567.00 L 809.00 567.50 L 810.00 567.50 L 811.00 567.50 L 812.00 567.50 L 813.00 567.50 L 813.50 568.00 L 814.00 568.50 L 815.00 568.50 L 816.00 568.50 L 817.00 568.50 L 817.50 569.00 L 818.00 569.50 L 819.00 569.50 L 820.00 569.50 L 821.00 569.50 L 822.00 569.50 L 822.50 570.00 L 823.00 570.50 L 824.00 570.50 L 825.00 570.50 L 826.00 570.50 L 827.00 570.50 L 827.50 571.00 L 828.00 571.50 L 829.00 571.50 L 830.00 571.50 L 831.00 571.50 L 831.50 572.00 L 832.00 572.50 L 833.00 572.50 L 834.00 572.50 L 835.00 572.50 L 836.00 572.50 L 836.50 573.00 L 837.00 573.50 L 838.00 573.50 L 839.00 573.50 L 840.00 573.50 L 840.50 574.00 L 841.00 574.50 L 842.00 574.50 L 843.00 574.50 L 844.00 574.50 L 845.00 574.50 L 845.50 575.00 L 846.00 575.50 L 847.00 575.50 L 848.00 575.50 L 849.00 575.50 L 850.00 575.50 L 851.00 575.50 L 851.50 576.00 L 852.00 576.50 L 853.00 576.50 L 854.00 576.50 L 855.00 576.50 L 856.00 576.50 L 856.50 577.00 L 857.00 577.50 L 858.00 577.50 L 859.00 577.50 L 860.00 577.50 L 860.50 578.00 L 861.00 578.50 L 862.00 578.50 L 863.00 578.50 L 864.00 578.50 L 865.00 578.50 L 865.50 579.00 L 866.00 579.50 L 867.00 579.50 L 868.00 579.50 L 869.00 579.50 L 870.00 579.50 L 871.00 579.50 L 871.50 580.00 L 872.00 580.50 L 873.00 580.50 L 874.00 580.50 L 875.00 580.50 L 876.00 580.50 L 876.50 581.00 L 877.00 581.50 L 878.00 581.50 L 879.00 581.50 L 880.00 581.50 L 881.00 581.50 L 882.00 581.50 L 883.00 581.50 L 883.50 582.00 L 884.00 582.50 L 885.00 582.50 L 886.00 582.50 L 887.00 582.50 L 888.00 582.50 L 889.00 582.50 L 889.50 583.00 L 890.00 583.50 L 891.00 583.50 L 892.00 583.50 L 893.00 583.50 L 894.00 583.50 L 895.00 583.50 L 895.50 584.00 L 896.00 584.50 L 897.00 584.50 L 898.00 584.50 L 899.00 584.50 L 900.00 584.50 L 901.00 584.50 L 901.50 585.00 L 902.00 585.50 L 903.00 585.50 L 904.00 585.50 L 905.00 585.50 L 906.00 585.50 L 907.00 585.50 L 907.50 586.00 L 908.00 586.50 L 909.00 586.50 L 909.50 587.00 L 909.00 587.50 L 908.50 588.00 L 908.00 588.50 L 907.50 588.00 L 907.00 587.50 L 906.00 587.50 L 905.00 587.50 L 904.00 587.50 L 903.00 587.50 L 902.00 587.50 L 901.50 587.00 L 901.00 586.50 L 900.00 586.50 L 899.00 586.50 L 898.00 586.50 L 897.00 586.50 L 896.00 586.50 L 895.50 586.00 L 895.00 585.50 L 894.00 585.50 L 893.00 585.50 L 892.00 585.50 L 891.00 585.50 L 890.50 585.00 L 890.00 584.50 L 889.00 584.50 L 888.00 584.50 L 887.00 584.50 L 886.00 584.50 L 885.50 584.00 L 885.00 583.50 L 884.00 583.50 L 883.00 583.50 L 882.00 583.50 L 881.00 583.50 L 880.00 583.50 L 879.50 583.00 L 879.00 582.50 L 878.00 582.50 L 877.00 582.50 L 876.00 582.50 L 875.00 582.50 L 874.00 582.50 L 873.50 582.00 L 873.00 581.50 L 872.00 581.50 L 871.00 581.50 L 870.00 581.50 L 869.00 581.50 L 868.00 581.50 L 867.50 581.00 L 867.00 580.50 L 866.00 580.50 L 865.00 580.50 L 864.00 580.50 L 863.00 580.50 L 862.00 580.50 L 861.50 580.00 L 861.00 579.50 L 860.00 579.50 L 859.00 579.50 L 858.00 579.50 L 857.00 579.50 L 856.50 579.00 L 856.00 578.50 L 855.00 578.50 L 854.00 578.50 L 853.00 578.50 L 852.00 578.50 L 851.50 578.00 L 851.00 577.50 L 850.00 577.50 L 849.00 577.50 L 848.00 577.50 L 847.00 577.50 L 846.50 577.00 L 846.00 576.50 L 845.00 576.50 L 844.00 576.50 L 843.00 576.50 L 842.00 576.50 L 841.50 576.00 L 841.00 575.50 L 840.00 575.50 L 839.00 575.50 L 838.00 575.50 L 837.00 575.50 L 836.50 575.00 L 836.00 574.50 L 835.00 574.50 L 834.00 574.50 L 833.00 574.50 L 832.00 574.50 L 831.50 574.00 L 831.00 573.50 L 830.00 573.50 L 829.00 573.50 L 828.00 573.50 L 827.00 573.50 L 826.50 573.00 L 826.00 572.50 L 825.00 572.50 L 824.00 572.50 L 823.00 572.50 L 822.50 572.00 L 822.00 571.50 L 821.00 571.50 L 820.00 571.50 L 819.00 571.50 L 818.50 571.00 L 818.00 570.50 L 817.00 570.50 L 816.00 570.50 L 815.00 570.50 L 814.00 570.50 L 813.50 570.00 L 813.00 569.50 L 812.00 569.50 L 811.00 569.50 L 810.00 569.50 L 809.00 569.50 L 808.50 569.00 L 808.00 568.50 L 807.00 568.50 L 806.00 568.50 L 805.00 568.50 L 804.50 568.00 L 804.00 567.50 L 803.00 567.50 L 802.00 567.50 L 801.00 567.50 L 800.50 567.00 L 800.00 566.50 L 799.00 566.50 L 798.00 566.50 L 797.00 566.50 L 796.50 566.00 L 796.00 565.50 L 795.00 565.50 L 794.00 565.50 L 793.50 565.00 L 793.00 564.50 L 792.00 564.50 L 791.00 564.50 L 790.00 564.50 L 789.50 564.00 L 789.00 563.50 L 788.00 563.50 L 787.00 563.50 L 786.00 563.50 L 785.50 563.00 L 785.00 562.50 L 784.00 562.50 L 783.00 562.50 L 782.00 562.50 L 781.50 562.00 L 781.00 561.50 L 780.00 561.50 L 779.00 561.50 L 778.00 561.50 L 777.50 561.00 L 777.00 560.50 L 776.00 560.50 L 775.00 560.50 L 774.00 560.50 L 773.50 560.00 L 773.00 559.50 L 772.00 559.50 L 771.00 559.50 L 770.00 559.50 L 769.50 559.00 L 769.00 558.50 L 768.00 558.50 L 767.00 558.50 L 766.00 558.50 L 765.50 558.00 L 765.00 557.50 L 764.00 557.50 L 763.00 557.50 L 762.00 557.50 L 761.50 557.00 L 761.00 556.50 L 760.00 556.50 L 759.00 556.50 L 758.00 556.50 L 757.50 556.00 L 757.00 555.50 L 756.00 555.50 L 755.00 555.50 L 754.50 555.00 L 754.00 554.50 L 753.00 554.50 L 752.00 554.50 L 751.50 554.00 L 751.00 553.50 L 750.00 553.50 L 749.00 553.50 L 748.50 553.00 L 748.00 552.50 L 747.00 552.50 L 746.00 552.50 L 745.50 552.00 L 745.00 551.50 L 744.00 551.50 L 743.00 551.50 L 742.50 551.00 L 742.00 550.50 L 741.00 550.50 L 740.50 550.00 L 740.00 549.50 L 739.00 549.50 L 738.00 549.50 L 737.50 549.00 L 737.00 548.50 L 736.00 548.50 L 735.00 548.50 L 734.50 548.00 L 734.00 547.50 L 733.00 547.50 L 732.50 547.00 L 732.00 546.50 L 731.00 546.50 L 730.00 546.50 L 729.50 546.00 L 729.00 545.50 L 728.00 545.50 L 727.50 545.00 L 727.00 544.50 L 726.00 544.50 L 725.50 544.00 L 725.00 543.50 L 724.00 543.50 L 723.50 543.00 L 723.00 542.50 L 722.00 542.50 L 721.50 542.00 L 721.00 541.50 L 720.00 541.50 L 719.50 541.00 L 719.00 540.50 L 718.00 540.50 L 717.50 540.00 L 717.00 539.50 L 716.00 539.50 L 715.50 539.00 L 715.00 538.50 L 714.00 538.50 L 713.50 538.00 L 713.00 537.50 L 712.00 537.50 L 711.50 537.00 L 711.00 536.50 L 710.00 536.50 L 709.50 536.00 L 709.00 535.50 L 708.50 535.00 L 708.00 534.50 L 707.00 534.50 L 706.50 534.00 L 706.00 533.50 L 705.00 533.50 L 704.50 533.00 L 704.00 532.50 L 703.50 532.00 L 703.00 531.50 L 702.00 531.50 L 701.50 531.00 L 701.00 530.50 L 700.50 530.00 L 700.00 529.50 L 699.00 529.50 L 698.50 529.00 L 698.00 528.50 L 697.50 528.00 L 697.00 527.50 L 696.00 527.50 L 695.50 527.00 L 695.00 526.50 L 694.50 526.00 L 694.00 525.50 L 693.00 525.50 L 692.50 525.00 L 692.00 524.50 L 691.50 524.00 L 691.00 523.50 L 690.50 523.00 L 690.00 522.50 L 689.00 522.50 L 688.50 522.00 L 688.00 521.50 L 687.50 521.00 L 687.00 520.50 L 686.00 520.50 L 685.50 520.00 L 685.00 519.50 L 684.50 519.00 L 684.00 518.50 L 683.00 518.50 L 682.50 518.00 L 682.00 517.50 L 681.50 517.00 L 681.00 516.50 L 680.00 516.50 L 679.50 516.00 L 679.00 515.50 L 678.50 515.00 L 678.00 514.50 L 677.50 514.00 L 677.00 513.50 L 676.00 513.50 L 675.50 513.00 L 675.00 512.50 L 674.50 512.00 L 674.00 511.50 L 673.00 511.50 L 672.50 511.00 L 672.00 510.50 L 671.50 510.00 L 671.00 509.50 L 670.00 509.50 L 669.50 509.00 L 669.00 508.50 L 668.50 508.00 L 668.00 507.50 L 667.00 507.50 L 666.50 507.00 L 666.00 506.50 L 665.00 506.50 L 664.50 506.00 L 664.00 505.50 L 663.50 505.00 L 663.00 504.50 L 662.00 504.50 L 661.50 504.00 L 661.00 503.50 L 660.50 503.00 L 660.00 502.50 L 659.00 502.50 L 658.50 502.00 L 658.00 501.50 L 657.00 501.50 L 656.50 501.00 L 656.00 500.50 L 655.50 500.00 L 655.00 499.50 L 654.00 499.50 L 653.50 499.00 L 653.00 498.50 L 652.00 498.50 L 651.50 498.00 L 651.00 497.50 L 650.50 497.00 L 650.00 496.50 L 649.00 496.50 L 648.50 496.00 L 648.00 495.50 L 647.00 495.50 L 646.50 495.00 L 646.00 494.50 L 645.00 494.50 L 644.50 494.00 L 644.00 493.50 L 643.00 493.50 L 642.50 493.00 L 642.00 492.50 L 641.00 492.50 L 640.50 492.00 L 640.00 491.50 L 639.00 491.50 L 638.50 491.00 L 638.00 490.50 L 637.00 490.50 L 636.50 490.00 L 636.00 489.50 L 635.00 489.50 L 634.50 489.00 L 634.00 488.50 L 633.00 488.50 L 632.50 488.00 L 632.00 487.50 L 631.00 487.50 L 630.00 487.50 L 629.50 487.00 L 629.00 486.50 L 628.00 486.50 L 627.50 486.00 L 627.00 485.50 L 626.00 485.50 L 625.50 485.00 L 625.00 484.50 L 624.00 484.50 L 623.50 484.00 L 623.00 483.50 L 622.00 483.50 L 621.50 483.00 Z" fill="#000" />
</svg>