<svg width="1024" height="1024" viewBox="0 0 1024 1024" xmlns="http://www.w3.org/2000/svg">
  <path d="M 621.50 483.00 L 624.00 482.50 L 636.00 488.50 L 638.00 488.50 L 652.00 495.50 L 654.00 497.50 L 659.00 499.50 L 661.00 501.50 L 666.00 503.50 L 668.00 505.50 L 669.00 505.50 L 671.00 507.50 L 672.00 507.50 L 674.00 509.50 L 675.00 509.50 L 677.00 511.50 L 678.00 511.50 L 680.00 513.50 L 681.00 513.50 L 683.00 515.50 L 684.00 515.50 L 686.00 517.50 L 687.00 517.50 L 689.00 519.50 L 696.00 523.50 L 699.00 526.50 L 700.00 526.50 L 708.00 532.50 L 711.00 533.50 L 713.00 535.50 L 731.00 544.50 L 733.00 544.50 L 736.00 546.50 L 738.00 546.50 L 744.00 549.50 L 749.00 550.50 L 752.00 552.50 L 758.00 553.50 L 762.00 555.50 L 766.00 555.50 L 767.00 556.50 L 773.00 557.50 L 774.00 558.50 L 777.00 558.50 L 781.00 560.50 L 784.00 560.50 L 785.00 561.50 L 788.00 561.50 L 789.00 562.50 L 792.00 562.50 L 793.00 563.50 L 796.00 563.50 L 797.00 564.50 L 800.00 564.50 L 801.00 565.50 L 808.00 566.50 L 809.00 567.50 L 817.00 568.50 L 818.00 569.50 L 827.00 570.50 L 828.00 571.50 L 836.00 572.50 L 837.00 573.50 L 840.00 573.50 L 841.00 574.50 L 851.00 575.50 L 852.00 576.50 L 856.00 576.50 L 857.00 577.50 L 860.00 577.50 L 861.00 578.50 L 871.00 579.50 L 872.00 580.50 L 876.00 580.50 L 877.00 581.50 L 883.00 581.50 L 884.00 582.50 L 889.00 582.50 L 890.00 583.50 L 895.00 583.50 L 896.00 584.50 L 907.00 585.50 L 909.50 587.00 L 908.00 588.50 L 907.00 587.50 L 896.00 586.50 L 895.00 585.50 L 891.00 585.50 L 890.00 584.50 L 886.00 584.50 L 885.00 583.50 L 880.00 583.50 L 879.00 582.50 L 874.00 582.50 L 873.00 581.50 L 862.00 580.50 L 861.00 579.50 L 857.00 579.50 L 856.00 578.50 L 852.00 578.50 L 851.00 577.50 L 847.00 577.50 L 846.00 576.50 L 842.00 576.50 L 841.00 575.50 L 837.00 575.50 L 836.00 574.50 L 827.00 573.50 L 826.00 572.50 L 823.00 572.50 L 822.00 571.50 L 819.00 571.50 L 818.00 570.50 L 809.00 569.50 L 808.00 568.50 L 805.00 568.50 L 804.00 567.50 L 797.00 566.50 L 793.00 564.50 L 790.00 564.50 L 789.00 563.50 L 786.00 563.50 L 785.00 562.50 L 782.00 562.50 L 781.00 561.50 L 778.00 561.50 L 777.00 560.50 L 774.00 560.50 L 773.00 559.50 L 770.00 559.50 L 769.00 558.50 L 766.00 558.50 L 765.00 557.50 L 758.00 556.50 L 757.00 555.50 L 755.00 555.50 L 754.00 554.50 L 752.00 554.50 L 751.00 553.50 L 743.00 551.50 L 740.00 549.50 L 738.00 549.50 L 732.00 546.50 L 730.00 546.50 L 710.00 536.50 L 708.00 534.50 L 705.00 533.50 L 703.00 531.50 L 702.00 531.50 L 700.00 529.50 L 693.00 525.50 L 690.00 522.50 L 689.00 522.50 L 687.00 520.50 L 680.00 516.50 L 677.00 513.50 L 676.00 513.50 L 668.00 507.50 L 665.00 506.50 L 660.00 502.50 L 657.00 501.50 L 650.00 496.50 L 621.50 483.00 Z" fill="#000" />
</svg>