<svg width="929" height="539" viewBox="0 0 929 539" fill="none" xmlns="http://www.w3.org/2000/svg">
<path d="M842.671 505.537C850.408 496.898 932.785 188.771 910.076 24.6637C904.038 -18.9597 752.937 100.157 786.658 71.8283C823.085 41.2302 915.165 -30.0072 921.924 17.0814C944.318 173.081 893.478 351.604 853.424 525.081C745.585 460.04 633.535 348.616 510.392 374.98C397.424 392.581 12.9239 586.581 1.42404 525.081C2.34493 494.028 5.48106 467.638 8.17726 436.689C16.7026 338.686 29.0633 240.806 48.0507 144.284C55.2089 107.904 59.6045 63.5688 88.8735 40.803C144.668 -2.59262 232.968 62.7428 292.038 101.562C400.313 178.642 500.054 265.366 842.671 505.537ZM842.671 505.537C807.924 480.825 668.937 381.986 611.025 340.803" stroke="#111111" stroke-width="2.8481" stroke-linecap="round" stroke-linejoin="round"/>
</svg>
