<svg width="1024" height="1024" viewBox="0 0 1024 1024" xmlns="http://www.w3.org/2000/svg">
  <path d="M 592.00 470.50 L 592.00 471.50 L 595.00 472.50 L 597.00 474.50 L 599.00 474.50 L 609.00 479.50 L 611.00 479.50 L 614.00 481.50 L 616.00 481.50 L 619.00 483.50 L 621.00 483.50 L 626.00 486.50 L 628.00 486.50 L 635.00 490.50 L 637.00 490.50 L 645.00 494.50 L 647.00 496.50 L 652.00 498.50 L 654.00 500.50 L 662.00 504.50 L 667.00 508.50 L 670.00 509.50 L 672.00 511.50 L 679.00 515.50 L 682.00 518.50 L 689.00 522.50 L 692.00 525.50 L 693.00 525.50 L 704.00 533.50 L 707.00 534.50 L 709.00 536.50 L 716.00 539.50 L 718.00 541.50 L 726.00 545.50 L 728.00 545.50 L 731.00 547.50 L 733.00 547.50 L 739.00 550.50 L 744.00 551.50 L 747.00 553.50 L 749.00 553.50 L 753.00 555.50 L 756.00 555.50 L 760.00 557.50 L 763.00 557.50 L 764.00 558.50 L 767.00 558.50 L 768.00 559.50 L 771.00 559.50 L 772.00 560.50 L 775.00 560.50 L 776.00 561.50 L 779.00 561.50 L 780.00 562.50 L 783.00 562.50 L 784.00 563.50 L 791.00 564.50 L 792.00 565.50 L 798.00 566.50 L 802.00 568.50 L 806.00 568.50 L 810.00 570.50 L 818.00 571.50 L 819.00 572.50 L 824.00 572.50 L 825.00 573.50 L 828.00 573.50 L 829.00 574.50 L 833.00 574.50 L 834.00 575.50 L 838.00 575.50 L 839.00 576.50 L 843.00 576.50 L 844.00 577.50 L 849.00 577.50 L 850.00 578.50 L 854.00 578.50 L 855.00 579.50 L 860.00 579.50 L 861.00 580.50 L 865.00 580.50 L 866.00 581.50 L 871.00 581.50 L 872.00 582.50 L 876.00 582.50 L 877.00 583.50 L 881.00 583.50 L 882.00 584.50 L 887.00 584.50 L 888.00 585.50 L 891.00 585.50 L 892.00 586.50 L 897.00 586.50 L 898.00 587.50 L 904.00 587.50 L 905.00 588.50 L 909.00 588.50 L 910.50 587.00 L 908.00 585.50 L 905.00 585.50 L 904.00 584.50 L 898.00 584.50 L 897.00 583.50 L 892.00 583.50 L 891.00 582.50 L 887.00 582.50 L 886.00 581.50 L 880.00 581.50 L 879.00 580.50 L 875.00 580.50 L 874.00 579.50 L 869.00 579.50 L 868.00 578.50 L 865.00 578.50 L 864.00 577.50 L 854.00 576.50 L 853.00 575.50 L 850.00 575.50 L 849.00 574.50 L 845.00 574.50 L 844.00 573.50 L 840.00 573.50 L 839.00 572.50 L 830.00 571.50 L 829.00 570.50 L 826.00 570.50 L 825.00 569.50 L 816.00 568.50 L 815.00 567.50 L 812.00 567.50 L 811.00 566.50 L 807.00 566.50 L 806.00 565.50 L 803.00 565.50 L 802.00 564.50 L 799.00 564.50 L 798.00 563.50 L 795.00 563.50 L 794.00 562.50 L 787.00 561.50 L 783.00 559.50 L 780.00 559.50 L 779.00 558.50 L 776.00 558.50 L 775.00 557.50 L 768.00 556.50 L 764.00 554.50 L 761.00 554.50 L 760.00 553.50 L 757.00 553.50 L 756.00 552.50 L 748.00 550.50 L 740.00 546.50 L 738.00 546.50 L 732.00 543.50 L 730.00 543.50 L 714.00 535.50 L 712.00 533.50 L 709.00 532.50 L 707.00 530.50 L 700.00 526.50 L 697.00 523.50 L 694.00 522.50 L 691.00 519.50 L 684.00 515.50 L 681.00 512.50 L 678.00 511.50 L 675.00 508.50 L 672.00 507.50 L 667.00 503.50 L 657.00 498.50 L 655.00 496.50 L 633.00 485.50 L 631.00 485.50 L 626.00 482.50 L 624.00 482.50 L 619.00 479.50 L 617.00 479.50 L 616.00 478.50 L 611.00 477.50 L 608.00 475.50 L 603.00 474.50 L 600.00 472.50 L 592.00 470.50 Z" fill="#000" />
</svg>