<svg width="1024" height="1024" viewBox="0 0 1024 1024" xmlns="http://www.w3.org/2000/svg">
  <path d="M 992.24 491.00 L 1000.29 499.56 L 1005.21 508.29 L 1006.91 517.04 L 1005.43 525.64 L 1000.98 533.96 L 993.87 541.86 L 984.52 549.26 L 973.46 556.14 L 961.25 562.47 L 948.48 568.32 L 935.73 573.75 L 923.57 578.91 L 912.48 583.92 L 902.87 588.95 L 895.05 594.17 L 889.20 599.73 L 885.42 605.78 L 883.64 612.40 L 883.71 619.68 L 885.38 627.63 L 888.31 636.22 L 892.11 645.38 L 896.33 654.99 L 900.53 664.88 L 904.26 674.85 L 907.11 684.69 L 908.72 694.16 L 908.80 703.05 L 907.12 711.13 L 903.56 718.22 L 898.07 724.17 L 890.68 728.87 L 881.51 732.26 L 870.74 734.32 L 858.61 735.10 L 845.40 734.68 L 831.41 733.20 L 816.93 730.80 L 802.27 727.68 L 787.71 724.03 L 773.49 720.05 L 759.81 715.93 L 746.82 711.84 L 734.65 707.94 L 723.34 704.34 L 712.91 701.12 L 703.33 698.32 L 694.54 695.95 L 686.46 693.99 L 678.99 692.39 L 672.02 691.08 L 665.44 689.96 L 659.16 688.95 L 653.10 687.95 L 647.17 686.89 L 641.33 685.71 L 635.56 684.34 L 629.83 682.77 L 624.16 681.00 L 618.57 679.04 L 613.07 676.94 L 607.70 674.76 L 602.50 672.54 L 597.49 670.38 L 592.69 668.34 L 588.13 666.47 L 583.79 664.84 L 579.69 663.48 L 575.79 662.40 L 572.10 661.61 L 568.56 661.08 L 565.16 660.78 L 561.87 660.65 L 558.64 660.63 L 555.46 660.66 L 552.30 660.65 L 549.14 660.55 L 545.99 660.31 L 542.83 659.87 L 539.66 659.22 L 536.51 658.35 L 533.37 657.26 L 530.26 655.98 L 527.19 654.56 L 524.18 653.05 L 521.22 651.51 L 518.33 650.02 L 515.50 648.63 L 512.73 647.40 L 510.00 646.38 L 507.30 645.62 L 504.62 645.12 L 501.93 644.90 L 499.24 644.94 L 496.51 645.21 L 493.74 645.68 L 490.93 646.30 L 488.07 647.01 L 485.17 647.75 L 482.23 648.48 L 479.26 649.13 L 476.27 649.68 L 473.27 650.10 L 470.27 650.36 L 467.27 650.46 L 464.29 650.41 L 461.32 650.23 L 458.36 649.94 L 455.40 649.57 L 452.44 649.15 L 449.46 648.71 L 446.46 648.27 L 443.43 647.83 L 440.36 647.41 L 437.25 647.01 L 434.11 646.60 L 430.94 646.16 L 427.75 645.68 L 424.57 645.13 L 421.39 644.48 L 418.24 643.72 L 415.12 642.85 L 412.02 641.88 L 408.93 640.84 L 405.82 639.78 L 402.63 638.78 L 399.28 637.92 L 395.69 637.31 L 391.72 637.06 L 387.25 637.29 L 382.11 638.13 L 376.14 639.67 L 369.17 642.02 L 361.05 645.24 L 351.62 649.38 L 340.75 654.45 L 328.35 660.39 L 314.38 667.14 L 298.82 674.58 L 281.73 682.54 L 263.21 690.85 L 243.43 699.27 L 222.61 707.56 L 201.04 715.48 L 179.01 722.76 L 156.90 729.17 L 135.07 734.48 L 113.92 738.50 L 93.81 741.08 L 75.10 742.09 L 58.11 741.49 L 43.12 739.25 L 30.33 735.41 L 19.88 730.05 L 11.84 723.29 L 6.20 715.31 L 2.87 706.27 L 1.67 696.38 L 2.40 685.85 L 4.76 674.89 L 8.44 663.70 L 13.10 652.45 L 18.38 641.30 L 23.94 630.38 L 29.45 619.76 L 34.63 609.52 L 39.24 599.68 L 43.10 590.24 L 46.09 581.18 L 48.15 572.44 L 49.29 563.97 L 49.58 555.71 L 49.14 547.59 L 48.11 539.55 L 46.70 531.53 L 45.10 523.51 L 43.52 515.45 L 42.16 507.34 L 41.19 499.18 L 40.75 491.00 L 40.94 482.81 L 41.84 474.65 L 43.44 466.55 L 45.72 458.53 L 48.60 450.63 L 51.97 442.86 L 55.69 435.22 L 59.60 427.70 L 63.55 420.29 L 67.37 412.95 L 70.91 405.65 L 74.03 398.33 L 76.65 390.95 L 78.70 383.47 L 80.16 375.82 L 81.03 367.99 L 81.37 359.95 L 81.27 351.70 L 80.86 343.23 L 80.26 334.59 L 79.65 325.80 L 79.18 316.94 L 79.03 308.06 L 79.35 299.26 L 80.30 290.63 L 82.00 282.25 L 84.55 274.22 L 88.04 266.64 L 92.51 259.58 L 97.98 253.12 L 104.47 247.33 L 111.94 242.26 L 120.35 237.96 L 129.66 234.45 L 139.78 231.77 L 150.64 229.91 L 162.18 228.90 L 174.30 228.72 L 186.93 229.38 L 199.99 230.87 L 213.40 233.17 L 227.08 236.26 L 240.96 240.11 L 254.95 244.70 L 268.99 249.99 L 282.97 255.90 L 296.82 262.39 L 310.44 269.36 L 323.72 276.71 L 336.59 284.33 L 348.93 292.09 L 360.65 299.84 L 371.67 307.43 L 381.91 314.69 L 391.30 321.48 L 399.81 327.64 L 407.41 333.03 L 414.11 337.54 L 419.91 341.07 L 424.88 343.57 L 429.08 345.01 L 432.59 345.41 L 435.52 344.82 L 437.98 343.34 L 440.10 341.10 L 441.99 338.25 L 443.77 334.97 L 445.54 331.47 L 447.40 327.93 L 449.42 324.55 L 451.64 321.51 L 454.10 318.96 L 456.81 317.01 L 459.75 315.75 L 462.89 315.20 L 466.21 315.35 L 469.63 316.15 L 473.12 317.50 L 476.62 319.27 L 480.08 321.29 L 483.46 323.41 L 486.73 325.43 L 489.89 327.19 L 492.93 328.55 L 495.86 329.36 L 498.71 329.56 L 501.51 329.09 L 504.31 327.96 L 507.12 326.23 L 510.00 323.98 L 512.96 321.37 L 516.02 318.54 L 519.19 315.71 L 522.44 313.05 L 525.77 310.76 L 529.13 309.02 L 532.47 307.97 L 535.76 307.72 L 538.93 308.33 L 541.95 309.82 L 544.77 312.12 L 547.38 315.15 L 549.77 318.76 L 551.95 322.76 L 553.96 326.94 L 555.85 331.09 L 557.70 334.97 L 559.59 338.37 L 561.61 341.11 L 563.85 343.06 L 566.38 344.12 L 569.28 344.27 L 572.59 343.55 L 576.32 342.04 L 580.46 339.91 L 584.94 337.35 L 589.68 334.62 L 594.56 331.97 L 599.42 329.68 L 604.11 328.00 L 608.43 327.18 L 612.23 327.40 L 615.34 328.80 L 617.63 331.43 L 619.04 335.28 L 619.51 340.27 L 619.10 346.22 L 617.89 352.90 L 616.06 360.03 L 613.83 367.26 L 611.51 374.23 L 609.42 380.58 L 607.96 385.95 L 607.50 390.04 L 608.44 392.56 L 611.13 393.34 L 615.89 392.26 L 622.95 389.30 L 632.49 384.52 L 644.54 378.10 L 659.07 370.29 L 675.89 361.39 L 694.72 351.80 L 715.18 341.93 L 736.78 332.21 L 758.97 323.07 L 781.13 314.93 L 802.64 308.14 L 822.87 303.01 L 841.24 299.76 L 857.24 298.52 L 870.43 299.36 L 880.50 302.22 L 887.28 306.99 L 890.74 313.46 L 891.00 321.37 L 888.31 330.42 L 883.09 340.26 L 875.85 350.56 L 867.20 360.99 L 857.81 371.24 L 848.39 381.05 L 839.65 390.22 L 832.25 398.60 L 826.79 406.12 L 823.75 412.77 L 823.52 418.62 L 826.31 423.77 L 832.19 428.37 L 841.08 432.62 L 852.73 436.72 L 866.77 440.86 L 882.68 445.24 L 899.87 450.02 L 917.67 455.33 L 935.39 461.25 L 952.32 467.82 L 967.82 475.01 L 981.29 482.77 Z" fill="#000" />
</svg>