<svg width="1024" height="1024" viewBox="0 0 1024 1024" xmlns="http://www.w3.org/2000/svg">
  <path d="M 142.00 221.00 L 128.00 227.00 L 115.00 240.00 L 111.00 246.00 L 113.00 254.00 L 109.00 256.00 L 103.00 274.00 L 95.00 276.00 L 93.00 282.00 L 97.00 284.00 L 97.00 288.00 L 95.00 294.00 L 90.00 295.00 L 87.00 300.00 L 91.00 302.00 L 91.00 306.00 L 81.00 342.00 L 75.00 344.00 L 71.00 356.00 L 67.00 378.00 L 71.00 380.00 L 71.00 386.00 L 63.00 418.00 L 61.00 440.00 L 59.00 450.00 L 53.00 452.00 L 51.00 462.00 L 53.00 490.00 L 49.00 520.00 L 41.00 536.00 L 41.00 550.00 L 45.00 552.00 L 45.00 556.00 L 43.00 568.00 L 37.00 570.00 L 37.00 584.00 L 41.00 586.00 L 41.00 592.00 L 33.00 652.00 L 29.00 722.00 L 25.00 740.00 L 28.00 759.00 L 34.00 761.00 L 72.00 749.00 L 186.00 703.00 L 192.00 703.00 L 206.00 695.00 L 214.00 695.00 L 222.00 689.00 L 294.00 661.00 L 362.00 637.00 L 384.00 633.00 L 394.00 627.00 L 398.00 627.00 L 399.00 632.00 L 386.00 635.00 L 384.00 641.00 L 414.00 641.00 L 416.00 647.00 L 418.00 643.00 L 432.00 641.00 L 464.00 643.00 L 470.00 649.00 L 472.00 643.00 L 484.00 643.00 L 490.00 647.00 L 492.00 643.00 L 496.00 643.00 L 502.00 645.00 L 504.00 649.00 L 508.00 647.00 L 514.00 651.00 L 540.00 651.00 L 542.00 655.00 L 568.00 659.00 L 572.00 665.00 L 580.00 665.00 L 582.00 669.00 L 586.00 665.00 L 600.00 671.00 L 610.00 671.00 L 614.00 675.00 L 628.00 675.00 L 636.00 683.00 L 648.00 681.00 L 652.00 685.00 L 660.00 685.00 L 662.00 689.00 L 676.00 689.00 L 678.00 693.00 L 704.00 693.00 L 706.00 699.00 L 712.00 697.00 L 714.00 701.00 L 720.00 699.00 L 730.00 705.00 L 744.00 705.00 L 746.00 709.00 L 762.00 709.00 L 774.00 717.00 L 782.00 715.00 L 786.00 721.00 L 804.00 723.00 L 810.00 729.00 L 816.00 729.00 L 818.00 733.00 L 822.00 731.00 L 824.00 735.00 L 832.00 735.00 L 844.00 741.00 L 850.00 739.00 L 852.00 743.00 L 868.00 741.00 L 870.00 747.00 L 873.00 744.00 L 867.00 736.00 L 868.00 731.00 L 898.00 743.00 L 916.00 745.00 L 924.00 741.00 L 939.00 722.00 L 953.00 686.00 L 961.00 654.00 L 979.00 528.00 L 995.00 288.00 L 995.00 250.00 L 990.00 241.00 L 980.00 239.00 L 954.00 249.00 L 840.00 301.00 L 736.00 343.00 L 636.00 373.00 L 646.00 375.00 L 687.00 368.00 L 680.00 375.00 L 656.00 383.00 L 654.00 387.00 L 632.00 395.00 L 631.00 400.00 L 625.00 402.00 L 636.00 403.00 L 662.00 395.00 L 678.00 395.00 L 680.00 399.00 L 694.00 399.00 L 698.00 405.00 L 704.00 405.00 L 706.00 409.00 L 716.00 409.00 L 718.00 413.00 L 732.00 415.00 L 734.00 411.00 L 738.00 411.00 L 750.00 423.00 L 752.00 419.00 L 756.00 419.00 L 758.00 423.00 L 774.00 423.00 L 780.00 425.00 L 782.00 429.00 L 806.00 433.00 L 808.00 437.00 L 818.00 433.00 L 822.00 439.00 L 840.00 441.00 L 844.00 447.00 L 870.00 447.00 L 872.00 451.00 L 874.00 445.00 L 888.00 449.00 L 900.00 443.00 L 906.00 443.00 L 908.00 449.00 L 924.00 449.00 L 934.00 445.00 L 936.00 441.00 L 940.00 441.00 L 942.00 445.00 L 944.00 441.00 L 950.00 443.00 L 962.00 437.00 L 965.00 446.00 L 969.00 448.00 L 970.00 483.00 L 981.00 350.00 L 981.00 246.00 L 986.00 245.00 L 989.00 248.00 L 989.00 320.00 L 981.00 460.00 L 963.00 618.00 L 953.00 668.00 L 937.00 714.00 L 922.00 733.00 L 906.00 735.00 L 905.00 732.00 L 909.00 730.00 L 906.00 727.00 L 900.00 727.00 L 898.00 723.00 L 881.00 714.00 L 882.00 709.00 L 890.00 711.00 L 897.00 706.00 L 894.00 699.00 L 880.00 691.00 L 862.00 675.00 L 858.00 675.00 L 856.00 671.00 L 828.00 655.00 L 818.00 645.00 L 808.00 641.00 L 802.00 633.00 L 794.00 631.00 L 772.00 611.00 L 768.00 611.00 L 766.00 607.00 L 762.00 607.00 L 760.00 603.00 L 700.00 563.00 L 632.00 521.00 L 630.00 525.00 L 622.00 521.00 L 430.00 373.00 L 330.00 301.00 L 270.00 263.00 L 220.00 237.00 L 172.00 221.00 L 142.00 221.00 Z" fill="#000" />
</svg>