<svg width="1024" height="1024" viewBox="0 0 1024 1024" xmlns="http://www.w3.org/2000/svg">
  <path d="M 53.00 754.00 C 240.34 679.98 436.03 570.76 636.00 595.00 C 671.64 599.32 706.51 614.53 736.00 635.00 C 779.16 664.96 820.37 697.73 864.00 727.00 C 873.16 733.15 883.72 736.98 894.00 741.00 C 899.12 743.00 904.52 744.58 910.00 745.00 C 913.39 745.26 916.92 744.44 920.00 743.00 C 922.14 742.00 923.33 739.67 925.00 738.00 M 925.00 738.00 C 939.34 723.66 948.08 703.67 953.00 684.00 C 961.88 648.48 968.68 612.36 973.00 576.00 C 981.36 505.57 986.01 434.75 991.00 364.00 C 993.35 330.72 993.87 297.34 995.00 264.00 C 995.24 256.93 997.97 246.80 992.00 243.00 C 950.17 216.38 897.67 274.46 853.00 296.00 C 851.47 296.74 856.43 297.66 858.00 297.00 C 893.72 281.88 928.11 263.71 964.00 249.00 C 969.87 246.59 982.95 243.66 983.00 250.00 C 983.33 290.00 983.38 330.07 981.00 370.00 C 977.38 430.79 972.01 491.50 965.00 552.00 C 961.34 583.57 956.03 615.00 949.00 646.00 C 944.67 665.12 935.76 682.98 931.00 702.00 C 930.33 704.67 934.12 707.49 933.00 710.00 C 929.48 717.85 924.55 725.42 918.00 731.00 C 885.48 758.70 847.12 683.31 812.00 659.00 C 784.33 639.85 755.46 622.45 728.00 603.00 C 707.44 588.43 688.00 572.33 668.00 557.00 M 668.00 557.00 C 557.11 471.54 446.05 386.19 332.00 305.00 M 332.00 305.00 C 269.78 264.11 176.77 195.29 118.00 241.00 C 87.17 264.98 82.54 311.68 75.00 350.00 C 55.00 451.67 41.98 554.77 33.00 658.00 C 30.16 690.60 27.97 723.29 27.00 756.00 C 26.87 760.45 35.65 759.94 40.00 759.00 C 44.54 758.01 48.67 755.67 53.00 754.00" fill="none" stroke="#111111" stroke-width="3" stroke-linecap="round" stroke-linejoin="round" />
</svg>
