<svg width="1024" height="1024" viewBox="0 0 1024 1024" xmlns="http://www.w3.org/2000/svg">
  <path d="M 144.00 221.00 L 129.00 228.00 L 129.00 236.00 L 126.00 239.00 L 122.00 239.00 L 115.00 244.00 L 115.00 246.00 L 111.00 250.00 L 109.00 256.00 L 105.00 260.00 L 101.00 268.00 L 101.00 272.00 L 95.00 282.00 L 95.00 286.00 L 93.00 288.00 L 93.00 292.00 L 91.00 294.00 L 91.00 298.00 L 89.00 300.00 L 89.00 304.00 L 85.00 312.00 L 85.00 318.00 L 81.00 326.00 L 81.00 332.00 L 79.00 334.00 L 79.00 340.00 L 77.00 342.00 L 77.00 348.00 L 75.00 350.00 L 75.00 358.00 L 73.00 360.00 L 73.00 366.00 L 71.00 368.00 L 71.00 378.00 L 69.00 380.00 L 69.00 386.00 L 67.00 388.00 L 67.00 402.00 L 65.00 404.00 L 65.00 420.00 L 63.00 422.00 L 63.00 430.00 L 61.00 432.00 L 61.00 442.00 L 59.00 444.00 L 59.00 454.00 L 57.00 456.00 L 57.00 466.00 L 55.00 468.00 L 55.00 480.00 L 53.00 482.00 L 53.00 494.00 L 51.00 496.00 L 51.00 508.00 L 49.00 510.00 L 47.00 542.00 L 45.00 544.00 L 45.00 560.00 L 43.00 562.00 L 43.00 578.00 L 41.00 580.00 L 41.00 596.00 L 39.00 598.00 L 39.00 616.00 L 37.00 618.00 L 37.00 636.00 L 35.00 638.00 L 35.00 656.00 L 33.00 658.00 L 33.00 680.00 L 31.00 682.00 L 31.00 704.00 L 29.00 706.00 L 29.00 734.00 L 27.00 736.00 L 27.00 756.00 L 30.00 759.00 L 40.00 759.00 L 42.00 757.00 L 52.00 755.00 L 58.00 751.00 L 74.00 747.00 L 80.00 743.00 L 90.00 741.00 L 96.00 737.00 L 100.00 737.00 L 116.00 729.00 L 126.00 727.00 L 136.00 721.00 L 146.00 719.00 L 152.00 715.00 L 156.00 715.00 L 162.00 711.00 L 166.00 711.00 L 172.00 707.00 L 176.00 707.00 L 182.00 703.00 L 186.00 703.00 L 192.00 699.00 L 196.00 699.00 L 212.00 691.00 L 222.00 689.00 L 228.00 685.00 L 232.00 685.00 L 238.00 681.00 L 242.00 681.00 L 248.00 677.00 L 252.00 677.00 L 258.00 673.00 L 274.00 669.00 L 280.00 665.00 L 284.00 665.00 L 290.00 661.00 L 294.00 661.00 L 306.00 655.00 L 316.00 653.00 L 322.00 649.00 L 326.00 649.00 L 328.00 647.00 L 332.00 647.00 L 334.00 645.00 L 338.00 645.00 L 340.00 643.00 L 344.00 643.00 L 346.00 641.00 L 350.00 641.00 L 352.00 639.00 L 356.00 639.00 L 358.00 637.00 L 362.00 637.00 L 364.00 635.00 L 368.00 635.00 L 370.00 633.00 L 374.00 633.00 L 376.00 631.00 L 380.00 631.00 L 388.00 627.00 L 394.00 627.00 L 396.00 625.00 L 408.00 623.00 L 416.00 619.00 L 422.00 619.00 L 430.00 615.00 L 438.00 615.00 L 440.00 613.00 L 446.00 613.00 L 448.00 611.00 L 454.00 611.00 L 456.00 609.00 L 462.00 609.00 L 464.00 607.00 L 472.00 607.00 L 474.00 605.00 L 482.00 605.00 L 484.00 603.00 L 494.00 603.00 L 496.00 601.00 L 506.00 601.00 L 508.00 599.00 L 522.00 599.00 L 524.00 597.00 L 538.00 597.00 L 540.00 595.00 L 560.00 595.00 L 562.00 593.00 L 618.00 593.00 L 620.00 595.00 L 636.00 595.00 L 638.00 597.00 L 648.00 597.00 L 650.00 599.00 L 668.00 601.00 L 676.00 605.00 L 682.00 605.00 L 684.00 607.00 L 694.00 609.00 L 702.00 613.00 L 706.00 617.00 L 712.00 619.00 L 734.00 635.00 L 736.00 635.00 L 742.00 641.00 L 756.00 649.00 L 762.00 655.00 L 764.00 655.00 L 776.00 665.00 L 784.00 669.00 L 790.00 675.00 L 792.00 675.00 L 798.00 681.00 L 806.00 685.00 L 812.00 691.00 L 826.00 699.00 L 840.00 711.00 L 842.00 711.00 L 864.00 727.00 L 880.00 735.00 L 884.00 735.00 L 900.00 743.00 L 908.00 743.00 L 912.00 745.00 L 914.00 743.00 L 920.00 743.00 L 935.00 728.00 L 945.00 708.00 L 945.00 704.00 L 947.00 702.00 L 947.00 698.00 L 949.00 696.00 L 949.00 692.00 L 953.00 684.00 L 953.00 678.00 L 955.00 676.00 L 957.00 662.00 L 959.00 660.00 L 959.00 652.00 L 961.00 650.00 L 961.00 642.00 L 963.00 640.00 L 963.00 632.00 L 965.00 630.00 L 967.00 606.00 L 969.00 604.00 L 969.00 592.00 L 971.00 590.00 L 971.00 578.00 L 973.00 576.00 L 973.00 562.00 L 975.00 560.00 L 977.00 524.00 L 979.00 522.00 L 979.00 504.00 L 981.00 502.00 L 981.00 482.00 L 983.00 480.00 L 983.00 458.00 L 985.00 456.00 L 987.00 400.00 L 989.00 398.00 L 989.00 366.00 L 991.00 364.00 L 991.00 326.00 L 993.00 324.00 L 993.00 266.00 L 995.00 264.00 L 995.00 246.00 L 992.00 243.00 L 984.00 239.00 L 976.00 241.00 L 974.00 243.00 L 970.00 243.00 L 964.00 247.00 L 960.00 247.00 L 950.00 253.00 L 946.00 253.00 L 932.00 261.00 L 928.00 261.00 L 910.00 271.00 L 906.00 271.00 L 892.00 279.00 L 888.00 279.00 L 870.00 289.00 L 866.00 289.00 L 853.00 296.00 L 858.00 297.00 L 868.00 291.00 L 872.00 291.00 L 882.00 285.00 L 886.00 285.00 L 896.00 279.00 L 900.00 279.00 L 914.00 271.00 L 918.00 271.00 L 932.00 263.00 L 936.00 263.00 L 946.00 257.00 L 950.00 257.00 L 964.00 249.00 L 968.00 249.00 L 970.00 247.00 L 980.00 247.00 L 983.00 250.00 L 983.00 332.00 L 981.00 334.00 L 981.00 370.00 L 979.00 372.00 L 979.00 400.00 L 977.00 402.00 L 977.00 428.00 L 975.00 430.00 L 975.00 456.00 L 973.00 458.00 L 973.00 476.00 L 971.00 478.00 L 969.00 518.00 L 967.00 520.00 L 967.00 536.00 L 965.00 538.00 L 965.00 552.00 L 963.00 554.00 L 963.00 566.00 L 961.00 568.00 L 961.00 578.00 L 959.00 580.00 L 959.00 592.00 L 957.00 594.00 L 957.00 604.00 L 955.00 606.00 L 955.00 614.00 L 953.00 616.00 L 953.00 626.00 L 951.00 628.00 L 951.00 636.00 L 949.00 638.00 L 949.00 646.00 L 947.00 648.00 L 947.00 654.00 L 945.00 656.00 L 943.00 670.00 L 941.00 672.00 L 941.00 676.00 L 939.00 678.00 L 939.00 682.00 L 937.00 684.00 L 937.00 688.00 L 935.00 690.00 L 935.00 694.00 L 931.00 702.00 L 933.00 704.00 L 931.00 716.00 L 918.00 731.00 L 914.00 733.00 L 906.00 733.00 L 904.00 731.00 L 894.00 729.00 L 882.00 723.00 L 878.00 719.00 L 872.00 717.00 L 869.00 714.00 L 868.00 707.00 L 866.00 707.00 L 862.00 703.00 L 854.00 699.00 L 848.00 693.00 L 846.00 693.00 L 840.00 687.00 L 832.00 683.00 L 827.00 678.00 L 826.00 673.00 L 820.00 673.00 L 819.00 666.00 L 816.00 665.00 L 812.00 659.00 L 810.00 659.00 L 806.00 655.00 L 798.00 651.00 L 792.00 645.00 L 790.00 645.00 L 784.00 639.00 L 778.00 637.00 L 766.00 627.00 L 764.00 627.00 L 754.00 619.00 L 748.00 617.00 L 742.00 611.00 L 728.00 603.00 L 722.00 597.00 L 720.00 597.00 L 714.00 591.00 L 712.00 591.00 L 706.00 585.00 L 704.00 585.00 L 698.00 579.00 L 696.00 579.00 L 690.00 573.00 L 688.00 573.00 L 682.00 567.00 L 680.00 567.00 L 674.00 561.00 L 672.00 561.00 L 664.00 553.00 L 662.00 553.00 L 656.00 547.00 L 654.00 547.00 L 646.00 539.00 L 644.00 539.00 L 638.00 533.00 L 636.00 533.00 L 630.00 527.00 L 628.00 527.00 L 620.00 519.00 L 618.00 519.00 L 612.00 513.00 L 610.00 513.00 L 604.00 507.00 L 602.00 507.00 L 576.00 485.00 L 574.00 485.00 L 568.00 479.00 L 566.00 479.00 L 560.00 473.00 L 558.00 473.00 L 550.00 465.00 L 548.00 465.00 L 542.00 459.00 L 540.00 459.00 L 534.00 453.00 L 532.00 453.00 L 526.00 447.00 L 524.00 447.00 L 518.00 441.00 L 516.00 441.00 L 508.00 433.00 L 506.00 433.00 L 500.00 427.00 L 498.00 427.00 L 492.00 421.00 L 490.00 421.00 L 484.00 415.00 L 482.00 415.00 L 476.00 409.00 L 474.00 409.00 L 466.00 401.00 L 464.00 401.00 L 458.00 395.00 L 456.00 395.00 L 450.00 389.00 L 448.00 389.00 L 442.00 383.00 L 440.00 383.00 L 402.00 353.00 L 394.00 349.00 L 380.00 337.00 L 372.00 333.00 L 366.00 327.00 L 364.00 327.00 L 352.00 317.00 L 350.00 317.00 L 346.00 313.00 L 344.00 313.00 L 340.00 309.00 L 326.00 301.00 L 320.00 295.00 L 308.00 289.00 L 286.00 273.00 L 266.00 263.00 L 262.00 259.00 L 214.00 235.00 L 204.00 233.00 L 198.00 229.00 L 194.00 229.00 L 186.00 225.00 L 172.00 223.00 L 170.00 221.00 L 144.00 221.00 Z" fill="#000" />
</svg>