<svg width="1024" height="1024" viewBox="0 0 1024 1024" xmlns="http://www.w3.org/2000/svg">
  <rect width="100%" height="100%" fill="#f5f5f5" />
  <path d="M 53.00 754.00 L 258.00 673.00 L 388.00 627.00 L 484.00 603.00 L 562.00 593.00 L 636.00 595.00 L 694.00 609.00 L 736.00 635.00 L 864.00 727.00 L 894.00 741.00 L 910.00 745.00 L 920.00 743.00 L 925.00 738.00" fill="none" stroke="#111111" stroke-width="4" stroke-linecap="round" stroke-linejoin="round"/><path d="M 925.00 738.00 L 935.00 728.00 L 953.00 684.00 L 973.00 576.00 L 991.00 364.00 L 995.00 264.00 L 995.00 246.00 L 992.00 243.00 L 984.00 239.00 L 970.00 243.00 L 853.00 296.00 L 858.00 297.00 L 964.00 249.00 L 980.00 247.00 L 983.00 250.00 L 981.00 370.00 L 965.00 552.00 L 949.00 646.00 L 931.00 702.00 L 933.00 710.00 L 918.00 731.00 L 906.00 733.00 L 872.00 717.00 L 868.00 707.00 L 832.00 683.00 L 826.00 673.00 L 820.00 673.00 L 819.00 666.00 L 812.00 659.00 L 728.00 603.00 L 668.00 557.00" fill="none" stroke="#111111" stroke-width="4" stroke-linecap="round" stroke-linejoin="round"/><path d="M 668.00 557.00 L 450.00 389.00 L 332.00 305.00" fill="none" stroke="#111111" stroke-width="4" stroke-linecap="round" stroke-linejoin="round"/><path d="M 332.00 305.00 L 262.00 259.00 L 214.00 235.00 L 170.00 221.00 L 138.00 223.00 L 130.00 227.00 L 129.00 236.00 L 118.00 241.00 L 111.00 250.00 L 95.00 282.00 L 75.00 350.00 L 47.00 526.00 L 33.00 658.00 L 27.00 756.00 L 30.00 759.00 L 40.00 759.00 L 53.00 754.00" fill="none" stroke="#111111" stroke-width="4" stroke-linecap="round" stroke-linejoin="round"/>
</svg>