<svg width="1024" height="1024" viewBox="0 0 1024 1024" xmlns="http://www.w3.org/2000/svg">
  <path d="M 598.50 474.00 L 601.00 473.50 L 602.00 474.50 L 607.00 475.50 L 610.00 477.50 L 612.00 477.50 L 615.00 479.50 L 620.00 480.50 L 623.00 482.50 L 625.00 482.50 L 630.00 485.50 L 632.00 485.50 L 637.00 488.50 L 639.00 488.50 L 651.00 494.50 L 658.00 499.50 L 668.00 504.50 L 679.00 512.50 L 682.00 513.50 L 685.00 516.50 L 692.00 520.50 L 695.00 523.50 L 696.00 523.50 L 707.00 531.50 L 715.00 535.50 L 717.00 537.50 L 729.00 543.50 L 734.00 544.50 L 737.00 546.50 L 739.00 546.50 L 747.00 550.50 L 749.00 550.50 L 750.00 551.50 L 752.00 551.50 L 756.00 553.50 L 759.00 553.50 L 760.00 554.50 L 767.00 555.50 L 771.00 557.50 L 774.00 557.50 L 778.00 559.50 L 781.00 559.50 L 782.00 560.50 L 785.00 560.50 L 786.00 561.50 L 789.00 561.50 L 790.00 562.50 L 793.00 562.50 L 794.00 563.50 L 797.00 563.50 L 798.00 564.50 L 805.00 565.50 L 806.00 566.50 L 810.00 566.50 L 811.00 567.50 L 814.00 567.50 L 815.00 568.50 L 818.00 568.50 L 819.00 569.50 L 824.00 569.50 L 825.00 570.50 L 828.00 570.50 L 829.00 571.50 L 833.00 571.50 L 834.00 572.50 L 842.00 573.50 L 843.00 574.50 L 848.00 574.50 L 849.00 575.50 L 852.00 575.50 L 853.00 576.50 L 857.00 576.50 L 858.00 577.50 L 862.00 577.50 L 863.00 578.50 L 867.00 578.50 L 868.00 579.50 L 872.00 579.50 L 873.00 580.50 L 878.00 580.50 L 879.00 581.50 L 884.00 581.50 L 885.00 582.50 L 889.00 582.50 L 890.00 583.50 L 896.00 583.50 L 897.00 584.50 L 903.00 584.50 L 904.00 585.50 L 908.00 585.50 L 909.50 587.00 L 909.50 588.00 L 906.00 588.50 L 905.00 587.50 L 901.00 587.50 L 900.00 586.50 L 895.00 586.50 L 894.00 585.50 L 890.00 585.50 L 889.00 584.50 L 885.00 584.50 L 884.00 583.50 L 879.00 583.50 L 878.00 582.50 L 867.00 581.50 L 866.00 580.50 L 862.00 580.50 L 861.00 579.50 L 856.00 579.50 L 855.00 578.50 L 851.00 578.50 L 850.00 577.50 L 840.00 576.50 L 839.00 575.50 L 830.00 574.50 L 829.00 573.50 L 826.00 573.50 L 825.00 572.50 L 821.00 572.50 L 820.00 571.50 L 817.00 571.50 L 816.00 570.50 L 813.00 570.50 L 812.00 569.50 L 808.00 569.50 L 807.00 568.50 L 804.00 568.50 L 803.00 567.50 L 800.00 567.50 L 799.00 566.50 L 792.00 565.50 L 788.00 563.50 L 785.00 563.50 L 784.00 562.50 L 781.00 562.50 L 780.00 561.50 L 777.00 561.50 L 776.00 560.50 L 773.00 560.50 L 772.00 559.50 L 769.00 559.50 L 768.00 558.50 L 761.00 557.50 L 760.00 556.50 L 754.00 555.50 L 753.00 554.50 L 748.00 553.50 L 745.00 551.50 L 737.00 549.50 L 734.00 547.50 L 732.00 547.50 L 729.00 545.50 L 727.00 545.50 L 711.00 537.50 L 709.00 535.50 L 706.00 534.50 L 704.00 532.50 L 703.00 532.50 L 701.00 530.50 L 694.00 526.50 L 691.00 523.50 L 684.00 519.50 L 681.00 516.50 L 680.00 516.50 L 669.00 508.50 L 666.00 507.50 L 661.00 503.50 L 653.00 499.50 L 651.00 497.50 L 631.00 487.50 L 629.00 487.50 L 620.00 482.50 L 615.00 481.50 L 610.00 478.50 L 608.00 478.50 L 603.00 475.50 L 601.00 475.50 L 598.50 474.00 Z" fill="#000" />
</svg>