<svg width="1024" height="1024" viewBox="0 0 1024 1024" xmlns="http://www.w3.org/2000/svg">
  <path d="M 150.00 221.50 L 149.00 222.50 L 144.00 222.50 L 143.00 223.50 L 140.00 223.50 L 130.00 228.50 L 128.50 230.00 L 129.00 230.50 L 133.00 228.50 L 138.00 227.50 L 139.00 226.50 L 148.00 226.50 L 148.50 231.00 L 142.00 231.50 L 141.00 232.50 L 136.00 233.50 L 130.00 237.50 L 125.00 237.50 L 123.00 238.50 L 114.50 247.00 L 111.50 253.00 L 109.50 255.00 L 100.50 273.00 L 100.50 275.00 L 97.50 280.00 L 97.50 282.00 L 93.50 290.00 L 93.50 293.00 L 92.50 294.00 L 90.50 302.00 L 88.50 305.00 L 88.50 308.00 L 87.50 309.00 L 86.50 315.00 L 84.50 319.00 L 84.50 322.00 L 82.50 326.00 L 82.50 329.00 L 81.50 330.00 L 81.50 333.00 L 80.50 334.00 L 80.50 337.00 L 79.50 338.00 L 79.50 341.00 L 78.50 342.00 L 78.50 345.00 L 77.50 346.00 L 77.50 349.00 L 76.50 350.00 L 76.50 354.00 L 75.50 355.00 L 75.50 358.00 L 74.50 359.00 L 74.50 363.00 L 73.50 364.00 L 73.50 367.00 L 72.50 368.00 L 72.50 373.00 L 71.50 374.00 L 71.50 377.00 L 70.50 378.00 L 70.50 381.00 L 69.50 382.00 L 69.50 387.00 L 68.50 388.00 L 67.50 398.00 L 66.50 399.00 L 66.50 403.00 L 65.50 404.00 L 65.50 409.00 L 64.50 410.00 L 64.50 414.00 L 63.50 415.00 L 63.50 421.00 L 62.50 422.00 L 61.50 430.00 L 60.50 431.00 L 60.50 436.00 L 59.50 437.00 L 59.50 444.00 L 58.50 445.00 L 58.50 448.00 L 57.50 449.00 L 57.50 456.00 L 56.50 457.00 L 56.50 460.00 L 55.50 461.00 L 55.50 467.00 L 54.50 468.00 L 54.50 475.00 L 53.50 476.00 L 53.50 478.00 L 54.50 479.00 L 54.50 487.00 L 53.50 488.00 L 53.50 495.00 L 52.50 496.00 L 52.50 502.00 L 51.50 503.00 L 50.50 518.00 L 49.50 519.00 L 49.50 525.00 L 48.50 526.00 L 48.50 534.00 L 47.50 535.00 L 47.50 543.00 L 46.50 544.00 L 45.50 561.00 L 44.50 562.00 L 44.50 569.00 L 43.50 570.00 L 43.50 580.00 L 42.50 581.00 L 41.50 597.00 L 40.50 598.00 L 40.50 607.00 L 39.50 608.00 L 39.50 616.00 L 38.50 617.00 L 38.50 627.00 L 37.50 628.00 L 37.50 637.00 L 36.50 638.00 L 36.50 647.00 L 35.50 648.00 L 35.50 658.00 L 34.50 659.00 L 34.50 669.00 L 33.50 670.00 L 33.50 680.00 L 32.50 681.00 L 32.50 691.00 L 31.50 692.00 L 31.50 705.00 L 30.50 706.00 L 30.50 718.00 L 29.50 719.00 L 29.50 734.00 L 28.50 735.00 L 28.50 748.00 L 27.50 749.00 L 27.50 757.00 L 31.00 760.50 L 37.00 760.50 L 38.00 759.50 L 45.00 758.50 L 46.00 757.50 L 51.00 756.50 L 54.00 754.50 L 56.00 754.50 L 57.00 753.50 L 65.00 751.50 L 68.00 749.50 L 70.00 749.50 L 76.00 746.50 L 81.00 745.50 L 84.00 743.50 L 86.00 743.50 L 94.00 739.50 L 99.00 738.50 L 102.00 736.50 L 104.00 736.50 L 112.00 732.50 L 117.00 731.50 L 120.00 729.50 L 122.00 729.50 L 125.00 727.50 L 127.00 727.50 L 130.00 725.50 L 132.00 725.50 L 140.00 721.50 L 145.00 720.50 L 148.00 718.50 L 150.00 718.50 L 158.00 714.50 L 163.00 713.50 L 168.00 710.50 L 170.00 710.50 L 173.00 708.50 L 175.00 708.50 L 178.00 706.50 L 180.00 706.50 L 188.00 702.50 L 193.00 701.50 L 196.00 699.50 L 198.00 699.50 L 201.00 697.50 L 203.00 697.50 L 206.00 695.50 L 208.00 695.50 L 211.00 693.50 L 213.00 693.50 L 221.00 689.50 L 223.00 689.50 L 229.00 686.50 L 234.00 685.50 L 237.00 683.50 L 239.00 683.50 L 242.00 681.50 L 244.00 681.50 L 247.00 679.50 L 249.00 679.50 L 257.00 675.50 L 262.00 674.50 L 265.00 672.50 L 270.00 671.50 L 278.00 667.50 L 286.00 665.50 L 294.00 661.50 L 299.00 660.50 L 302.00 658.50 L 304.00 658.50 L 307.00 656.50 L 315.00 654.50 L 318.00 652.50 L 326.00 650.50 L 329.00 648.50 L 331.00 648.50 L 332.00 647.50 L 334.00 647.50 L 335.00 646.50 L 337.00 646.50 L 338.00 645.50 L 340.00 645.50 L 341.00 644.50 L 343.00 644.50 L 344.00 643.50 L 346.00 643.50 L 347.00 642.50 L 349.00 642.50 L 350.00 641.50 L 352.00 641.50 L 353.00 640.50 L 355.00 640.50 L 356.00 639.50 L 358.00 639.50 L 359.00 638.50 L 361.00 638.50 L 365.00 636.50 L 367.00 636.50 L 370.00 634.50 L 373.00 634.50 L 374.00 633.50 L 376.00 633.50 L 377.00 632.50 L 379.00 632.50 L 383.00 630.50 L 386.00 630.50 L 387.00 629.50 L 389.00 629.50 L 390.00 628.50 L 392.00 628.50 L 396.00 626.50 L 403.00 625.50 L 404.00 624.50 L 410.00 623.50 L 414.00 621.50 L 417.00 621.50 L 421.00 619.50 L 424.00 619.50 L 425.00 618.50 L 428.00 618.50 L 432.00 616.50 L 435.00 616.50 L 436.00 615.50 L 439.00 615.50 L 440.00 614.50 L 443.00 614.50 L 444.00 613.50 L 447.00 613.50 L 448.00 612.50 L 452.00 612.50 L 453.00 611.50 L 456.00 611.50 L 457.00 610.50 L 460.00 610.50 L 461.00 609.50 L 465.00 609.50 L 466.00 608.50 L 470.00 608.50 L 471.00 607.50 L 475.00 607.50 L 476.00 606.50 L 480.00 606.50 L 481.00 605.50 L 485.00 605.50 L 486.00 604.50 L 491.00 604.50 L 492.00 603.50 L 497.00 603.50 L 498.00 602.50 L 509.00 601.50 L 510.00 600.50 L 516.00 600.50 L 517.00 599.50 L 524.00 599.50 L 525.00 598.50 L 532.00 598.50 L 533.00 597.50 L 541.00 597.50 L 542.00 596.50 L 552.00 596.50 L 553.00 595.50 L 566.00 595.50 L 567.00 594.50 L 617.00 594.50 L 618.00 595.50 L 636.00 596.50 L 637.00 597.50 L 643.00 597.50 L 644.00 598.50 L 649.00 598.50 L 650.00 599.50 L 655.00 599.50 L 656.00 600.50 L 659.00 600.50 L 660.00 601.50 L 664.00 601.50 L 665.00 602.50 L 668.00 602.50 L 669.00 603.50 L 676.00 604.50 L 680.00 606.50 L 683.00 606.50 L 684.00 607.50 L 686.00 607.50 L 690.00 609.50 L 693.00 609.50 L 705.00 615.50 L 707.00 617.50 L 713.00 620.50 L 721.00 626.50 L 724.00 627.50 L 727.00 630.50 L 728.00 630.50 L 730.00 632.50 L 734.00 634.50 L 737.00 637.50 L 738.00 637.50 L 740.00 639.50 L 747.00 643.50 L 750.00 646.50 L 757.00 650.50 L 761.00 654.50 L 768.00 658.50 L 775.00 664.50 L 779.00 666.50 L 782.00 669.50 L 789.00 673.50 L 796.00 679.50 L 797.00 679.50 L 803.00 684.50 L 807.00 686.50 L 810.00 689.50 L 814.00 691.50 L 821.00 697.50 L 824.00 698.50 L 831.00 704.50 L 835.00 706.50 L 838.00 709.50 L 845.00 713.50 L 848.00 716.50 L 851.00 717.50 L 854.00 720.50 L 855.00 720.50 L 863.00 726.50 L 866.00 727.50 L 868.00 729.50 L 878.00 734.50 L 880.00 734.50 L 894.00 741.50 L 896.00 741.50 L 900.00 743.50 L 903.00 743.50 L 904.00 744.50 L 909.00 744.50 L 910.00 745.50 L 915.00 745.50 L 916.00 744.50 L 919.00 744.50 L 923.00 742.50 L 933.50 732.00 L 933.50 731.00 L 937.50 726.00 L 942.50 716.00 L 942.50 714.00 L 945.50 709.00 L 945.50 707.00 L 947.50 704.00 L 947.50 702.00 L 948.50 701.00 L 948.50 699.00 L 949.50 698.00 L 949.50 696.00 L 951.50 692.00 L 951.50 689.00 L 953.50 685.00 L 953.50 682.00 L 955.50 678.00 L 955.50 675.00 L 956.50 674.00 L 956.50 671.00 L 957.50 670.00 L 957.50 667.00 L 958.50 666.00 L 958.50 662.00 L 959.50 661.00 L 959.50 658.00 L 960.50 657.00 L 960.50 653.00 L 961.50 652.00 L 961.50 648.00 L 962.50 647.00 L 962.50 643.00 L 963.50 642.00 L 963.50 637.00 L 964.50 636.00 L 964.50 632.00 L 965.50 631.00 L 965.50 626.00 L 966.50 625.00 L 966.50 620.00 L 967.50 619.00 L 967.50 613.00 L 968.50 612.00 L 969.50 601.00 L 970.50 600.00 L 970.50 593.00 L 971.50 592.00 L 972.50 578.00 L 973.50 577.00 L 973.50 570.00 L 974.50 569.00 L 974.50 562.00 L 975.50 561.00 L 975.50 553.00 L 976.50 552.00 L 976.50 545.00 L 977.50 544.00 L 977.50 535.00 L 978.50 534.00 L 978.50 526.00 L 979.50 525.00 L 979.50 515.00 L 980.50 514.00 L 980.50 505.00 L 981.50 504.00 L 981.50 495.00 L 982.50 494.00 L 982.50 483.00 L 983.50 482.00 L 983.50 471.00 L 984.50 470.00 L 984.50 459.00 L 985.50 458.00 L 985.50 445.00 L 986.50 444.00 L 986.50 431.00 L 987.50 430.00 L 987.50 416.00 L 988.50 415.00 L 988.50 401.00 L 989.50 400.00 L 990.50 368.00 L 991.50 367.00 L 991.50 351.00 L 992.50 350.00 L 992.50 328.00 L 993.50 327.00 L 993.50 307.00 L 994.50 306.00 L 994.50 274.00 L 997.50 273.00 L 997.50 268.00 L 998.50 267.00 L 998.50 250.00 L 997.50 249.00 L 996.50 245.00 L 994.00 241.50 L 990.00 240.50 L 989.00 238.50 L 987.00 238.50 L 986.00 237.50 L 980.00 238.50 L 979.50 241.00 L 978.00 242.50 L 976.00 242.50 L 973.00 244.50 L 968.00 245.50 L 958.00 250.50 L 956.00 250.50 L 951.00 253.50 L 949.00 253.50 L 942.00 257.50 L 940.00 257.50 L 933.00 261.50 L 931.00 261.50 L 924.00 265.50 L 922.00 265.50 L 913.00 270.50 L 911.00 270.50 L 904.00 274.50 L 902.00 274.50 L 895.00 278.50 L 893.00 278.50 L 884.00 283.50 L 882.00 283.50 L 873.00 288.50 L 871.00 288.50 L 868.00 290.50 L 866.00 290.50 L 857.00 295.50 L 855.00 295.50 L 839.00 303.50 L 837.00 303.50 L 832.00 306.50 L 830.00 306.50 L 825.00 309.50 L 823.00 309.50 L 818.00 312.50 L 816.00 312.50 L 811.00 315.50 L 809.00 315.50 L 804.00 318.50 L 802.00 318.50 L 797.00 321.50 L 795.00 321.50 L 790.00 324.50 L 788.00 324.50 L 783.50 327.00 L 786.00 327.50 L 789.00 325.50 L 795.00 324.50 L 797.00 322.50 L 802.00 321.50 L 805.00 319.50 L 810.00 318.50 L 820.00 313.50 L 822.00 313.50 L 825.00 311.50 L 827.00 311.50 L 839.00 305.50 L 841.00 305.50 L 844.00 303.50 L 846.00 303.50 L 848.00 301.50 L 853.00 300.50 L 858.00 297.50 L 860.00 297.50 L 865.00 294.50 L 867.00 294.50 L 872.00 291.50 L 874.00 291.50 L 879.00 288.50 L 881.00 288.50 L 893.00 282.50 L 895.00 282.50 L 900.00 279.50 L 902.00 279.50 L 907.00 276.50 L 909.00 276.50 L 916.00 272.50 L 918.00 272.50 L 925.00 268.50 L 927.00 268.50 L 934.00 264.50 L 936.00 264.50 L 941.00 261.50 L 943.00 261.50 L 950.00 257.50 L 952.00 257.50 L 957.00 254.50 L 959.00 254.50 L 971.00 248.50 L 981.00 248.50 L 983.50 251.00 L 983.50 253.00 L 984.50 254.00 L 984.50 295.00 L 981.50 296.00 L 981.50 301.00 L 984.50 302.00 L 984.50 307.00 L 983.50 308.00 L 983.50 331.00 L 982.50 332.00 L 982.50 353.00 L 981.50 354.00 L 981.50 368.00 L 980.50 369.00 L 980.50 386.00 L 979.50 387.00 L 979.50 401.00 L 978.50 402.00 L 978.50 415.00 L 977.50 416.00 L 977.50 427.00 L 976.50 428.00 L 976.50 442.00 L 975.50 443.00 L 975.50 455.00 L 974.50 456.00 L 974.50 465.00 L 973.50 466.00 L 973.50 477.00 L 972.50 478.00 L 972.50 488.00 L 971.50 489.00 L 970.50 510.00 L 969.50 511.00 L 969.50 519.00 L 968.50 520.00 L 967.50 537.00 L 966.50 538.00 L 966.50 544.00 L 965.50 545.00 L 965.50 552.00 L 964.50 553.00 L 963.50 567.00 L 962.50 568.00 L 962.50 573.00 L 961.50 574.00 L 961.50 579.00 L 960.50 580.00 L 960.50 586.00 L 959.50 587.00 L 959.50 592.00 L 958.50 593.00 L 958.50 598.00 L 957.50 599.00 L 957.50 603.00 L 956.50 604.00 L 956.50 610.00 L 955.50 611.00 L 955.50 615.00 L 954.50 616.00 L 954.50 621.00 L 953.50 622.00 L 953.50 627.00 L 952.50 628.00 L 952.50 632.00 L 951.50 633.00 L 951.50 637.00 L 950.50 638.00 L 949.50 647.00 L 948.50 648.00 L 948.50 651.00 L 947.50 652.00 L 947.50 655.00 L 946.50 656.00 L 946.50 659.00 L 945.50 660.00 L 944.50 667.00 L 942.50 671.00 L 942.50 674.00 L 940.50 678.00 L 940.50 681.00 L 937.50 687.00 L 935.50 695.00 L 933.50 698.00 L 933.50 700.00 L 931.50 704.00 L 932.50 705.00 L 932.50 713.00 L 931.50 714.00 L 931.50 716.00 L 929.50 718.00 L 928.50 721.00 L 920.00 731.50 L 916.00 733.50 L 907.00 733.50 L 906.00 732.50 L 900.00 731.50 L 895.00 728.50 L 893.00 728.50 L 883.00 723.50 L 881.00 721.50 L 878.00 720.50 L 876.00 718.50 L 870.00 715.50 L 869.50 711.00 L 870.50 710.00 L 868.00 707.50 L 861.00 703.50 L 858.00 700.50 L 854.00 698.50 L 847.00 692.50 L 843.00 690.50 L 841.00 687.50 L 839.00 687.50 L 838.50 683.00 L 843.00 682.50 L 844.00 684.50 L 846.00 684.50 L 848.00 686.50 L 852.00 687.50 L 856.00 690.50 L 857.00 690.50 L 857.50 690.00 L 856.00 687.50 L 853.00 686.50 L 851.00 684.50 L 850.00 684.50 L 848.00 681.50 L 846.00 681.50 L 840.00 676.50 L 834.00 673.50 L 832.00 670.50 L 829.00 670.50 L 828.00 667.50 L 824.00 666.50 L 822.00 663.50 L 814.00 659.50 L 811.00 656.50 L 809.00 656.50 L 802.00 650.50 L 800.00 650.50 L 796.00 646.50 L 793.00 645.50 L 790.00 642.50 L 789.00 642.50 L 781.00 636.50 L 778.00 635.50 L 770.00 629.50 L 767.00 628.50 L 754.00 618.50 L 752.00 618.50 L 747.00 614.50 L 744.00 613.50 L 741.00 610.50 L 738.00 609.50 L 735.00 606.50 L 732.00 605.50 L 721.00 596.50 L 720.00 596.50 L 710.00 588.50 L 709.00 588.50 L 705.00 584.50 L 701.00 582.50 L 698.00 579.50 L 697.00 579.50 L 694.00 576.50 L 693.00 576.50 L 690.00 573.50 L 689.00 573.50 L 685.00 569.50 L 681.00 567.50 L 677.00 563.50 L 676.00 563.50 L 673.00 560.50 L 672.00 560.50 L 669.00 557.50 L 668.00 557.50 L 664.00 553.50 L 663.00 553.50 L 659.00 549.50 L 658.00 549.50 L 655.00 546.50 L 654.00 546.50 L 651.00 543.50 L 650.00 543.50 L 647.00 540.50 L 646.00 540.50 L 642.00 536.50 L 641.00 536.50 L 638.00 533.50 L 637.00 533.50 L 624.00 522.50 L 623.00 522.50 L 620.00 519.50 L 619.00 519.50 L 616.00 516.50 L 615.00 516.50 L 604.00 507.50 L 603.00 507.50 L 598.00 502.50 L 597.00 502.50 L 594.00 499.50 L 593.00 499.50 L 590.00 496.50 L 589.00 496.50 L 585.00 492.50 L 584.00 492.50 L 581.00 489.50 L 580.00 489.50 L 567.00 478.50 L 566.00 478.50 L 560.00 473.50 L 559.00 473.50 L 555.00 469.50 L 554.00 469.50 L 551.00 466.50 L 550.00 466.50 L 547.00 463.50 L 546.00 463.50 L 543.00 460.50 L 542.00 460.50 L 539.00 457.50 L 538.00 457.50 L 534.00 453.50 L 533.00 453.50 L 530.00 450.50 L 529.00 450.50 L 526.00 447.50 L 525.00 447.50 L 521.00 443.50 L 520.00 443.50 L 517.00 440.50 L 516.00 440.50 L 501.00 428.50 L 500.00 428.50 L 496.00 424.50 L 495.00 424.50 L 492.00 421.50 L 491.00 421.50 L 488.00 418.50 L 487.00 418.50 L 484.00 415.50 L 483.00 415.50 L 480.00 412.50 L 479.00 412.50 L 475.00 408.50 L 471.00 406.50 L 467.00 402.50 L 466.00 402.50 L 463.00 399.50 L 462.00 399.50 L 459.00 396.50 L 458.00 396.50 L 455.00 393.50 L 454.00 393.50 L 450.00 389.50 L 449.00 389.50 L 446.00 386.50 L 445.00 386.50 L 442.00 383.50 L 441.00 383.50 L 438.00 380.50 L 437.00 380.50 L 434.00 377.50 L 433.00 377.50 L 429.00 373.50 L 425.00 371.50 L 422.00 368.50 L 421.00 368.50 L 402.00 353.50 L 398.00 351.50 L 391.00 345.50 L 384.00 341.50 L 373.00 332.50 L 372.00 332.50 L 366.00 327.50 L 359.00 323.50 L 356.00 320.50 L 349.00 316.50 L 346.00 313.50 L 345.00 313.50 L 343.00 311.50 L 336.00 307.50 L 333.00 304.50 L 332.00 304.50 L 330.00 302.50 L 329.00 302.50 L 306.00 286.50 L 303.00 285.50 L 292.00 277.50 L 282.00 272.50 L 280.00 270.50 L 277.00 269.50 L 270.00 264.50 L 256.00 257.50 L 254.00 255.50 L 222.00 239.50 L 220.00 239.50 L 210.00 234.50 L 207.00 234.50 L 199.00 230.50 L 197.00 230.50 L 196.00 229.50 L 194.00 229.50 L 193.00 228.50 L 191.00 228.50 L 190.00 227.50 L 188.00 227.50 L 184.00 225.50 L 181.00 225.50 L 180.00 224.50 L 177.00 224.50 L 176.00 223.50 L 172.00 223.50 L 171.00 222.50 L 164.00 222.50 L 163.00 221.50 L 150.00 221.50 Z" fill="#000" />
</svg>