<svg width="1024" height="1024" viewBox="0 0 1024 1024" xmlns="http://www.w3.org/2000/svg">
  <path d="M 592.00 470.50 L 591.50 471.00 L 592.00 471.50 L 593.00 471.50 L 593.50 472.00 L 594.00 472.50 L 595.00 472.50 L 595.50 473.00 L 596.00 473.50 L 596.50 474.00 L 597.00 474.50 L 598.00 474.50 L 599.00 474.50 L 599.50 475.00 L 600.00 475.50 L 601.00 475.50 L 601.50 476.00 L 602.00 476.50 L 603.00 476.50 L 604.00 476.50 L 604.50 477.00 L 605.00 477.50 L 606.00 477.50 L 606.50 478.00 L 607.00 478.50 L 608.00 478.50 L 608.50 479.00 L 609.00 479.50 L 610.00 479.50 L 611.00 479.50 L 611.50 480.00 L 612.00 480.50 L 613.00 480.50 L 613.50 481.00 L 614.00 481.50 L 615.00 481.50 L 616.00 481.50 L 616.50 482.00 L 617.00 482.50 L 618.00 482.50 L 618.50 483.00 L 619.00 483.50 L 620.00 483.50 L 621.00 483.50 L 621.50 484.00 L 622.00 484.50 L 623.00 484.50 L 623.50 485.00 L 624.00 485.50 L 625.00 485.50 L 625.50 486.00 L 626.00 486.50 L 627.00 486.50 L 628.00 486.50 L 628.50 487.00 L 629.00 487.50 L 630.00 487.50 L 630.50 488.00 L 631.00 488.50 L 632.00 488.50 L 632.50 489.00 L 633.00 489.50 L 634.00 489.50 L 634.50 490.00 L 635.00 490.50 L 636.00 490.50 L 637.00 490.50 L 637.50 491.00 L 638.00 491.50 L 639.00 491.50 L 639.50 492.00 L 640.00 492.50 L 641.00 492.50 L 641.50 493.00 L 642.00 493.50 L 643.00 493.50 L 643.50 494.00 L 644.00 494.50 L 645.00 494.50 L 645.50 495.00 L 646.00 495.50 L 646.50 496.00 L 647.00 496.50 L 648.00 496.50 L 648.50 497.00 L 649.00 497.50 L 650.00 497.50 L 650.50 498.00 L 651.00 498.50 L 652.00 498.50 L 652.50 499.00 L 653.00 499.50 L 653.50 500.00 L 654.00 500.50 L 655.00 500.50 L 655.50 501.00 L 656.00 501.50 L 657.00 501.50 L 657.50 502.00 L 658.00 502.50 L 658.50 503.00 L 659.00 503.50 L 660.00 503.50 L 660.50 504.00 L 661.00 504.50 L 662.00 504.50 L 662.50 505.00 L 663.00 505.50 L 663.50 506.00 L 664.00 506.50 L 665.00 506.50 L 665.50 507.00 L 666.00 507.50 L 666.50 508.00 L 667.00 508.50 L 668.00 508.50 L 668.50 509.00 L 669.00 509.50 L 670.00 509.50 L 670.50 510.00 L 671.00 510.50 L 671.50 511.00 L 672.00 511.50 L 673.00 511.50 L 673.50 512.00 L 674.00 512.50 L 674.50 513.00 L 675.00 513.50 L 676.00 513.50 L 676.50 514.00 L 677.00 514.50 L 677.50 515.00 L 678.00 515.50 L 679.00 515.50 L 679.50 516.00 L 680.00 516.50 L 680.50 517.00 L 681.00 517.50 L 681.50 518.00 L 682.00 518.50 L 683.00 518.50 L 683.50 519.00 L 684.00 519.50 L 684.50 520.00 L 685.00 520.50 L 686.00 520.50 L 686.50 521.00 L 687.00 521.50 L 687.50 522.00 L 688.00 522.50 L 689.00 522.50 L 689.50 523.00 L 690.00 523.50 L 690.50 524.00 L 691.00 524.50 L 691.50 525.00 L 692.00 525.50 L 693.00 525.50 L 693.50 526.00 L 694.00 526.50 L 694.50 527.00 L 695.00 527.50 L 696.00 527.50 L 696.50 528.00 L 697.00 528.50 L 697.50 529.00 L 698.00 529.50 L 699.00 529.50 L 699.50 530.00 L 700.00 530.50 L 700.50 531.00 L 701.00 531.50 L 702.00 531.50 L 702.50 532.00 L 703.00 532.50 L 703.50 533.00 L 704.00 533.50 L 705.00 533.50 L 705.50 534.00 L 706.00 534.50 L 707.00 534.50 L 707.50 535.00 L 708.00 535.50 L 708.50 536.00 L 709.00 536.50 L 710.00 536.50 L 710.50 537.00 L 711.00 537.50 L 712.00 537.50 L 712.50 538.00 L 713.00 538.50 L 714.00 538.50 L 714.50 539.00 L 715.00 539.50 L 716.00 539.50 L 716.50 540.00 L 717.00 540.50 L 717.50 541.00 L 718.00 541.50 L 719.00 541.50 L 719.50 542.00 L 720.00 542.50 L 721.00 542.50 L 721.50 543.00 L 722.00 543.50 L 723.00 543.50 L 723.50 544.00 L 724.00 544.50 L 725.00 544.50 L 725.50 545.00 L 726.00 545.50 L 727.00 545.50 L 728.00 545.50 L 728.50 546.00 L 729.00 546.50 L 730.00 546.50 L 730.50 547.00 L 731.00 547.50 L 732.00 547.50 L 733.00 547.50 L 733.50 548.00 L 734.00 548.50 L 735.00 548.50 L 736.00 548.50 L 736.50 549.00 L 737.00 549.50 L 738.00 549.50 L 738.50 550.00 L 739.00 550.50 L 740.00 550.50 L 741.00 550.50 L 741.50 551.00 L 742.00 551.50 L 743.00 551.50 L 744.00 551.50 L 744.50 552.00 L 745.00 552.50 L 746.00 552.50 L 746.50 553.00 L 747.00 553.50 L 748.00 553.50 L 749.00 553.50 L 749.50 554.00 L 750.00 554.50 L 751.00 554.50 L 752.00 554.50 L 752.50 555.00 L 753.00 555.50 L 754.00 555.50 L 755.00 555.50 L 756.00 555.50 L 756.50 556.00 L 757.00 556.50 L 758.00 556.50 L 759.00 556.50 L 759.50 557.00 L 760.00 557.50 L 761.00 557.50 L 762.00 557.50 L 763.00 557.50 L 763.50 558.00 L 764.00 558.50 L 765.00 558.50 L 766.00 558.50 L 767.00 558.50 L 767.50 559.00 L 768.00 559.50 L 769.00 559.50 L 770.00 559.50 L 771.00 559.50 L 771.50 560.00 L 772.00 560.50 L 773.00 560.50 L 774.00 560.50 L 775.00 560.50 L 775.50 561.00 L 776.00 561.50 L 777.00 561.50 L 778.00 561.50 L 779.00 561.50 L 779.50 562.00 L 780.00 562.50 L 781.00 562.50 L 782.00 562.50 L 783.00 562.50 L 783.50 563.00 L 784.00 563.50 L 785.00 563.50 L 786.00 563.50 L 787.00 563.50 L 787.50 564.00 L 788.00 564.50 L 789.00 564.50 L 790.00 564.50 L 791.00 564.50 L 791.50 565.00 L 792.00 565.50 L 793.00 565.50 L 794.00 565.50 L 794.50 566.00 L 795.00 566.50 L 796.00 566.50 L 797.00 566.50 L 798.00 566.50 L 798.50 567.00 L 799.00 567.50 L 800.00 567.50 L 801.00 567.50 L 801.50 568.00 L 802.00 568.50 L 803.00 568.50 L 804.00 568.50 L 805.00 568.50 L 806.00 568.50 L 806.50 569.00 L 807.00 569.50 L 808.00 569.50 L 809.00 569.50 L 809.50 570.00 L 810.00 570.50 L 811.00 570.50 L 812.00 570.50 L 813.00 570.50 L 814.00 570.50 L 814.50 571.00 L 815.00 571.50 L 816.00 571.50 L 817.00 571.50 L 818.00 571.50 L 818.50 572.00 L 819.00 572.50 L 820.00 572.50 L 821.00 572.50 L 822.00 572.50 L 823.00 572.50 L 824.00 572.50 L 824.50 573.00 L 825.00 573.50 L 826.00 573.50 L 827.00 573.50 L 828.00 573.50 L 828.50 574.00 L 829.00 574.50 L 830.00 574.50 L 831.00 574.50 L 832.00 574.50 L 833.00 574.50 L 833.50 575.00 L 834.00 575.50 L 835.00 575.50 L 836.00 575.50 L 837.00 575.50 L 838.00 575.50 L 838.50 576.00 L 839.00 576.50 L 840.00 576.50 L 841.00 576.50 L 842.00 576.50 L 843.00 576.50 L 843.50 577.00 L 844.00 577.50 L 845.00 577.50 L 846.00 577.50 L 847.00 577.50 L 848.00 577.50 L 849.00 577.50 L 849.50 578.00 L 850.00 578.50 L 851.00 578.50 L 852.00 578.50 L 853.00 578.50 L 854.00 578.50 L 854.50 579.00 L 855.00 579.50 L 856.00 579.50 L 857.00 579.50 L 858.00 579.50 L 859.00 579.50 L 860.00 579.50 L 860.50 580.00 L 861.00 580.50 L 862.00 580.50 L 863.00 580.50 L 864.00 580.50 L 865.00 580.50 L 865.50 581.00 L 866.00 581.50 L 867.00 581.50 L 868.00 581.50 L 869.00 581.50 L 870.00 581.50 L 871.00 581.50 L 871.50 582.00 L 872.00 582.50 L 873.00 582.50 L 874.00 582.50 L 875.00 582.50 L 876.00 582.50 L 876.50 583.00 L 877.00 583.50 L 878.00 583.50 L 879.00 583.50 L 880.00 583.50 L 881.00 583.50 L 881.50 584.00 L 882.00 584.50 L 883.00 584.50 L 884.00 584.50 L 885.00 584.50 L 886.00 584.50 L 887.00 584.50 L 887.50 585.00 L 888.00 585.50 L 889.00 585.50 L 890.00 585.50 L 891.00 585.50 L 891.50 586.00 L 892.00 586.50 L 893.00 586.50 L 894.00 586.50 L 895.00 586.50 L 896.00 586.50 L 897.00 586.50 L 897.50 587.00 L 898.00 587.50 L 899.00 587.50 L 900.00 587.50 L 901.00 587.50 L 902.00 587.50 L 903.00 587.50 L 904.00 587.50 L 904.50 588.00 L 905.00 588.50 L 906.00 588.50 L 907.00 588.50 L 908.00 588.50 L 909.00 588.50 L 909.50 588.00 L 910.00 587.50 L 910.50 587.00 L 910.00 586.50 L 909.00 586.50 L 908.50 586.00 L 908.00 585.50 L 907.00 585.50 L 906.00 585.50 L 905.00 585.50 L 904.50 585.00 L 904.00 584.50 L 903.00 584.50 L 902.00 584.50 L 901.00 584.50 L 900.00 584.50 L 899.00 584.50 L 898.00 584.50 L 897.50 584.00 L 897.00 583.50 L 896.00 583.50 L 895.00 583.50 L 894.00 583.50 L 893.00 583.50 L 892.00 583.50 L 891.50 583.00 L 891.00 582.50 L 890.00 582.50 L 889.00 582.50 L 888.00 582.50 L 887.00 582.50 L 886.50 582.00 L 886.00 581.50 L 885.00 581.50 L 884.00 581.50 L 883.00 581.50 L 882.00 581.50 L 881.00 581.50 L 880.00 581.50 L 879.50 581.00 L 879.00 580.50 L 878.00 580.50 L 877.00 580.50 L 876.00 580.50 L 875.00 580.50 L 874.50 580.00 L 874.00 579.50 L 873.00 579.50 L 872.00 579.50 L 871.00 579.50 L 870.00 579.50 L 869.00 579.50 L 868.50 579.00 L 868.00 578.50 L 867.00 578.50 L 866.00 578.50 L 865.00 578.50 L 864.50 578.00 L 864.00 577.50 L 863.00 577.50 L 862.00 577.50 L 861.00 577.50 L 860.00 577.50 L 859.50 577.00 L 859.00 576.50 L 858.00 576.50 L 857.00 576.50 L 856.00 576.50 L 855.00 576.50 L 854.00 576.50 L 853.50 576.00 L 853.00 575.50 L 852.00 575.50 L 851.00 575.50 L 850.00 575.50 L 849.50 575.00 L 849.00 574.50 L 848.00 574.50 L 847.00 574.50 L 846.00 574.50 L 845.00 574.50 L 844.50 574.00 L 844.00 573.50 L 843.00 573.50 L 842.00 573.50 L 841.00 573.50 L 840.00 573.50 L 839.50 573.00 L 839.00 572.50 L 838.00 572.50 L 837.00 572.50 L 836.00 572.50 L 835.00 572.50 L 834.50 572.00 L 834.00 571.50 L 833.00 571.50 L 832.00 571.50 L 831.00 571.50 L 830.00 571.50 L 829.50 571.00 L 829.00 570.50 L 828.00 570.50 L 827.00 570.50 L 826.00 570.50 L 825.50 570.00 L 825.00 569.50 L 824.00 569.50 L 823.00 569.50 L 822.00 569.50 L 821.00 569.50 L 820.50 569.00 L 820.00 568.50 L 819.00 568.50 L 818.00 568.50 L 817.00 568.50 L 816.00 568.50 L 815.50 568.00 L 815.00 567.50 L 814.00 567.50 L 813.00 567.50 L 812.00 567.50 L 811.50 567.00 L 811.00 566.50 L 810.00 566.50 L 809.00 566.50 L 808.00 566.50 L 807.00 566.50 L 806.50 566.00 L 806.00 565.50 L 805.00 565.50 L 804.00 565.50 L 803.00 565.50 L 802.50 565.00 L 802.00 564.50 L 801.00 564.50 L 800.00 564.50 L 799.00 564.50 L 798.50 564.00 L 798.00 563.50 L 797.00 563.50 L 796.00 563.50 L 795.00 563.50 L 794.50 563.00 L 794.00 562.50 L 793.00 562.50 L 792.00 562.50 L 791.00 562.50 L 790.50 562.00 L 790.00 561.50 L 789.00 561.50 L 788.00 561.50 L 787.00 561.50 L 786.50 561.00 L 786.00 560.50 L 785.00 560.50 L 784.00 560.50 L 783.50 560.00 L 783.00 559.50 L 782.00 559.50 L 781.00 559.50 L 780.00 559.50 L 779.50 559.00 L 779.00 558.50 L 778.00 558.50 L 777.00 558.50 L 776.00 558.50 L 775.50 558.00 L 775.00 557.50 L 774.00 557.50 L 773.00 557.50 L 772.00 557.50 L 771.50 557.00 L 771.00 556.50 L 770.00 556.50 L 769.00 556.50 L 768.00 556.50 L 767.50 556.00 L 767.00 555.50 L 766.00 555.50 L 765.00 555.50 L 764.50 555.00 L 764.00 554.50 L 763.00 554.50 L 762.00 554.50 L 761.00 554.50 L 760.50 554.00 L 760.00 553.50 L 759.00 553.50 L 758.00 553.50 L 757.00 553.50 L 756.50 553.00 L 756.00 552.50 L 755.00 552.50 L 754.00 552.50 L 753.50 552.00 L 753.00 551.50 L 752.00 551.50 L 751.00 551.50 L 750.50 551.00 L 750.00 550.50 L 749.00 550.50 L 748.00 550.50 L 747.50 550.00 L 747.00 549.50 L 746.00 549.50 L 745.50 549.00 L 745.00 548.50 L 744.00 548.50 L 743.00 548.50 L 742.50 548.00 L 742.00 547.50 L 741.00 547.50 L 740.50 547.00 L 740.00 546.50 L 739.00 546.50 L 738.00 546.50 L 737.50 546.00 L 737.00 545.50 L 736.00 545.50 L 735.00 545.50 L 734.50 545.00 L 734.00 544.50 L 733.00 544.50 L 732.50 544.00 L 732.00 543.50 L 731.00 543.50 L 730.00 543.50 L 729.50 543.00 L 729.00 542.50 L 728.00 542.50 L 727.50 542.00 L 727.00 541.50 L 726.00 541.50 L 725.50 541.00 L 725.00 540.50 L 724.00 540.50 L 723.50 540.00 L 723.00 539.50 L 722.00 539.50 L 721.50 539.00 L 721.00 538.50 L 720.00 538.50 L 719.50 538.00 L 719.00 537.50 L 718.00 537.50 L 717.50 537.00 L 717.00 536.50 L 716.00 536.50 L 715.50 536.00 L 715.00 535.50 L 714.00 535.50 L 713.50 535.00 L 713.00 534.50 L 712.50 534.00 L 712.00 533.50 L 711.00 533.50 L 710.50 533.00 L 710.00 532.50 L 709.00 532.50 L 708.50 532.00 L 708.00 531.50 L 707.50 531.00 L 707.00 530.50 L 706.00 530.50 L 705.50 530.00 L 705.00 529.50 L 704.50 529.00 L 704.00 528.50 L 703.00 528.50 L 702.50 528.00 L 702.00 527.50 L 701.50 527.00 L 701.00 526.50 L 700.00 526.50 L 699.50 526.00 L 699.00 525.50 L 698.50 525.00 L 698.00 524.50 L 697.50 524.00 L 697.00 523.50 L 696.00 523.50 L 695.50 523.00 L 695.00 522.50 L 694.00 522.50 L 693.50 522.00 L 693.00 521.50 L 692.50 521.00 L 692.00 520.50 L 691.50 520.00 L 691.00 519.50 L 690.00 519.50 L 689.50 519.00 L 689.00 518.50 L 688.50 518.00 L 688.00 517.50 L 687.00 517.50 L 686.50 517.00 L 686.00 516.50 L 685.50 516.00 L 685.00 515.50 L 684.00 515.50 L 683.50 515.00 L 683.00 514.50 L 682.50 514.00 L 682.00 513.50 L 681.50 513.00 L 681.00 512.50 L 680.00 512.50 L 679.50 512.00 L 679.00 511.50 L 678.00 511.50 L 677.50 511.00 L 677.00 510.50 L 676.50 510.00 L 676.00 509.50 L 675.50 509.00 L 675.00 508.50 L 674.00 508.50 L 673.50 508.00 L 673.00 507.50 L 672.00 507.50 L 671.50 507.00 L 671.00 506.50 L 670.50 506.00 L 670.00 505.50 L 669.00 505.50 L 668.50 505.00 L 668.00 504.50 L 667.50 504.00 L 667.00 503.50 L 666.00 503.50 L 665.50 503.00 L 665.00 502.50 L 664.00 502.50 L 663.50 502.00 L 663.00 501.50 L 662.50 501.00 L 662.00 500.50 L 661.00 500.50 L 660.50 500.00 L 660.00 499.50 L 659.00 499.50 L 658.50 499.00 L 658.00 498.50 L 657.00 498.50 L 656.50 498.00 L 656.00 497.50 L 655.50 497.00 L 655.00 496.50 L 654.00 496.50 L 653.50 496.00 L 653.00 495.50 L 652.00 495.50 L 651.50 495.00 L 651.00 494.50 L 650.00 494.50 L 649.50 494.00 L 649.00 493.50 L 648.00 493.50 L 647.50 493.00 L 647.00 492.50 L 646.00 492.50 L 645.50 492.00 L 645.00 491.50 L 644.00 491.50 L 643.50 491.00 L 643.00 490.50 L 642.00 490.50 L 641.50 490.00 L 641.00 489.50 L 640.00 489.50 L 639.50 489.00 L 639.00 488.50 L 638.00 488.50 L 637.50 488.00 L 637.00 487.50 L 636.00 487.50 L 635.50 487.00 L 635.00 486.50 L 634.00 486.50 L 633.50 486.00 L 633.00 485.50 L 632.00 485.50 L 631.00 485.50 L 630.50 485.00 L 630.00 484.50 L 629.00 484.50 L 628.50 484.00 L 628.00 483.50 L 627.00 483.50 L 626.50 483.00 L 626.00 482.50 L 625.00 482.50 L 624.00 482.50 L 623.50 482.00 L 623.00 481.50 L 622.00 481.50 L 621.50 481.00 L 621.00 480.50 L 620.00 480.50 L 619.50 480.00 L 619.00 479.50 L 618.00 479.50 L 617.00 479.50 L 616.50 479.00 L 616.00 478.50 L 615.00 478.50 L 614.00 478.50 L 613.50 478.00 L 613.00 477.50 L 612.00 477.50 L 611.00 477.50 L 610.50 477.00 L 610.00 476.50 L 609.00 476.50 L 608.50 476.00 L 608.00 475.50 L 607.00 475.50 L 606.00 475.50 L 605.50 475.00 L 605.00 474.50 L 604.00 474.50 L 603.00 474.50 L 602.50 474.00 L 602.00 473.50 L 601.00 473.50 L 600.50 473.00 L 600.00 472.50 L 599.00 472.50 L 598.00 472.50 L 597.50 472.00 L 597.00 471.50 L 596.00 471.50 L 595.00 471.50 L 594.50 471.00 L 594.00 470.50 L 593.00 470.50 L 592.00 470.50 Z" fill="#000" />
</svg>