<svg width="1024" height="1024" viewBox="0 0 1024 1024" xmlns="http://www.w3.org/2000/svg">
  <rect width="100%" height="100%" fill="#f5f5f5" />
  <path d="M 53.00 754.00 C 222.67 700.33 387.99 630.26 562.00 593.00 C 691.71 565.23 811.41 687.57 925.00 756.08 M 925.00 756.08 C 947.33 569.88 1018.66 383.11 992.00 197.48 C 984.88 147.88 891.37 222.49 853.00 254.72 C 817.48 284.56 976.64 159.09 983.00 205.04 C 1006.92 377.90 1034.38 594.48 918.00 724.52 C 851.10 799.27 751.33 612.84 668.00 557.00 M 668.00 557.00 C 557.11 471.54 446.05 386.19 332.00 305.00 M 332.00 305.00 C 269.78 264.11 176.77 195.29 118.00 241.00 C 87.17 264.98 82.54 311.68 75.00 350.00 C 55.00 451.67 41.98 554.77 33.00 658.00 C 30.16 690.60 27.97 723.29 27.00 756.00 C 26.87 760.45 35.65 759.94 40.00 759.00 C 44.54 758.01 48.67 755.67 53.00 754.00" fill="none" stroke="#111" stroke-width="3" stroke-linecap="round" stroke-linejoin="round" />
</svg>