<svg width="1024" height="1024" viewBox="0 0 1024 1024" xmlns="http://www.w3.org/2000/svg">
  <rect width="100%" height="100%" fill="#f5f5f5" />
  <path d="M 53.00 754.00 C 194.58 698.06 334.60 632.19 484.00 603.00 C 533.80 593.27 585.63 588.89 636.00 595.00 C 671.64 599.32 706.51 614.53 736.00 635.00 C 779.16 664.96 820.37 697.73 864.00 727.00 C 873.16 733.15 883.72 736.98 894.00 741.00 C 899.12 743.00 904.52 744.58 910.00 745.00 C 913.39 745.26 916.92 744.44 920.00 743.00 C 922.14 742.00 923.33 739.67 925.00 738.00 M 925.00 738.00 C 928.33 734.67 932.83 732.18 935.00 728.00 C 942.29 713.93 949.16 699.37 953.00 684.00 C 961.88 648.48 968.68 612.36 973.00 576.00 C 981.36 505.57 986.01 434.75 991.00 364.00 C 993.35 330.72 993.87 297.34 995.00 264.00 C 995.24 256.93 997.97 246.80 992.00 243.00 C 985.81 239.06 976.72 240.07 970.00 243.00 C 930.74 260.08 891.57 277.41 853.00 296.00 C 851.47 296.74 856.43 297.66 858.00 297.00 C 893.72 281.88 928.11 263.71 964.00 249.00 C 969.87 246.59 982.95 243.66 983.00 250.00 C 983.33 290.00 983.38 330.07 981.00 370.00 C 977.38 430.79 972.01 491.50 965.00 552.00 C 961.34 583.57 956.03 615.00 949.00 646.00 C 944.67 665.12 935.76 682.98 931.00 702.00 C 930.33 704.67 934.12 707.49 933.00 710.00 C 929.48 717.85 924.55 725.42 918.00 731.00 C 903.93 742.99 882.09 718.97 868.00 707.00 C 853.06 694.30 833.86 686.86 820.00 673.00 C 816.20 669.20 816.42 662.06 812.00 659.00 C 784.33 639.85 755.46 622.45 728.00 603.00 C 707.44 588.43 688.00 572.33 668.00 557.00 M 668.00 557.00 C 557.11 471.54 446.05 386.19 332.00 305.00 M 332.00 305.00 C 273.33 266.44 207.43 212.59 138.00 223.00 C 129.13 224.33 125.08 235.49 118.00 241.00 C 87.17 264.98 82.54 311.68 75.00 350.00 C 63.53 408.29 55.03 467.14 47.00 526.00 C 41.02 569.84 36.83 613.92 33.00 658.00 C 30.16 690.60 27.97 723.29 27.00 756.00 C 26.87 760.45 35.65 759.94 40.00 759.00 C 44.54 758.01 48.67 755.67 53.00 754.00" fill="none" stroke="#111" stroke-width="3" stroke-linecap="round" stroke-linejoin="round" />
</svg>