<svg width="1400" height="1200" viewBox="-160 -120 1344 1264" xmlns="http://www.w3.org/2000/svg">
  <rect x="-160" y="-120" width="1344" height="1264" fill="#ffffff" />
  <path d="M 53.00 754.00 C 222.67 700.33 387.99 630.26 562.00 593.00 C 691.71 565.23 811.41 687.57 925.00 756.08 M 925.00 756.08 C 967.19 573.35 1018.66 383.11 992.00 197.48 C 984.88 147.88 891.37 222.49 853.00 254.72 C 817.48 284.56 976.64 159.09 983.00 205.04 C 1006.92 377.90 920.15 721.42 912.00 730.52 C 875.40 704.49 729.00 600.38 668.00 557.00 M 912.00 730.52 C 551.11 477.54 446.05 386.19 332.00 305.00 M 332.00 305.00 C 269.78 264.11 176.77 195.29 118.00 241.00 C 87.17 264.98 82.54 311.68 75.00 350.00 C 55.00 451.67 41.98 554.77 33.00 658.00 C 30.16 690.60 27.97 723.29 27.00 756.00 C 26.87 760.45 35.65 759.94 40.00 759.00 C 44.54 758.01 48.67 755.67 53.00 754.00" fill="none" stroke="#111" stroke-width="3" stroke-linecap="round" stroke-linejoin="round" />
  <line x1="53.00" y1="754.00" x2="53.00" y2="728.00" stroke="#e03131" stroke-width="1" /><line x1="925.00" y1="756.08" x2="925.00" y2="730.08" stroke="#e03131" stroke-width="1" /><line x1="912.00" y1="730.52" x2="912.00" y2="704.52" stroke="#e03131" stroke-width="1" /><line x1="332.00" y1="305.00" x2="332.00" y2="279.00" stroke="#e03131" stroke-width="1" />
  <circle cx="53.00" cy="754.00" r="3" fill="#e03131" /><text x="53.00" y="728.00" font-size="12" font-family="Menlo, monospace" fill="#e03131" stroke="#ffffff" stroke-width="3" paint-order="stroke fill"><tspan x="53.00" dy="0">left_tip</tspan><tspan x="53.00" dy="14">left_tip (out -18°)</tspan><tspan x="53.00" dy="14">left_tip (in -21°)</tspan></text><circle cx="562.00" cy="593.00" r="3" fill="#e03131" /><text x="570.00" y="585.00" font-size="12" font-family="Menlo, monospace" fill="#e03131" stroke="#ffffff" stroke-width="3" paint-order="stroke fill"><tspan x="570.00" dy="0">bottom_mid (in -12°, out -12°)</tspan></text><circle cx="925.00" cy="756.08" r="3" fill="#e03131" /><text x="925.00" y="730.08" font-size="12" font-family="Menlo, monospace" fill="#e03131" stroke="#ffffff" stroke-width="3" paint-order="stroke fill"><tspan x="925.00" dy="0">right_tip</tspan><tspan x="925.00" dy="14">right_tip_bottom (in 31°)</tspan><tspan x="925.00" dy="14">right_tip_top (out -77°)</tspan></text><circle cx="992.00" cy="197.48" r="3" fill="#e03131" /><text x="1000.00" y="189.48" font-size="12" font-family="Menlo, monospace" fill="#e03131" stroke="#ffffff" stroke-width="3" paint-order="stroke fill"><tspan x="1000.00" dy="0">top_peak (in -98°, out -98°)</tspan></text><circle cx="853.00" cy="254.72" r="3" fill="#e03131" /><text x="861.00" y="246.72" font-size="12" font-family="Menlo, monospace" fill="#e03131" stroke="#ffffff" stroke-width="3" paint-order="stroke fill"><tspan x="861.00" dy="0">right_shoulder (in 140°, out 140°)</tspan></text><circle cx="983.00" cy="205.04" r="3" fill="#e03131" /><text x="991.00" y="197.04" font-size="12" font-family="Menlo, monospace" fill="#e03131" stroke="#ffffff" stroke-width="3" paint-order="stroke fill"><tspan x="991.00" dy="0">right_knee (in 82°, out 82°)</tspan></text><circle cx="912.00" cy="730.52" r="3" fill="#e03131" /><text x="912.00" y="704.52" font-size="12" font-family="Menlo, monospace" fill="#e03131" stroke="#ffffff" stroke-width="3" paint-order="stroke fill"><tspan x="912.00" dy="0">bridge_join</tspan><tspan x="912.00" dy="14">bridge_join (out -145°)</tspan><tspan x="912.00" dy="14">right_turn (in 132°, out -145°)</tspan></text><circle cx="668.00" cy="557.00" r="3" fill="#e03131" /><text x="676.00" y="549.00" font-size="12" font-family="Menlo, monospace" fill="#e03131" stroke="#ffffff" stroke-width="3" paint-order="stroke fill"><tspan x="676.00" dy="0">bridge_join</tspan><tspan x="676.00" dy="14">bridge_join (in -145°)</tspan></text><circle cx="332.00" cy="305.00" r="3" fill="#e03131" /><text x="332.00" y="279.00" font-size="12" font-family="Menlo, monospace" fill="#e03131" stroke="#ffffff" stroke-width="3" paint-order="stroke fill"><tspan x="332.00" dy="0">left_join</tspan><tspan x="332.00" dy="14">left_join (in -145°)</tspan><tspan x="332.00" dy="14">left_join (out -147°)</tspan></text><circle cx="118.00" cy="241.00" r="3" fill="#e03131" /><text x="126.00" y="233.00" font-size="12" font-family="Menlo, monospace" fill="#e03131" stroke="#ffffff" stroke-width="3" paint-order="stroke fill"><tspan x="126.00" dy="0">left_arc_1 (in 142°, out 142°)</tspan></text><circle cx="75.00" cy="350.00" r="3" fill="#e03131" /><text x="83.00" y="342.00" font-size="12" font-family="Menlo, monospace" fill="#e03131" stroke="#ffffff" stroke-width="3" paint-order="stroke fill"><tspan x="83.00" dy="0">left_arc_2 (in 101°, out 101°)</tspan></text><circle cx="33.00" cy="658.00" r="3" fill="#e03131" /><text x="41.00" y="650.00" font-size="12" font-family="Menlo, monospace" fill="#e03131" stroke="#ffffff" stroke-width="3" paint-order="stroke fill"><tspan x="41.00" dy="0">left_arc_3 (in 95°, out 95°)</tspan></text><circle cx="27.00" cy="756.00" r="3" fill="#e03131" /><text x="35.00" y="748.00" font-size="12" font-family="Menlo, monospace" fill="#e03131" stroke="#ffffff" stroke-width="3" paint-order="stroke fill"><tspan x="35.00" dy="0">left_arc_4 (in 92°, out 92°)</tspan></text><circle cx="40.00" cy="759.00" r="3" fill="#e03131" /><text x="48.00" y="751.00" font-size="12" font-family="Menlo, monospace" fill="#e03131" stroke="#ffffff" stroke-width="3" paint-order="stroke fill"><tspan x="48.00" dy="0">left_arc_5 (in -12°, out -12°)</tspan></text>
</svg>