<svg width="1400" height="1200" viewBox="-160 -120 1344 1264" xmlns="http://www.w3.org/2000/svg">
  <rect x="-160" y="-120" width="1344" height="1264" fill="#ffffff" />
  <path d="M 53.00 754.00 C 222.67 700.33 387.99 630.26 562.00 593.00 C 691.71 565.23 811.41 687.57 925.00 756.08 M 925.00 756.08 C 967.19 573.35 1018.66 383.11 992.00 197.48 C 984.88 147.88 891.37 222.49 853.00 254.72 C 817.48 284.56 976.64 159.09 983.00 205.04 C 1006.92 377.90 920.15 721.42 912.00 730.52 C 875.40 704.49 729.00 600.38 668.00 557.00 M 912.00 730.52 C 551.11 477.54 446.05 386.19 332.00 305.00 M 332.00 305.00 C 269.78 264.11 176.77 195.29 118.00 241.00 C 87.17 264.98 82.54 311.68 75.00 350.00 C 55.00 451.67 41.98 554.77 33.00 658.00 C 30.16 690.60 27.97 723.29 27.00 756.00 C 26.87 760.45 35.65 759.94 40.00 759.00 C 44.54 758.01 48.67 755.67 53.00 754.00" fill="none" stroke="#111" stroke-width="3" stroke-linecap="round" stroke-linejoin="round" />
  <line x1="53.00" y1="754.00" x2="222.67" y2="700.33" stroke="#2f9e44" stroke-width="1" /><line x1="53.00" y1="754.00" x2="48.67" y2="755.67" stroke="#1971c2" stroke-width="1" /><line x1="562.00" y1="593.00" x2="691.71" y2="565.23" stroke="#2f9e44" stroke-width="1" /><line x1="562.00" y1="593.00" x2="387.99" y2="630.26" stroke="#1971c2" stroke-width="1" /><line x1="925.00" y1="756.08" x2="811.41" y2="687.57" stroke="#1971c2" stroke-width="1" /><line x1="925.00" y1="756.08" x2="967.19" y2="573.35" stroke="#2f9e44" stroke-width="1" /><line x1="992.00" y1="197.48" x2="984.88" y2="147.88" stroke="#2f9e44" stroke-width="1" /><line x1="992.00" y1="197.48" x2="1018.66" y2="383.11" stroke="#1971c2" stroke-width="1" /><line x1="853.00" y1="254.72" x2="817.48" y2="284.56" stroke="#2f9e44" stroke-width="1" /><line x1="853.00" y1="254.72" x2="891.37" y2="222.49" stroke="#1971c2" stroke-width="1" /><line x1="983.00" y1="205.04" x2="1006.92" y2="377.90" stroke="#2f9e44" stroke-width="1" /><line x1="983.00" y1="205.04" x2="976.64" y2="159.09" stroke="#1971c2" stroke-width="1" /><line x1="912.00" y1="730.52" x2="875.40" y2="704.49" stroke="#2f9e44" stroke-width="1" /><line x1="912.00" y1="730.52" x2="920.15" y2="721.42" stroke="#1971c2" stroke-width="1" /><line x1="912.00" y1="730.52" x2="551.11" y2="477.54" stroke="#2f9e44" stroke-width="1" /><line x1="668.00" y1="557.00" x2="729.00" y2="600.38" stroke="#1971c2" stroke-width="1" /><line x1="332.00" y1="305.00" x2="446.05" y2="386.19" stroke="#1971c2" stroke-width="1" /><line x1="332.00" y1="305.00" x2="269.78" y2="264.11" stroke="#2f9e44" stroke-width="1" /><line x1="118.00" y1="241.00" x2="87.17" y2="264.98" stroke="#2f9e44" stroke-width="1" /><line x1="118.00" y1="241.00" x2="176.77" y2="195.29" stroke="#1971c2" stroke-width="1" /><line x1="75.00" y1="350.00" x2="55.00" y2="451.67" stroke="#2f9e44" stroke-width="1" /><line x1="75.00" y1="350.00" x2="82.54" y2="311.68" stroke="#1971c2" stroke-width="1" /><line x1="33.00" y1="658.00" x2="30.16" y2="690.60" stroke="#2f9e44" stroke-width="1" /><line x1="33.00" y1="658.00" x2="41.98" y2="554.77" stroke="#1971c2" stroke-width="1" /><line x1="27.00" y1="756.00" x2="26.87" y2="760.45" stroke="#2f9e44" stroke-width="1" /><line x1="27.00" y1="756.00" x2="27.97" y2="723.29" stroke="#1971c2" stroke-width="1" /><line x1="40.00" y1="759.00" x2="44.54" y2="758.01" stroke="#2f9e44" stroke-width="1" /><line x1="40.00" y1="759.00" x2="35.65" y2="759.94" stroke="#1971c2" stroke-width="1" />
  <circle cx="53.00" cy="754.00" r="3" fill="#e03131" /><circle cx="222.67" cy="700.33" r="2" fill="#2f9e44" /><circle cx="48.67" cy="755.67" r="2" fill="#1971c2" /><circle cx="562.00" cy="593.00" r="3" fill="#e03131" /><circle cx="691.71" cy="565.23" r="2" fill="#2f9e44" /><circle cx="387.99" cy="630.26" r="2" fill="#1971c2" /><circle cx="925.00" cy="756.08" r="3" fill="#e03131" /><circle cx="811.41" cy="687.57" r="2" fill="#1971c2" /><circle cx="967.19" cy="573.35" r="2" fill="#2f9e44" /><circle cx="992.00" cy="197.48" r="3" fill="#e03131" /><circle cx="984.88" cy="147.88" r="2" fill="#2f9e44" /><circle cx="1018.66" cy="383.11" r="2" fill="#1971c2" /><circle cx="853.00" cy="254.72" r="3" fill="#e03131" /><circle cx="817.48" cy="284.56" r="2" fill="#2f9e44" /><circle cx="891.37" cy="222.49" r="2" fill="#1971c2" /><circle cx="983.00" cy="205.04" r="3" fill="#e03131" /><circle cx="1006.92" cy="377.90" r="2" fill="#2f9e44" /><circle cx="976.64" cy="159.09" r="2" fill="#1971c2" /><circle cx="912.00" cy="730.52" r="3" fill="#e03131" /><circle cx="875.40" cy="704.49" r="2" fill="#2f9e44" /><circle cx="920.15" cy="721.42" r="2" fill="#1971c2" /><circle cx="551.11" cy="477.54" r="2" fill="#2f9e44" /><circle cx="668.00" cy="557.00" r="3" fill="#e03131" /><circle cx="729.00" cy="600.38" r="2" fill="#1971c2" /><circle cx="332.00" cy="305.00" r="3" fill="#e03131" /><circle cx="446.05" cy="386.19" r="2" fill="#1971c2" /><circle cx="269.78" cy="264.11" r="2" fill="#2f9e44" /><circle cx="118.00" cy="241.00" r="3" fill="#e03131" /><circle cx="87.17" cy="264.98" r="2" fill="#2f9e44" /><circle cx="176.77" cy="195.29" r="2" fill="#1971c2" /><circle cx="75.00" cy="350.00" r="3" fill="#e03131" /><circle cx="55.00" cy="451.67" r="2" fill="#2f9e44" /><circle cx="82.54" cy="311.68" r="2" fill="#1971c2" /><circle cx="33.00" cy="658.00" r="3" fill="#e03131" /><circle cx="30.16" cy="690.60" r="2" fill="#2f9e44" /><circle cx="41.98" cy="554.77" r="2" fill="#1971c2" /><circle cx="27.00" cy="756.00" r="3" fill="#e03131" /><circle cx="26.87" cy="760.45" r="2" fill="#2f9e44" /><circle cx="27.97" cy="723.29" r="2" fill="#1971c2" /><circle cx="40.00" cy="759.00" r="3" fill="#e03131" /><circle cx="44.54" cy="758.01" r="2" fill="#2f9e44" /><circle cx="35.65" cy="759.94" r="2" fill="#1971c2" />
  <text x="157.21" y="729.43" font-size="11" font-family="Menlo, monospace" fill="#2f9e44" stroke="#ffffff" stroke-width="3" paint-order="stroke fill">out -18°</text><text x="53.27" y="762.47" font-size="11" font-family="Menlo, monospace" fill="#1971c2" stroke="#ffffff" stroke-width="3" paint-order="stroke fill">in -21°</text><text x="641.50" y="584.16" font-size="11" font-family="Menlo, monospace" fill="#2f9e44" stroke="#ffffff" stroke-width="3" paint-order="stroke fill">out -12°</text><text x="459.27" y="623.18" font-size="11" font-family="Menlo, monospace" fill="#1971c2" stroke="#ffffff" stroke-width="3" paint-order="stroke fill">in -12°</text><text x="852.71" y="721.83" font-size="11" font-family="Menlo, monospace" fill="#1971c2" stroke="#ffffff" stroke-width="3" paint-order="stroke fill">in 31°</text><text x="958.11" y="648.24" font-size="11" font-family="Menlo, monospace" fill="#2f9e44" stroke="#ffffff" stroke-width="3" paint-order="stroke fill">out -77°</text><text x="995.65" y="166.58" font-size="11" font-family="Menlo, monospace" fill="#2f9e44" stroke="#ffffff" stroke-width="3" paint-order="stroke fill">out -98°</text><text x="1015.91" y="307.72" font-size="11" font-family="Menlo, monospace" fill="#1971c2" stroke="#ffffff" stroke-width="3" paint-order="stroke fill">in -98°</text><text x="826.54" y="266.50" font-size="11" font-family="Menlo, monospace" fill="#2f9e44" stroke="#ffffff" stroke-width="3" paint-order="stroke fill">out 140°</text><text x="870.88" y="229.26" font-size="11" font-family="Menlo, monospace" fill="#1971c2" stroke="#ffffff" stroke-width="3" paint-order="stroke fill">in 140°</text><text x="989.43" y="309.85" font-size="11" font-family="Menlo, monospace" fill="#2f9e44" stroke="#ffffff" stroke-width="3" paint-order="stroke fill">out 82°</text><text x="971.26" y="178.57" font-size="11" font-family="Menlo, monospace" fill="#1971c2" stroke="#ffffff" stroke-width="3" paint-order="stroke fill">in 82°</text><text x="894.68" y="708.38" font-size="11" font-family="Menlo, monospace" fill="#2f9e44" stroke="#ffffff" stroke-width="3" paint-order="stroke fill">out -145°</text><text x="910.93" y="719.72" font-size="11" font-family="Menlo, monospace" fill="#1971c2" stroke="#ffffff" stroke-width="3" paint-order="stroke fill">in 132°</text><text x="700.06" y="572.18" font-size="11" font-family="Menlo, monospace" fill="#2f9e44" stroke="#ffffff" stroke-width="3" paint-order="stroke fill">out -145°</text><text x="709.24" y="576.51" font-size="11" font-family="Menlo, monospace" fill="#1971c2" stroke="#ffffff" stroke-width="3" paint-order="stroke fill">in -145°</text><text x="405.07" y="347.20" font-size="11" font-family="Menlo, monospace" fill="#1971c2" stroke="#ffffff" stroke-width="3" paint-order="stroke fill">in -145°</text><text x="299.06" y="273.78" font-size="11" font-family="Menlo, monospace" fill="#2f9e44" stroke="#ffffff" stroke-width="3" paint-order="stroke fill">out -147°</text><text x="94.59" y="249.07" font-size="11" font-family="Menlo, monospace" fill="#2f9e44" stroke="#ffffff" stroke-width="3" paint-order="stroke fill">out 142°</text><text x="148.35" y="207.26" font-size="11" font-family="Menlo, monospace" fill="#1971c2" stroke="#ffffff" stroke-width="3" paint-order="stroke fill">in 142°</text><text x="55.15" y="409.46" font-size="11" font-family="Menlo, monospace" fill="#2f9e44" stroke="#ffffff" stroke-width="3" paint-order="stroke fill">out 101°</text><text x="71.67" y="325.46" font-size="11" font-family="Menlo, monospace" fill="#1971c2" stroke="#ffffff" stroke-width="3" paint-order="stroke fill">in 101°</text><text x="23.33" y="676.87" font-size="11" font-family="Menlo, monospace" fill="#2f9e44" stroke="#ffffff" stroke-width="3" paint-order="stroke fill">out 95°</text><text x="30.42" y="595.37" font-size="11" font-family="Menlo, monospace" fill="#1971c2" stroke="#ffffff" stroke-width="3" paint-order="stroke fill">in 95°</text><text x="18.92" y="758.43" font-size="11" font-family="Menlo, monospace" fill="#2f9e44" stroke="#ffffff" stroke-width="3" paint-order="stroke fill">out 92°</text><text x="19.59" y="736.13" font-size="11" font-family="Menlo, monospace" fill="#1971c2" stroke="#ffffff" stroke-width="3" paint-order="stroke fill">in 92°</text><text x="44.42" y="766.23" font-size="11" font-family="Menlo, monospace" fill="#2f9e44" stroke="#ffffff" stroke-width="3" paint-order="stroke fill">out -12°</text><text x="39.09" y="767.38" font-size="11" font-family="Menlo, monospace" fill="#1971c2" stroke="#ffffff" stroke-width="3" paint-order="stroke fill">in -12°</text>
  <line x1="53.00" y1="754.00" x2="53.00" y2="728.00" stroke="#e03131" stroke-width="1" /><line x1="925.00" y1="756.08" x2="925.00" y2="730.08" stroke="#e03131" stroke-width="1" /><line x1="912.00" y1="730.52" x2="912.00" y2="704.52" stroke="#e03131" stroke-width="1" /><line x1="332.00" y1="305.00" x2="332.00" y2="279.00" stroke="#e03131" stroke-width="1" />
  <text x="53.00" y="728.00" font-size="12" font-family="Menlo, monospace" fill="#e03131" stroke="#ffffff" stroke-width="3" paint-order="stroke fill"><tspan x="53.00" dy="0">left_tip</tspan><tspan x="53.00" dy="14">left_tip</tspan><tspan x="53.00" dy="14">left_tip</tspan></text><text x="572.00" y="583.00" font-size="12" font-family="Menlo, monospace" fill="#e03131" stroke="#ffffff" stroke-width="3" paint-order="stroke fill"><tspan x="572.00" dy="0">bottom_mid</tspan></text><text x="925.00" y="730.08" font-size="12" font-family="Menlo, monospace" fill="#e03131" stroke="#ffffff" stroke-width="3" paint-order="stroke fill"><tspan x="925.00" dy="0">right_tip</tspan><tspan x="925.00" dy="14">right_tip_bottom</tspan><tspan x="925.00" dy="14">right_tip_top</tspan></text><text x="1002.00" y="187.48" font-size="12" font-family="Menlo, monospace" fill="#e03131" stroke="#ffffff" stroke-width="3" paint-order="stroke fill"><tspan x="1002.00" dy="0">top_peak</tspan></text><text x="863.00" y="244.72" font-size="12" font-family="Menlo, monospace" fill="#e03131" stroke="#ffffff" stroke-width="3" paint-order="stroke fill"><tspan x="863.00" dy="0">right_shoulder</tspan></text><text x="993.00" y="195.04" font-size="12" font-family="Menlo, monospace" fill="#e03131" stroke="#ffffff" stroke-width="3" paint-order="stroke fill"><tspan x="993.00" dy="0">right_knee</tspan></text><text x="912.00" y="704.52" font-size="12" font-family="Menlo, monospace" fill="#e03131" stroke="#ffffff" stroke-width="3" paint-order="stroke fill"><tspan x="912.00" dy="0">bridge_join</tspan><tspan x="912.00" dy="14">bridge_join</tspan><tspan x="912.00" dy="14">right_turn</tspan></text><text x="678.00" y="547.00" font-size="12" font-family="Menlo, monospace" fill="#e03131" stroke="#ffffff" stroke-width="3" paint-order="stroke fill"><tspan x="678.00" dy="0">bridge_join</tspan><tspan x="678.00" dy="14">bridge_join</tspan></text><text x="332.00" y="279.00" font-size="12" font-family="Menlo, monospace" fill="#e03131" stroke="#ffffff" stroke-width="3" paint-order="stroke fill"><tspan x="332.00" dy="0">left_join</tspan><tspan x="332.00" dy="14">left_join</tspan><tspan x="332.00" dy="14">left_join</tspan></text><text x="128.00" y="231.00" font-size="12" font-family="Menlo, monospace" fill="#e03131" stroke="#ffffff" stroke-width="3" paint-order="stroke fill"><tspan x="128.00" dy="0">left_arc_1</tspan></text><text x="85.00" y="340.00" font-size="12" font-family="Menlo, monospace" fill="#e03131" stroke="#ffffff" stroke-width="3" paint-order="stroke fill"><tspan x="85.00" dy="0">left_arc_2</tspan></text><text x="43.00" y="648.00" font-size="12" font-family="Menlo, monospace" fill="#e03131" stroke="#ffffff" stroke-width="3" paint-order="stroke fill"><tspan x="43.00" dy="0">left_arc_3</tspan></text><text x="37.00" y="746.00" font-size="12" font-family="Menlo, monospace" fill="#e03131" stroke="#ffffff" stroke-width="3" paint-order="stroke fill"><tspan x="37.00" dy="0">left_arc_4</tspan></text><text x="50.00" y="749.00" font-size="12" font-family="Menlo, monospace" fill="#e03131" stroke="#ffffff" stroke-width="3" paint-order="stroke fill"><tspan x="50.00" dy="0">left_arc_5</tspan></text>
  <text x="-140" y="-90" font-size="12" font-family="Menlo, monospace" fill="#555">Handles: green=outgoing, blue=incoming</text>
</svg>