<svg width="1024" height="1024" viewBox="0 0 1024 1024" xmlns="http://www.w3.org/2000/svg">
  <rect width="100%" height="100%" fill="#ffffff" />
  <path d="M 53.00 754.00 C 222.67 700.33 387.99 630.26 562.00 593.00 C 691.71 565.23 811.41 687.57 925.00 756.08 M 925.00 756.08 C 947.33 569.88 1018.66 383.11 992.00 197.48 C 984.88 147.88 891.37 222.49 853.00 254.72 C 817.48 284.56 976.64 159.09 983.00 205.04 C 1006.92 377.90 1034.38 594.48 918.00 724.52 C 851.10 799.27 751.33 612.84 668.00 557.00 M 668.00 557.00 C 557.11 471.54 446.05 386.19 332.00 305.00 M 332.00 305.00 C 269.78 264.11 176.77 195.29 118.00 241.00 C 87.17 264.98 82.54 311.68 75.00 350.00 C 55.00 451.67 41.98 554.77 33.00 658.00 C 30.16 690.60 27.97 723.29 27.00 756.00 C 26.87 760.45 35.65 759.94 40.00 759.00 C 44.54 758.01 48.67 755.67 53.00 754.00" fill="none" stroke="#111" stroke-width="3" stroke-linecap="round" stroke-linejoin="round" />
  <line x1="53.00" y1="754.00" x2="53.00" y2="736.00" stroke="#e03131" stroke-width="1" /><line x1="53.00" y1="754.00" x2="53.00" y2="772.00" stroke="#e03131" stroke-width="1" /><line x1="925.00" y1="756.08" x2="925.00" y2="738.08" stroke="#e03131" stroke-width="1" /><line x1="925.00" y1="756.08" x2="925.00" y2="774.08" stroke="#e03131" stroke-width="1" /><line x1="668.00" y1="557.00" x2="668.00" y2="539.00" stroke="#e03131" stroke-width="1" /><line x1="668.00" y1="557.00" x2="668.00" y2="575.00" stroke="#e03131" stroke-width="1" /><line x1="332.00" y1="305.00" x2="332.00" y2="287.00" stroke="#e03131" stroke-width="1" /><line x1="332.00" y1="305.00" x2="332.00" y2="323.00" stroke="#e03131" stroke-width="1" />
  <circle cx="53.00" cy="754.00" r="3" fill="#e03131" /><text x="57.00" y="732.00" font-size="12" font-family="Menlo, monospace" fill="#e03131">bottom_00 (out -18°)</text><text x="57.00" y="768.00" font-size="12" font-family="Menlo, monospace" fill="#e03131">left_06 (in -21°)</text><circle cx="562.00" cy="593.00" r="3" fill="#e03131" /><text x="568.00" y="587.00" font-size="12" font-family="Menlo, monospace" fill="#e03131">bottom_01 (in -12°, out -12°)</text><circle cx="925.00" cy="756.08" r="3" fill="#e03131" /><text x="929.00" y="734.08" font-size="12" font-family="Menlo, monospace" fill="#e03131">bottom_02 (in 31°)</text><text x="929.00" y="770.08" font-size="12" font-family="Menlo, monospace" fill="#e03131">top_00 (out -83°)</text><circle cx="992.00" cy="197.48" r="3" fill="#e03131" /><text x="998.00" y="191.48" font-size="12" font-family="Menlo, monospace" fill="#e03131">top_01 (in -98°, out -98°)</text><circle cx="853.00" cy="254.72" r="3" fill="#e03131" /><text x="859.00" y="248.72" font-size="12" font-family="Menlo, monospace" fill="#e03131">top_02 (in 140°, out 140°)</text><circle cx="983.00" cy="205.04" r="3" fill="#e03131" /><text x="989.00" y="199.04" font-size="12" font-family="Menlo, monospace" fill="#e03131">top_03 (in 82°, out 82°)</text><circle cx="918.00" cy="724.52" r="3" fill="#e03131" /><text x="924.00" y="718.52" font-size="12" font-family="Menlo, monospace" fill="#e03131">top_04 (in 132°, out 132°)</text><circle cx="668.00" cy="557.00" r="3" fill="#e03131" /><text x="672.00" y="535.00" font-size="12" font-family="Menlo, monospace" fill="#e03131">bridge_00 (out -142°)</text><text x="672.00" y="571.00" font-size="12" font-family="Menlo, monospace" fill="#e03131">top_05 (in -146°)</text><circle cx="332.00" cy="305.00" r="3" fill="#e03131" /><text x="336.00" y="283.00" font-size="12" font-family="Menlo, monospace" fill="#e03131">bridge_01 (in -145°)</text><text x="336.00" y="319.00" font-size="12" font-family="Menlo, monospace" fill="#e03131">left_00 (out -147°)</text><circle cx="118.00" cy="241.00" r="3" fill="#e03131" /><text x="124.00" y="235.00" font-size="12" font-family="Menlo, monospace" fill="#e03131">left_01 (in 142°, out 142°)</text><circle cx="75.00" cy="350.00" r="3" fill="#e03131" /><text x="81.00" y="344.00" font-size="12" font-family="Menlo, monospace" fill="#e03131">left_02 (in 101°, out 101°)</text><circle cx="33.00" cy="658.00" r="3" fill="#e03131" /><text x="39.00" y="652.00" font-size="12" font-family="Menlo, monospace" fill="#e03131">left_03 (in 95°, out 95°)</text><circle cx="27.00" cy="756.00" r="3" fill="#e03131" /><text x="33.00" y="750.00" font-size="12" font-family="Menlo, monospace" fill="#e03131">left_04 (in 92°, out 92°)</text><circle cx="40.00" cy="759.00" r="3" fill="#e03131" /><text x="46.00" y="753.00" font-size="12" font-family="Menlo, monospace" fill="#e03131">left_05 (in -12°, out -12°)</text>
</svg>