<svg width="1024" height="1024" viewBox="0 0 1024 1024" xmlns="http://www.w3.org/2000/svg">
  <path d="M 144.00 221.00 L 143.00 222.00 L 142.00 223.00 L 140.00 223.00 L 138.00 223.00 L 137.00 224.00 L 138.00 225.00 L 140.00 225.00 L 142.00 225.00 L 144.00 225.00 L 146.00 225.00 L 147.00 226.00 L 147.00 228.00 L 147.00 230.00 L 146.00 231.00 L 144.00 231.00 L 142.00 231.00 L 140.00 231.00 L 138.00 231.00 L 137.00 232.00 L 136.00 233.00 L 134.00 233.00 L 133.00 234.00 L 132.00 235.00 L 130.00 235.00 L 129.00 236.00 L 128.00 237.00 L 127.00 238.00 L 126.00 239.00 L 124.00 239.00 L 122.00 239.00 L 121.00 240.00 L 120.00 241.00 L 118.00 241.00 L 117.00 242.00 L 116.00 243.00 L 115.00 244.00 L 115.00 246.00 L 114.00 247.00 L 113.00 248.00 L 112.00 249.00 L 111.00 250.00 L 111.00 252.00 L 110.00 253.00 L 109.00 254.00 L 109.00 256.00 L 108.00 257.00 L 107.00 258.00 L 106.00 259.00 L 105.00 260.00 L 105.00 262.00 L 104.00 263.00 L 103.00 264.00 L 103.00 266.00 L 102.00 267.00 L 101.00 268.00 L 101.00 270.00 L 101.00 272.00 L 100.00 273.00 L 99.00 274.00 L 99.00 276.00 L 98.00 277.00 L 97.00 278.00 L 97.00 280.00 L 96.00 281.00 L 95.00 282.00 L 95.00 284.00 L 95.00 286.00 L 94.00 287.00 L 93.00 288.00 L 93.00 290.00 L 93.00 292.00 L 92.00 293.00 L 91.00 294.00 L 91.00 296.00 L 91.00 298.00 L 90.00 299.00 L 89.00 300.00 L 89.00 302.00 L 89.00 304.00 L 88.00 305.00 L 87.00 306.00 L 87.00 308.00 L 87.00 310.00 L 86.00 311.00 L 85.00 312.00 L 85.00 314.00 L 85.00 316.00 L 85.00 318.00 L 84.00 319.00 L 83.00 320.00 L 83.00 322.00 L 83.00 324.00 L 82.00 325.00 L 81.00 326.00 L 81.00 328.00 L 81.00 330.00 L 81.00 332.00 L 80.00 333.00 L 79.00 334.00 L 79.00 336.00 L 79.00 338.00 L 79.00 340.00 L 78.00 341.00 L 77.00 342.00 L 77.00 344.00 L 77.00 346.00 L 77.00 348.00 L 76.00 349.00 L 75.00 350.00 L 75.00 352.00 L 75.00 354.00 L 75.00 356.00 L 75.00 358.00 L 74.00 359.00 L 73.00 360.00 L 73.00 362.00 L 73.00 364.00 L 73.00 366.00 L 72.00 367.00 L 71.00 368.00 L 71.00 370.00 L 71.00 372.00 L 71.00 374.00 L 71.00 376.00 L 71.00 378.00 L 70.00 379.00 L 69.00 380.00 L 69.00 382.00 L 69.00 384.00 L 69.00 386.00 L 68.00 387.00 L 67.00 388.00 L 67.00 390.00 L 67.00 392.00 L 67.00 394.00 L 67.00 396.00 L 67.00 398.00 L 67.00 400.00 L 67.00 402.00 L 66.00 403.00 L 65.00 404.00 L 65.00 406.00 L 65.00 408.00 L 65.00 410.00 L 65.00 412.00 L 65.00 414.00 L 65.00 416.00 L 65.00 418.00 L 65.00 420.00 L 64.00 421.00 L 63.00 422.00 L 63.00 424.00 L 63.00 426.00 L 63.00 428.00 L 63.00 430.00 L 62.00 431.00 L 61.00 432.00 L 61.00 434.00 L 61.00 436.00 L 61.00 438.00 L 61.00 440.00 L 61.00 442.00 L 60.00 443.00 L 59.00 444.00 L 59.00 446.00 L 59.00 448.00 L 59.00 450.00 L 59.00 452.00 L 59.00 454.00 L 58.00 455.00 L 57.00 456.00 L 57.00 458.00 L 57.00 460.00 L 57.00 462.00 L 57.00 464.00 L 57.00 466.00 L 56.00 467.00 L 55.00 468.00 L 55.00 470.00 L 55.00 472.00 L 55.00 474.00 L 55.00 476.00 L 55.00 478.00 L 55.00 480.00 L 54.00 481.00 L 53.00 482.00 L 53.00 484.00 L 53.00 486.00 L 53.00 488.00 L 53.00 490.00 L 53.00 492.00 L 53.00 494.00 L 52.00 495.00 L 51.00 496.00 L 51.00 498.00 L 51.00 500.00 L 51.00 502.00 L 51.00 504.00 L 51.00 506.00 L 51.00 508.00 L 50.00 509.00 L 49.00 510.00 L 49.00 512.00 L 49.00 514.00 L 49.00 516.00 L 49.00 518.00 L 49.00 520.00 L 49.00 522.00 L 49.00 524.00 L 48.00 525.00 L 47.00 526.00 L 47.00 528.00 L 47.00 530.00 L 47.00 532.00 L 47.00 534.00 L 47.00 536.00 L 47.00 538.00 L 47.00 540.00 L 47.00 542.00 L 46.00 543.00 L 45.00 544.00 L 45.00 546.00 L 45.00 548.00 L 45.00 550.00 L 45.00 552.00 L 45.00 554.00 L 45.00 556.00 L 45.00 558.00 L 45.00 560.00 L 44.00 561.00 L 43.00 562.00 L 43.00 564.00 L 43.00 566.00 L 43.00 568.00 L 43.00 570.00 L 43.00 572.00 L 43.00 574.00 L 43.00 576.00 L 43.00 578.00 L 42.00 579.00 L 41.00 580.00 L 41.00 582.00 L 41.00 584.00 L 41.00 586.00 L 41.00 588.00 L 41.00 590.00 L 41.00 592.00 L 41.00 594.00 L 41.00 596.00 L 40.00 597.00 L 39.00 598.00 L 39.00 600.00 L 39.00 602.00 L 39.00 604.00 L 39.00 606.00 L 39.00 608.00 L 39.00 610.00 L 39.00 612.00 L 39.00 614.00 L 39.00 616.00 L 38.00 617.00 L 37.00 618.00 L 37.00 620.00 L 37.00 622.00 L 37.00 624.00 L 37.00 626.00 L 37.00 628.00 L 37.00 630.00 L 37.00 632.00 L 37.00 634.00 L 37.00 636.00 L 36.00 637.00 L 35.00 638.00 L 35.00 640.00 L 35.00 642.00 L 35.00 644.00 L 35.00 646.00 L 35.00 648.00 L 35.00 650.00 L 35.00 652.00 L 35.00 654.00 L 35.00 656.00 L 34.00 657.00 L 33.00 658.00 L 33.00 660.00 L 33.00 662.00 L 33.00 664.00 L 33.00 666.00 L 33.00 668.00 L 33.00 670.00 L 33.00 672.00 L 33.00 674.00 L 33.00 676.00 L 33.00 678.00 L 33.00 680.00 L 32.00 681.00 L 31.00 682.00 L 31.00 684.00 L 31.00 686.00 L 31.00 688.00 L 31.00 690.00 L 31.00 692.00 L 31.00 694.00 L 31.00 696.00 L 31.00 698.00 L 31.00 700.00 L 31.00 702.00 L 31.00 704.00 L 30.00 705.00 L 29.00 706.00 L 29.00 708.00 L 29.00 710.00 L 29.00 712.00 L 29.00 714.00 L 29.00 716.00 L 29.00 718.00 L 29.00 720.00 L 29.00 722.00 L 29.00 724.00 L 29.00 726.00 L 29.00 728.00 L 29.00 730.00 L 29.00 732.00 L 29.00 734.00 L 28.00 735.00 L 27.00 736.00 L 27.00 738.00 L 27.00 740.00 L 27.00 742.00 L 27.00 744.00 L 27.00 746.00 L 27.00 748.00 L 27.00 750.00 L 27.00 752.00 L 27.00 754.00 L 27.00 756.00 L 28.00 757.00 L 29.00 758.00 L 30.00 759.00 L 32.00 759.00 L 34.00 759.00 L 36.00 759.00 L 38.00 759.00 L 40.00 759.00 L 41.00 758.00 L 42.00 757.00 L 44.00 757.00 L 46.00 757.00 L 47.00 756.00 L 48.00 755.00 L 50.00 755.00 L 52.00 755.00 L 53.00 754.00 L 54.00 753.00 L 56.00 753.00 L 57.00 752.00 L 58.00 751.00 L 60.00 751.00 L 62.00 751.00 L 63.00 750.00 L 64.00 749.00 L 66.00 749.00 L 68.00 749.00 L 69.00 748.00 L 70.00 747.00 L 72.00 747.00 L 74.00 747.00 L 75.00 746.00 L 76.00 745.00 L 78.00 745.00 L 79.00 744.00 L 80.00 743.00 L 82.00 743.00 L 84.00 743.00 L 85.00 742.00 L 86.00 741.00 L 88.00 741.00 L 90.00 741.00 L 91.00 740.00 L 92.00 739.00 L 94.00 739.00 L 95.00 738.00 L 96.00 737.00 L 98.00 737.00 L 100.00 737.00 L 101.00 736.00 L 102.00 735.00 L 104.00 735.00 L 105.00 734.00 L 106.00 733.00 L 108.00 733.00 L 110.00 733.00 L 111.00 732.00 L 112.00 731.00 L 114.00 731.00 L 115.00 730.00 L 116.00 729.00 L 118.00 729.00 L 120.00 729.00 L 121.00 728.00 L 122.00 727.00 L 124.00 727.00 L 126.00 727.00 L 127.00 726.00 L 128.00 725.00 L 130.00 725.00 L 131.00 724.00 L 132.00 723.00 L 134.00 723.00 L 135.00 722.00 L 136.00 721.00 L 138.00 721.00 L 140.00 721.00 L 141.00 720.00 L 142.00 719.00 L 144.00 719.00 L 146.00 719.00 L 147.00 718.00 L 148.00 717.00 L 150.00 717.00 L 151.00 716.00 L 152.00 715.00 L 154.00 715.00 L 156.00 715.00 L 157.00 714.00 L 158.00 713.00 L 160.00 713.00 L 161.00 712.00 L 162.00 711.00 L 164.00 711.00 L 166.00 711.00 L 167.00 710.00 L 168.00 709.00 L 170.00 709.00 L 171.00 708.00 L 172.00 707.00 L 174.00 707.00 L 176.00 707.00 L 177.00 706.00 L 178.00 705.00 L 180.00 705.00 L 181.00 704.00 L 182.00 703.00 L 184.00 703.00 L 186.00 703.00 L 187.00 702.00 L 188.00 701.00 L 190.00 701.00 L 191.00 700.00 L 192.00 699.00 L 194.00 699.00 L 196.00 699.00 L 197.00 698.00 L 198.00 697.00 L 200.00 697.00 L 201.00 696.00 L 202.00 695.00 L 204.00 695.00 L 206.00 695.00 L 207.00 694.00 L 208.00 693.00 L 210.00 693.00 L 211.00 692.00 L 212.00 691.00 L 214.00 691.00 L 216.00 691.00 L 217.00 690.00 L 218.00 689.00 L 220.00 689.00 L 222.00 689.00 L 223.00 688.00 L 224.00 687.00 L 226.00 687.00 L 227.00 686.00 L 228.00 685.00 L 230.00 685.00 L 232.00 685.00 L 233.00 684.00 L 234.00 683.00 L 236.00 683.00 L 237.00 682.00 L 238.00 681.00 L 240.00 681.00 L 242.00 681.00 L 243.00 680.00 L 244.00 679.00 L 246.00 679.00 L 247.00 678.00 L 248.00 677.00 L 250.00 677.00 L 252.00 677.00 L 253.00 676.00 L 254.00 675.00 L 256.00 675.00 L 257.00 674.00 L 258.00 673.00 L 260.00 673.00 L 262.00 673.00 L 263.00 672.00 L 264.00 671.00 L 266.00 671.00 L 268.00 671.00 L 269.00 670.00 L 270.00 669.00 L 272.00 669.00 L 274.00 669.00 L 275.00 668.00 L 276.00 667.00 L 278.00 667.00 L 279.00 666.00 L 280.00 665.00 L 282.00 665.00 L 284.00 665.00 L 285.00 664.00 L 286.00 663.00 L 288.00 663.00 L 289.00 662.00 L 290.00 661.00 L 292.00 661.00 L 294.00 661.00 L 295.00 660.00 L 296.00 659.00 L 298.00 659.00 L 300.00 659.00 L 301.00 658.00 L 302.00 657.00 L 304.00 657.00 L 305.00 656.00 L 306.00 655.00 L 308.00 655.00 L 310.00 655.00 L 311.00 654.00 L 312.00 653.00 L 314.00 653.00 L 316.00 653.00 L 317.00 652.00 L 318.00 651.00 L 320.00 651.00 L 321.00 650.00 L 322.00 649.00 L 324.00 649.00 L 326.00 649.00 L 327.00 648.00 L 328.00 647.00 L 330.00 647.00 L 332.00 647.00 L 333.00 646.00 L 334.00 645.00 L 336.00 645.00 L 338.00 645.00 L 339.00 644.00 L 340.00 643.00 L 342.00 643.00 L 344.00 643.00 L 345.00 642.00 L 346.00 641.00 L 348.00 641.00 L 350.00 641.00 L 351.00 640.00 L 352.00 639.00 L 354.00 639.00 L 356.00 639.00 L 357.00 638.00 L 358.00 637.00 L 360.00 637.00 L 362.00 637.00 L 363.00 636.00 L 364.00 635.00 L 366.00 635.00 L 368.00 635.00 L 369.00 634.00 L 370.00 633.00 L 372.00 633.00 L 374.00 633.00 L 375.00 632.00 L 376.00 631.00 L 378.00 631.00 L 380.00 631.00 L 381.00 630.00 L 382.00 629.00 L 384.00 629.00 L 386.00 629.00 L 387.00 628.00 L 388.00 627.00 L 390.00 627.00 L 392.00 627.00 L 394.00 627.00 L 395.00 626.00 L 396.00 625.00 L 398.00 625.00 L 400.00 625.00 L 401.00 624.00 L 402.00 623.00 L 404.00 623.00 L 406.00 623.00 L 408.00 623.00 L 409.00 622.00 L 410.00 621.00 L 412.00 621.00 L 414.00 621.00 L 415.00 620.00 L 416.00 619.00 L 418.00 619.00 L 420.00 619.00 L 422.00 619.00 L 423.00 618.00 L 424.00 617.00 L 426.00 617.00 L 428.00 617.00 L 429.00 616.00 L 430.00 615.00 L 432.00 615.00 L 434.00 615.00 L 436.00 615.00 L 438.00 615.00 L 439.00 614.00 L 440.00 613.00 L 442.00 613.00 L 444.00 613.00 L 446.00 613.00 L 447.00 612.00 L 448.00 611.00 L 450.00 611.00 L 452.00 611.00 L 454.00 611.00 L 455.00 610.00 L 456.00 609.00 L 458.00 609.00 L 460.00 609.00 L 462.00 609.00 L 463.00 608.00 L 464.00 607.00 L 466.00 607.00 L 468.00 607.00 L 470.00 607.00 L 472.00 607.00 L 473.00 606.00 L 474.00 605.00 L 476.00 605.00 L 478.00 605.00 L 480.00 605.00 L 482.00 605.00 L 483.00 604.00 L 484.00 603.00 L 486.00 603.00 L 488.00 603.00 L 490.00 603.00 L 492.00 603.00 L 494.00 603.00 L 495.00 602.00 L 496.00 601.00 L 498.00 601.00 L 500.00 601.00 L 502.00 601.00 L 504.00 601.00 L 506.00 601.00 L 507.00 600.00 L 508.00 599.00 L 510.00 599.00 L 512.00 599.00 L 514.00 599.00 L 516.00 599.00 L 518.00 599.00 L 520.00 599.00 L 522.00 599.00 L 523.00 598.00 L 524.00 597.00 L 526.00 597.00 L 528.00 597.00 L 530.00 597.00 L 532.00 597.00 L 534.00 597.00 L 536.00 597.00 L 538.00 597.00 L 539.00 596.00 L 540.00 595.00 L 542.00 595.00 L 544.00 595.00 L 546.00 595.00 L 548.00 595.00 L 550.00 595.00 L 552.00 595.00 L 554.00 595.00 L 556.00 595.00 L 558.00 595.00 L 560.00 595.00 L 561.00 594.00 L 562.00 593.00 L 564.00 593.00 L 566.00 593.00 L 568.00 593.00 L 570.00 593.00 L 572.00 593.00 L 574.00 593.00 L 576.00 593.00 L 578.00 593.00 L 580.00 593.00 L 582.00 593.00 L 584.00 593.00 L 586.00 593.00 L 588.00 593.00 L 590.00 593.00 L 592.00 593.00 L 594.00 593.00 L 596.00 593.00 L 598.00 593.00 L 600.00 593.00 L 602.00 593.00 L 604.00 593.00 L 606.00 593.00 L 608.00 593.00 L 610.00 593.00 L 612.00 593.00 L 614.00 593.00 L 616.00 593.00 L 618.00 593.00 L 619.00 594.00 L 620.00 595.00 L 622.00 595.00 L 624.00 595.00 L 626.00 595.00 L 628.00 595.00 L 630.00 595.00 L 632.00 595.00 L 634.00 595.00 L 636.00 595.00 L 637.00 596.00 L 638.00 597.00 L 640.00 597.00 L 642.00 597.00 L 644.00 597.00 L 646.00 597.00 L 648.00 597.00 L 649.00 598.00 L 650.00 599.00 L 652.00 599.00 L 654.00 599.00 L 656.00 599.00 L 658.00 599.00 L 659.00 600.00 L 660.00 601.00 L 662.00 601.00 L 664.00 601.00 L 666.00 601.00 L 668.00 601.00 L 669.00 602.00 L 670.00 603.00 L 672.00 603.00 L 674.00 603.00 L 675.00 604.00 L 676.00 605.00 L 678.00 605.00 L 680.00 605.00 L 682.00 605.00 L 683.00 606.00 L 684.00 607.00 L 686.00 607.00 L 688.00 607.00 L 689.00 608.00 L 690.00 609.00 L 692.00 609.00 L 694.00 609.00 L 695.00 610.00 L 696.00 611.00 L 698.00 611.00 L 699.00 612.00 L 700.00 613.00 L 702.00 613.00 L 703.00 614.00 L 704.00 615.00 L 705.00 616.00 L 706.00 617.00 L 708.00 617.00 L 709.00 618.00 L 710.00 619.00 L 712.00 619.00 L 713.00 620.00 L 714.00 621.00 L 715.00 622.00 L 716.00 623.00 L 718.00 623.00 L 719.00 624.00 L 720.00 625.00 L 721.00 626.00 L 722.00 627.00 L 724.00 627.00 L 725.00 628.00 L 726.00 629.00 L 727.00 630.00 L 728.00 631.00 L 730.00 631.00 L 731.00 632.00 L 732.00 633.00 L 733.00 634.00 L 734.00 635.00 L 736.00 635.00 L 737.00 636.00 L 738.00 637.00 L 739.00 638.00 L 740.00 639.00 L 741.00 640.00 L 742.00 641.00 L 744.00 641.00 L 745.00 642.00 L 746.00 643.00 L 747.00 644.00 L 748.00 645.00 L 750.00 645.00 L 751.00 646.00 L 752.00 647.00 L 753.00 648.00 L 754.00 649.00 L 756.00 649.00 L 757.00 650.00 L 758.00 651.00 L 759.00 652.00 L 760.00 653.00 L 761.00 654.00 L 762.00 655.00 L 764.00 655.00 L 765.00 656.00 L 766.00 657.00 L 767.00 658.00 L 768.00 659.00 L 770.00 659.00 L 771.00 660.00 L 772.00 661.00 L 773.00 662.00 L 774.00 663.00 L 775.00 664.00 L 776.00 665.00 L 778.00 665.00 L 779.00 666.00 L 780.00 667.00 L 781.00 668.00 L 782.00 669.00 L 784.00 669.00 L 785.00 670.00 L 786.00 671.00 L 787.00 672.00 L 788.00 673.00 L 789.00 674.00 L 790.00 675.00 L 792.00 675.00 L 793.00 676.00 L 794.00 677.00 L 795.00 678.00 L 796.00 679.00 L 797.00 680.00 L 798.00 681.00 L 800.00 681.00 L 801.00 682.00 L 802.00 683.00 L 803.00 684.00 L 804.00 685.00 L 806.00 685.00 L 807.00 686.00 L 808.00 687.00 L 809.00 688.00 L 810.00 689.00 L 811.00 690.00 L 812.00 691.00 L 814.00 691.00 L 815.00 692.00 L 816.00 693.00 L 817.00 694.00 L 818.00 695.00 L 820.00 695.00 L 821.00 696.00 L 822.00 697.00 L 823.00 698.00 L 824.00 699.00 L 826.00 699.00 L 827.00 700.00 L 828.00 701.00 L 829.00 702.00 L 830.00 703.00 L 831.00 704.00 L 832.00 705.00 L 834.00 705.00 L 835.00 706.00 L 836.00 707.00 L 837.00 708.00 L 838.00 709.00 L 839.00 710.00 L 840.00 711.00 L 842.00 711.00 L 843.00 712.00 L 844.00 713.00 L 845.00 714.00 L 846.00 715.00 L 848.00 715.00 L 849.00 716.00 L 850.00 717.00 L 851.00 718.00 L 852.00 719.00 L 854.00 719.00 L 855.00 720.00 L 856.00 721.00 L 857.00 722.00 L 858.00 723.00 L 860.00 723.00 L 861.00 724.00 L 862.00 725.00 L 863.00 726.00 L 864.00 727.00 L 866.00 727.00 L 867.00 728.00 L 868.00 729.00 L 870.00 729.00 L 871.00 730.00 L 872.00 731.00 L 874.00 731.00 L 875.00 732.00 L 876.00 733.00 L 878.00 733.00 L 879.00 734.00 L 880.00 735.00 L 882.00 735.00 L 884.00 735.00 L 885.00 736.00 L 886.00 737.00 L 888.00 737.00 L 889.00 738.00 L 890.00 739.00 L 892.00 739.00 L 893.00 740.00 L 894.00 741.00 L 896.00 741.00 L 898.00 741.00 L 899.00 742.00 L 900.00 743.00 L 902.00 743.00 L 904.00 743.00 L 906.00 743.00 L 908.00 743.00 L 909.00 744.00 L 910.00 745.00 L 912.00 745.00 L 913.00 744.00 L 914.00 743.00 L 916.00 743.00 L 918.00 743.00 L 920.00 743.00 L 921.00 742.00 L 922.00 741.00 L 923.00 740.00 L 924.00 739.00 L 925.00 738.00 L 926.00 737.00 L 927.00 736.00 L 928.00 735.00 L 929.00 734.00 L 930.00 733.00 L 931.00 732.00 L 932.00 731.00 L 933.00 730.00 L 934.00 729.00 L 935.00 728.00 L 935.00 726.00 L 936.00 725.00 L 937.00 724.00 L 937.00 722.00 L 938.00 721.00 L 939.00 720.00 L 939.00 718.00 L 940.00 717.00 L 941.00 716.00 L 941.00 714.00 L 942.00 713.00 L 943.00 712.00 L 943.00 710.00 L 944.00 709.00 L 945.00 708.00 L 945.00 706.00 L 945.00 704.00 L 946.00 703.00 L 947.00 702.00 L 947.00 700.00 L 947.00 698.00 L 948.00 697.00 L 949.00 696.00 L 949.00 694.00 L 949.00 692.00 L 950.00 691.00 L 951.00 690.00 L 951.00 688.00 L 951.00 686.00 L 952.00 685.00 L 953.00 684.00 L 953.00 682.00 L 953.00 680.00 L 953.00 678.00 L 954.00 677.00 L 955.00 676.00 L 955.00 674.00 L 955.00 672.00 L 955.00 670.00 L 956.00 669.00 L 957.00 668.00 L 957.00 666.00 L 957.00 664.00 L 957.00 662.00 L 958.00 661.00 L 959.00 660.00 L 959.00 658.00 L 959.00 656.00 L 959.00 654.00 L 959.00 652.00 L 960.00 651.00 L 961.00 650.00 L 961.00 648.00 L 961.00 646.00 L 961.00 644.00 L 961.00 642.00 L 962.00 641.00 L 963.00 640.00 L 963.00 638.00 L 963.00 636.00 L 963.00 634.00 L 963.00 632.00 L 964.00 631.00 L 965.00 630.00 L 965.00 628.00 L 965.00 626.00 L 965.00 624.00 L 965.00 622.00 L 965.00 620.00 L 965.00 618.00 L 966.00 617.00 L 967.00 616.00 L 967.00 614.00 L 967.00 612.00 L 967.00 610.00 L 967.00 608.00 L 967.00 606.00 L 968.00 605.00 L 969.00 604.00 L 969.00 602.00 L 969.00 600.00 L 969.00 598.00 L 969.00 596.00 L 969.00 594.00 L 969.00 592.00 L 970.00 591.00 L 971.00 590.00 L 971.00 588.00 L 971.00 586.00 L 971.00 584.00 L 971.00 582.00 L 971.00 580.00 L 971.00 578.00 L 972.00 577.00 L 973.00 576.00 L 973.00 574.00 L 973.00 572.00 L 973.00 570.00 L 973.00 568.00 L 973.00 566.00 L 973.00 564.00 L 973.00 562.00 L 974.00 561.00 L 975.00 560.00 L 975.00 558.00 L 975.00 556.00 L 975.00 554.00 L 975.00 552.00 L 975.00 550.00 L 975.00 548.00 L 975.00 546.00 L 975.00 544.00 L 976.00 543.00 L 977.00 542.00 L 977.00 540.00 L 977.00 538.00 L 977.00 536.00 L 977.00 534.00 L 977.00 532.00 L 977.00 530.00 L 977.00 528.00 L 977.00 526.00 L 977.00 524.00 L 978.00 523.00 L 979.00 522.00 L 979.00 520.00 L 979.00 518.00 L 979.00 516.00 L 979.00 514.00 L 979.00 512.00 L 979.00 510.00 L 979.00 508.00 L 979.00 506.00 L 979.00 504.00 L 980.00 503.00 L 981.00 502.00 L 981.00 500.00 L 981.00 498.00 L 981.00 496.00 L 981.00 494.00 L 981.00 492.00 L 981.00 490.00 L 981.00 488.00 L 981.00 486.00 L 981.00 484.00 L 981.00 482.00 L 982.00 481.00 L 983.00 480.00 L 983.00 478.00 L 983.00 476.00 L 983.00 474.00 L 983.00 472.00 L 983.00 470.00 L 983.00 468.00 L 983.00 466.00 L 983.00 464.00 L 983.00 462.00 L 983.00 460.00 L 983.00 458.00 L 984.00 457.00 L 985.00 456.00 L 985.00 454.00 L 985.00 452.00 L 985.00 450.00 L 985.00 448.00 L 985.00 446.00 L 985.00 444.00 L 985.00 442.00 L 985.00 440.00 L 985.00 438.00 L 985.00 436.00 L 985.00 434.00 L 985.00 432.00 L 985.00 430.00 L 986.00 429.00 L 987.00 428.00 L 987.00 426.00 L 987.00 424.00 L 987.00 422.00 L 987.00 420.00 L 987.00 418.00 L 987.00 416.00 L 987.00 414.00 L 987.00 412.00 L 987.00 410.00 L 987.00 408.00 L 987.00 406.00 L 987.00 404.00 L 987.00 402.00 L 987.00 400.00 L 988.00 399.00 L 989.00 398.00 L 989.00 396.00 L 989.00 394.00 L 989.00 392.00 L 989.00 390.00 L 989.00 388.00 L 989.00 386.00 L 989.00 384.00 L 989.00 382.00 L 989.00 380.00 L 989.00 378.00 L 989.00 376.00 L 989.00 374.00 L 989.00 372.00 L 989.00 370.00 L 989.00 368.00 L 989.00 366.00 L 990.00 365.00 L 991.00 364.00 L 991.00 362.00 L 991.00 360.00 L 991.00 358.00 L 991.00 356.00 L 991.00 354.00 L 991.00 352.00 L 991.00 350.00 L 991.00 348.00 L 991.00 346.00 L 991.00 344.00 L 991.00 342.00 L 991.00 340.00 L 991.00 338.00 L 991.00 336.00 L 991.00 334.00 L 991.00 332.00 L 991.00 330.00 L 991.00 328.00 L 991.00 326.00 L 992.00 325.00 L 993.00 324.00 L 993.00 322.00 L 993.00 320.00 L 993.00 318.00 L 993.00 316.00 L 993.00 314.00 L 993.00 312.00 L 993.00 310.00 L 993.00 308.00 L 993.00 306.00 L 993.00 304.00 L 993.00 302.00 L 993.00 300.00 L 993.00 298.00 L 993.00 296.00 L 993.00 294.00 L 993.00 292.00 L 993.00 290.00 L 993.00 288.00 L 993.00 286.00 L 993.00 284.00 L 993.00 282.00 L 993.00 280.00 L 993.00 278.00 L 993.00 276.00 L 993.00 274.00 L 993.00 272.00 L 993.00 270.00 L 993.00 268.00 L 993.00 266.00 L 994.00 265.00 L 995.00 264.00 L 995.00 262.00 L 995.00 260.00 L 995.00 258.00 L 995.00 256.00 L 995.00 254.00 L 995.00 252.00 L 995.00 250.00 L 995.00 248.00 L 995.00 246.00 L 994.00 245.00 L 993.00 244.00 L 992.00 243.00 L 990.00 243.00 L 989.00 242.00 L 988.00 241.00 L 986.00 241.00 L 985.00 240.00 L 984.00 239.00 L 982.00 239.00 L 981.00 240.00 L 980.00 241.00 L 978.00 241.00 L 976.00 241.00 L 975.00 242.00 L 974.00 243.00 L 972.00 243.00 L 970.00 243.00 L 969.00 244.00 L 968.00 245.00 L 966.00 245.00 L 965.00 246.00 L 964.00 247.00 L 962.00 247.00 L 960.00 247.00 L 959.00 248.00 L 958.00 249.00 L 956.00 249.00 L 955.00 250.00 L 954.00 251.00 L 952.00 251.00 L 951.00 252.00 L 950.00 253.00 L 948.00 253.00 L 946.00 253.00 L 945.00 254.00 L 944.00 255.00 L 942.00 255.00 L 941.00 256.00 L 940.00 257.00 L 938.00 257.00 L 937.00 258.00 L 936.00 259.00 L 934.00 259.00 L 933.00 260.00 L 932.00 261.00 L 930.00 261.00 L 928.00 261.00 L 927.00 262.00 L 926.00 263.00 L 924.00 263.00 L 923.00 264.00 L 922.00 265.00 L 920.00 265.00 L 919.00 266.00 L 918.00 267.00 L 916.00 267.00 L 915.00 268.00 L 914.00 269.00 L 912.00 269.00 L 911.00 270.00 L 910.00 271.00 L 908.00 271.00 L 906.00 271.00 L 905.00 272.00 L 904.00 273.00 L 902.00 273.00 L 901.00 274.00 L 900.00 275.00 L 898.00 275.00 L 897.00 276.00 L 896.00 277.00 L 894.00 277.00 L 893.00 278.00 L 892.00 279.00 L 890.00 279.00 L 888.00 279.00 L 887.00 280.00 L 886.00 281.00 L 884.00 281.00 L 883.00 282.00 L 882.00 283.00 L 880.00 283.00 L 879.00 284.00 L 878.00 285.00 L 876.00 285.00 L 875.00 286.00 L 874.00 287.00 L 872.00 287.00 L 871.00 288.00 L 870.00 289.00 L 868.00 289.00 L 866.00 289.00 L 865.00 290.00 L 864.00 291.00 L 862.00 291.00 L 861.00 292.00 L 860.00 293.00 L 858.00 293.00 L 857.00 294.00 L 856.00 295.00 L 854.00 295.00 L 853.00 296.00 L 854.00 297.00 L 856.00 297.00 L 858.00 297.00 L 859.00 296.00 L 860.00 295.00 L 862.00 295.00 L 863.00 294.00 L 864.00 293.00 L 866.00 293.00 L 867.00 292.00 L 868.00 291.00 L 870.00 291.00 L 872.00 291.00 L 873.00 290.00 L 874.00 289.00 L 876.00 289.00 L 877.00 288.00 L 878.00 287.00 L 880.00 287.00 L 881.00 286.00 L 882.00 285.00 L 884.00 285.00 L 886.00 285.00 L 887.00 284.00 L 888.00 283.00 L 890.00 283.00 L 891.00 282.00 L 892.00 281.00 L 894.00 281.00 L 895.00 280.00 L 896.00 279.00 L 898.00 279.00 L 900.00 279.00 L 901.00 278.00 L 902.00 277.00 L 904.00 277.00 L 905.00 276.00 L 906.00 275.00 L 908.00 275.00 L 909.00 274.00 L 910.00 273.00 L 912.00 273.00 L 913.00 272.00 L 914.00 271.00 L 916.00 271.00 L 918.00 271.00 L 919.00 270.00 L 920.00 269.00 L 922.00 269.00 L 923.00 268.00 L 924.00 267.00 L 926.00 267.00 L 927.00 266.00 L 928.00 265.00 L 930.00 265.00 L 931.00 264.00 L 932.00 263.00 L 934.00 263.00 L 936.00 263.00 L 937.00 262.00 L 938.00 261.00 L 940.00 261.00 L 941.00 260.00 L 942.00 259.00 L 944.00 259.00 L 945.00 258.00 L 946.00 257.00 L 948.00 257.00 L 950.00 257.00 L 951.00 256.00 L 952.00 255.00 L 954.00 255.00 L 955.00 254.00 L 956.00 253.00 L 958.00 253.00 L 959.00 252.00 L 960.00 251.00 L 962.00 251.00 L 963.00 250.00 L 964.00 249.00 L 966.00 249.00 L 968.00 249.00 L 969.00 248.00 L 970.00 247.00 L 972.00 247.00 L 974.00 247.00 L 976.00 247.00 L 978.00 247.00 L 980.00 247.00 L 981.00 248.00 L 982.00 249.00 L 983.00 250.00 L 983.00 252.00 L 983.00 254.00 L 983.00 256.00 L 983.00 258.00 L 983.00 260.00 L 983.00 262.00 L 983.00 264.00 L 983.00 266.00 L 983.00 268.00 L 983.00 270.00 L 983.00 272.00 L 983.00 274.00 L 983.00 276.00 L 983.00 278.00 L 983.00 280.00 L 983.00 282.00 L 983.00 284.00 L 983.00 286.00 L 983.00 288.00 L 983.00 290.00 L 983.00 292.00 L 983.00 294.00 L 983.00 296.00 L 983.00 298.00 L 983.00 300.00 L 983.00 302.00 L 983.00 304.00 L 983.00 306.00 L 983.00 308.00 L 983.00 310.00 L 983.00 312.00 L 983.00 314.00 L 983.00 316.00 L 983.00 318.00 L 983.00 320.00 L 983.00 322.00 L 983.00 324.00 L 983.00 326.00 L 983.00 328.00 L 983.00 330.00 L 983.00 332.00 L 982.00 333.00 L 981.00 334.00 L 981.00 336.00 L 981.00 338.00 L 981.00 340.00 L 981.00 342.00 L 981.00 344.00 L 981.00 346.00 L 981.00 348.00 L 981.00 350.00 L 981.00 352.00 L 981.00 354.00 L 981.00 356.00 L 981.00 358.00 L 981.00 360.00 L 981.00 362.00 L 981.00 364.00 L 981.00 366.00 L 981.00 368.00 L 981.00 370.00 L 980.00 371.00 L 979.00 372.00 L 979.00 374.00 L 979.00 376.00 L 979.00 378.00 L 979.00 380.00 L 979.00 382.00 L 979.00 384.00 L 979.00 386.00 L 979.00 388.00 L 979.00 390.00 L 979.00 392.00 L 979.00 394.00 L 979.00 396.00 L 979.00 398.00 L 979.00 400.00 L 978.00 401.00 L 977.00 402.00 L 977.00 404.00 L 977.00 406.00 L 977.00 408.00 L 977.00 410.00 L 977.00 412.00 L 977.00 414.00 L 977.00 416.00 L 977.00 418.00 L 977.00 420.00 L 977.00 422.00 L 977.00 424.00 L 977.00 426.00 L 977.00 428.00 L 976.00 429.00 L 975.00 430.00 L 975.00 432.00 L 975.00 434.00 L 975.00 436.00 L 975.00 438.00 L 975.00 440.00 L 975.00 442.00 L 975.00 444.00 L 975.00 446.00 L 975.00 448.00 L 975.00 450.00 L 975.00 452.00 L 975.00 454.00 L 975.00 456.00 L 974.00 457.00 L 973.00 458.00 L 973.00 460.00 L 973.00 462.00 L 973.00 464.00 L 973.00 466.00 L 973.00 468.00 L 973.00 470.00 L 973.00 472.00 L 973.00 474.00 L 973.00 476.00 L 972.00 477.00 L 971.00 478.00 L 971.00 480.00 L 971.00 482.00 L 971.00 484.00 L 971.00 486.00 L 971.00 488.00 L 971.00 490.00 L 971.00 492.00 L 971.00 494.00 L 971.00 496.00 L 971.00 498.00 L 970.00 499.00 L 969.00 500.00 L 969.00 502.00 L 969.00 504.00 L 969.00 506.00 L 969.00 508.00 L 969.00 510.00 L 969.00 512.00 L 969.00 514.00 L 969.00 516.00 L 969.00 518.00 L 968.00 519.00 L 967.00 520.00 L 967.00 522.00 L 967.00 524.00 L 967.00 526.00 L 967.00 528.00 L 967.00 530.00 L 967.00 532.00 L 967.00 534.00 L 967.00 536.00 L 966.00 537.00 L 965.00 538.00 L 965.00 540.00 L 965.00 542.00 L 965.00 544.00 L 965.00 546.00 L 965.00 548.00 L 965.00 550.00 L 965.00 552.00 L 964.00 553.00 L 963.00 554.00 L 963.00 556.00 L 963.00 558.00 L 963.00 560.00 L 963.00 562.00 L 963.00 564.00 L 963.00 566.00 L 962.00 567.00 L 961.00 568.00 L 961.00 570.00 L 961.00 572.00 L 961.00 574.00 L 961.00 576.00 L 961.00 578.00 L 960.00 579.00 L 959.00 580.00 L 959.00 582.00 L 959.00 584.00 L 959.00 586.00 L 959.00 588.00 L 959.00 590.00 L 959.00 592.00 L 958.00 593.00 L 957.00 594.00 L 957.00 596.00 L 957.00 598.00 L 957.00 600.00 L 957.00 602.00 L 957.00 604.00 L 956.00 605.00 L 955.00 606.00 L 955.00 608.00 L 955.00 610.00 L 955.00 612.00 L 955.00 614.00 L 954.00 615.00 L 953.00 616.00 L 953.00 618.00 L 953.00 620.00 L 953.00 622.00 L 953.00 624.00 L 953.00 626.00 L 952.00 627.00 L 951.00 628.00 L 951.00 630.00 L 951.00 632.00 L 951.00 634.00 L 951.00 636.00 L 950.00 637.00 L 949.00 638.00 L 949.00 640.00 L 949.00 642.00 L 949.00 644.00 L 949.00 646.00 L 948.00 647.00 L 947.00 648.00 L 947.00 650.00 L 947.00 652.00 L 947.00 654.00 L 946.00 655.00 L 945.00 656.00 L 945.00 658.00 L 945.00 660.00 L 945.00 662.00 L 944.00 663.00 L 943.00 664.00 L 943.00 666.00 L 943.00 668.00 L 943.00 670.00 L 942.00 671.00 L 941.00 672.00 L 941.00 674.00 L 941.00 676.00 L 940.00 677.00 L 939.00 678.00 L 939.00 680.00 L 939.00 682.00 L 938.00 683.00 L 937.00 684.00 L 937.00 686.00 L 937.00 688.00 L 936.00 689.00 L 935.00 690.00 L 935.00 692.00 L 935.00 694.00 L 934.00 695.00 L 933.00 696.00 L 933.00 698.00 L 933.00 700.00 L 932.00 701.00 L 931.00 702.00 L 932.00 703.00 L 933.00 704.00 L 933.00 706.00 L 933.00 708.00 L 933.00 710.00 L 932.00 711.00 L 931.00 712.00 L 931.00 714.00 L 931.00 716.00 L 930.00 717.00 L 929.00 718.00 L 928.00 719.00 L 927.00 720.00 L 926.00 721.00 L 925.00 722.00 L 925.00 724.00 L 924.00 725.00 L 923.00 726.00 L 922.00 727.00 L 921.00 728.00 L 920.00 729.00 L 919.00 730.00 L 918.00 731.00 L 916.00 731.00 L 915.00 732.00 L 914.00 733.00 L 912.00 733.00 L 910.00 733.00 L 908.00 733.00 L 906.00 733.00 L 905.00 732.00 L 904.00 731.00 L 902.00 731.00 L 900.00 731.00 L 899.00 730.00 L 898.00 729.00 L 896.00 729.00 L 894.00 729.00 L 893.00 728.00 L 892.00 727.00 L 890.00 727.00 L 889.00 726.00 L 888.00 725.00 L 886.00 725.00 L 885.00 724.00 L 884.00 723.00 L 882.00 723.00 L 881.00 722.00 L 880.00 721.00 L 879.00 720.00 L 878.00 719.00 L 876.00 719.00 L 875.00 718.00 L 874.00 717.00 L 872.00 717.00 L 871.00 716.00 L 870.00 715.00 L 869.00 714.00 L 868.00 713.00 L 867.00 712.00 L 867.00 710.00 L 868.00 709.00 L 869.00 708.00 L 868.00 707.00 L 866.00 707.00 L 865.00 706.00 L 864.00 705.00 L 863.00 704.00 L 862.00 703.00 L 860.00 703.00 L 859.00 702.00 L 858.00 701.00 L 857.00 700.00 L 856.00 699.00 L 854.00 699.00 L 853.00 698.00 L 852.00 697.00 L 851.00 696.00 L 850.00 695.00 L 849.00 694.00 L 848.00 693.00 L 846.00 693.00 L 845.00 692.00 L 844.00 691.00 L 843.00 690.00 L 842.00 689.00 L 841.00 688.00 L 840.00 687.00 L 838.00 687.00 L 837.00 686.00 L 836.00 685.00 L 835.00 684.00 L 834.00 683.00 L 832.00 683.00 L 831.00 682.00 L 830.00 681.00 L 829.00 680.00 L 828.00 679.00 L 827.00 678.00 L 826.00 677.00 L 825.00 676.00 L 824.00 675.00 L 822.00 675.00 L 821.00 674.00 L 820.00 673.00 L 819.00 672.00 L 818.00 671.00 L 817.00 670.00 L 817.00 668.00 L 818.00 667.00 L 819.00 666.00 L 818.00 665.00 L 816.00 665.00 L 815.00 664.00 L 815.00 662.00 L 814.00 661.00 L 813.00 660.00 L 812.00 659.00 L 810.00 659.00 L 809.00 658.00 L 808.00 657.00 L 807.00 656.00 L 806.00 655.00 L 804.00 655.00 L 803.00 654.00 L 802.00 653.00 L 801.00 652.00 L 800.00 651.00 L 798.00 651.00 L 797.00 650.00 L 796.00 649.00 L 795.00 648.00 L 794.00 647.00 L 793.00 646.00 L 792.00 645.00 L 790.00 645.00 L 789.00 644.00 L 788.00 643.00 L 787.00 642.00 L 786.00 641.00 L 785.00 640.00 L 784.00 639.00 L 782.00 639.00 L 781.00 638.00 L 780.00 637.00 L 778.00 637.00 L 777.00 636.00 L 776.00 635.00 L 775.00 634.00 L 774.00 633.00 L 772.00 633.00 L 771.00 632.00 L 770.00 631.00 L 769.00 630.00 L 768.00 629.00 L 767.00 628.00 L 766.00 627.00 L 764.00 627.00 L 763.00 626.00 L 762.00 625.00 L 761.00 624.00 L 760.00 623.00 L 758.00 623.00 L 757.00 622.00 L 756.00 621.00 L 755.00 620.00 L 754.00 619.00 L 752.00 619.00 L 751.00 618.00 L 750.00 617.00 L 748.00 617.00 L 747.00 616.00 L 746.00 615.00 L 745.00 614.00 L 744.00 613.00 L 743.00 612.00 L 742.00 611.00 L 740.00 611.00 L 739.00 610.00 L 738.00 609.00 L 737.00 608.00 L 736.00 607.00 L 734.00 607.00 L 733.00 606.00 L 732.00 605.00 L 731.00 604.00 L 730.00 603.00 L 728.00 603.00 L 727.00 602.00 L 726.00 601.00 L 725.00 600.00 L 724.00 599.00 L 723.00 598.00 L 722.00 597.00 L 720.00 597.00 L 719.00 596.00 L 718.00 595.00 L 717.00 594.00 L 716.00 593.00 L 715.00 592.00 L 714.00 591.00 L 712.00 591.00 L 711.00 590.00 L 710.00 589.00 L 709.00 588.00 L 708.00 587.00 L 707.00 586.00 L 706.00 585.00 L 704.00 585.00 L 703.00 584.00 L 702.00 583.00 L 701.00 582.00 L 700.00 581.00 L 699.00 580.00 L 698.00 579.00 L 696.00 579.00 L 695.00 578.00 L 694.00 577.00 L 693.00 576.00 L 692.00 575.00 L 691.00 574.00 L 690.00 573.00 L 688.00 573.00 L 687.00 572.00 L 686.00 571.00 L 685.00 570.00 L 684.00 569.00 L 683.00 568.00 L 682.00 567.00 L 680.00 567.00 L 679.00 566.00 L 678.00 565.00 L 677.00 564.00 L 676.00 563.00 L 675.00 562.00 L 674.00 561.00 L 672.00 561.00 L 671.00 560.00 L 670.00 559.00 L 669.00 558.00 L 668.00 557.00 L 667.00 556.00 L 666.00 555.00 L 665.00 554.00 L 664.00 553.00 L 662.00 553.00 L 661.00 552.00 L 660.00 551.00 L 659.00 550.00 L 658.00 549.00 L 657.00 548.00 L 656.00 547.00 L 654.00 547.00 L 653.00 546.00 L 652.00 545.00 L 651.00 544.00 L 650.00 543.00 L 649.00 542.00 L 648.00 541.00 L 647.00 540.00 L 646.00 539.00 L 644.00 539.00 L 643.00 538.00 L 642.00 537.00 L 641.00 536.00 L 640.00 535.00 L 639.00 534.00 L 638.00 533.00 L 636.00 533.00 L 635.00 532.00 L 634.00 531.00 L 633.00 530.00 L 632.00 529.00 L 631.00 528.00 L 630.00 527.00 L 628.00 527.00 L 627.00 526.00 L 626.00 525.00 L 625.00 524.00 L 624.00 523.00 L 623.00 522.00 L 622.00 521.00 L 621.00 520.00 L 620.00 519.00 L 618.00 519.00 L 617.00 518.00 L 616.00 517.00 L 615.00 516.00 L 614.00 515.00 L 613.00 514.00 L 612.00 513.00 L 610.00 513.00 L 609.00 512.00 L 608.00 511.00 L 607.00 510.00 L 606.00 509.00 L 605.00 508.00 L 604.00 507.00 L 602.00 507.00 L 601.00 506.00 L 600.00 505.00 L 599.00 504.00 L 598.00 503.00 L 597.00 502.00 L 596.00 501.00 L 595.00 500.00 L 594.00 499.00 L 592.00 499.00 L 591.00 498.00 L 590.00 497.00 L 589.00 496.00 L 588.00 495.00 L 587.00 494.00 L 586.00 493.00 L 584.00 493.00 L 583.00 492.00 L 582.00 491.00 L 581.00 490.00 L 580.00 489.00 L 579.00 488.00 L 578.00 487.00 L 577.00 486.00 L 576.00 485.00 L 574.00 485.00 L 573.00 484.00 L 572.00 483.00 L 571.00 482.00 L 570.00 481.00 L 569.00 480.00 L 568.00 479.00 L 566.00 479.00 L 565.00 478.00 L 564.00 477.00 L 563.00 476.00 L 562.00 475.00 L 561.00 474.00 L 560.00 473.00 L 558.00 473.00 L 557.00 472.00 L 556.00 471.00 L 555.00 470.00 L 554.00 469.00 L 553.00 468.00 L 552.00 467.00 L 551.00 466.00 L 550.00 465.00 L 548.00 465.00 L 547.00 464.00 L 546.00 463.00 L 545.00 462.00 L 544.00 461.00 L 543.00 460.00 L 542.00 459.00 L 540.00 459.00 L 539.00 458.00 L 538.00 457.00 L 537.00 456.00 L 536.00 455.00 L 535.00 454.00 L 534.00 453.00 L 532.00 453.00 L 531.00 452.00 L 530.00 451.00 L 529.00 450.00 L 528.00 449.00 L 527.00 448.00 L 526.00 447.00 L 524.00 447.00 L 523.00 446.00 L 522.00 445.00 L 521.00 444.00 L 520.00 443.00 L 519.00 442.00 L 518.00 441.00 L 516.00 441.00 L 515.00 440.00 L 514.00 439.00 L 513.00 438.00 L 512.00 437.00 L 511.00 436.00 L 510.00 435.00 L 509.00 434.00 L 508.00 433.00 L 506.00 433.00 L 505.00 432.00 L 504.00 431.00 L 503.00 430.00 L 502.00 429.00 L 501.00 428.00 L 500.00 427.00 L 498.00 427.00 L 497.00 426.00 L 496.00 425.00 L 495.00 424.00 L 494.00 423.00 L 493.00 422.00 L 492.00 421.00 L 490.00 421.00 L 489.00 420.00 L 488.00 419.00 L 487.00 418.00 L 486.00 417.00 L 485.00 416.00 L 484.00 415.00 L 482.00 415.00 L 481.00 414.00 L 480.00 413.00 L 479.00 412.00 L 478.00 411.00 L 477.00 410.00 L 476.00 409.00 L 474.00 409.00 L 473.00 408.00 L 472.00 407.00 L 471.00 406.00 L 470.00 405.00 L 469.00 404.00 L 468.00 403.00 L 467.00 402.00 L 466.00 401.00 L 464.00 401.00 L 463.00 400.00 L 462.00 399.00 L 461.00 398.00 L 460.00 397.00 L 459.00 396.00 L 458.00 395.00 L 456.00 395.00 L 455.00 394.00 L 454.00 393.00 L 453.00 392.00 L 452.00 391.00 L 451.00 390.00 L 450.00 389.00 L 448.00 389.00 L 447.00 388.00 L 446.00 387.00 L 445.00 386.00 L 444.00 385.00 L 443.00 384.00 L 442.00 383.00 L 440.00 383.00 L 439.00 382.00 L 438.00 381.00 L 437.00 380.00 L 436.00 379.00 L 435.00 378.00 L 434.00 377.00 L 432.00 377.00 L 431.00 376.00 L 430.00 375.00 L 429.00 374.00 L 428.00 373.00 L 427.00 372.00 L 426.00 371.00 L 424.00 371.00 L 423.00 370.00 L 422.00 369.00 L 421.00 368.00 L 420.00 367.00 L 419.00 366.00 L 418.00 365.00 L 416.00 365.00 L 415.00 364.00 L 414.00 363.00 L 413.00 362.00 L 412.00 361.00 L 411.00 360.00 L 410.00 359.00 L 408.00 359.00 L 407.00 358.00 L 406.00 357.00 L 405.00 356.00 L 404.00 355.00 L 403.00 354.00 L 402.00 353.00 L 400.00 353.00 L 399.00 352.00 L 398.00 351.00 L 397.00 350.00 L 396.00 349.00 L 394.00 349.00 L 393.00 348.00 L 392.00 347.00 L 391.00 346.00 L 390.00 345.00 L 389.00 344.00 L 388.00 343.00 L 386.00 343.00 L 385.00 342.00 L 384.00 341.00 L 383.00 340.00 L 382.00 339.00 L 381.00 338.00 L 380.00 337.00 L 378.00 337.00 L 377.00 336.00 L 376.00 335.00 L 375.00 334.00 L 374.00 333.00 L 372.00 333.00 L 371.00 332.00 L 370.00 331.00 L 369.00 330.00 L 368.00 329.00 L 367.00 328.00 L 366.00 327.00 L 364.00 327.00 L 363.00 326.00 L 362.00 325.00 L 361.00 324.00 L 360.00 323.00 L 358.00 323.00 L 357.00 322.00 L 356.00 321.00 L 355.00 320.00 L 354.00 319.00 L 353.00 318.00 L 352.00 317.00 L 350.00 317.00 L 349.00 316.00 L 348.00 315.00 L 347.00 314.00 L 346.00 313.00 L 344.00 313.00 L 343.00 312.00 L 342.00 311.00 L 341.00 310.00 L 340.00 309.00 L 338.00 309.00 L 337.00 308.00 L 336.00 307.00 L 335.00 306.00 L 334.00 305.00 L 332.00 305.00 L 331.00 304.00 L 330.00 303.00 L 329.00 302.00 L 328.00 301.00 L 326.00 301.00 L 325.00 300.00 L 324.00 299.00 L 323.00 298.00 L 322.00 297.00 L 321.00 296.00 L 320.00 295.00 L 318.00 295.00 L 317.00 294.00 L 316.00 293.00 L 315.00 292.00 L 314.00 291.00 L 312.00 291.00 L 311.00 290.00 L 310.00 289.00 L 308.00 289.00 L 307.00 288.00 L 306.00 287.00 L 305.00 286.00 L 304.00 285.00 L 302.00 285.00 L 301.00 284.00 L 300.00 283.00 L 299.00 282.00 L 298.00 281.00 L 296.00 281.00 L 295.00 280.00 L 294.00 279.00 L 293.00 278.00 L 292.00 277.00 L 290.00 277.00 L 289.00 276.00 L 288.00 275.00 L 287.00 274.00 L 286.00 273.00 L 284.00 273.00 L 283.00 272.00 L 282.00 271.00 L 280.00 271.00 L 279.00 270.00 L 278.00 269.00 L 276.00 269.00 L 275.00 268.00 L 274.00 267.00 L 273.00 266.00 L 272.00 265.00 L 270.00 265.00 L 269.00 264.00 L 268.00 263.00 L 266.00 263.00 L 265.00 262.00 L 264.00 261.00 L 263.00 260.00 L 262.00 259.00 L 260.00 259.00 L 259.00 258.00 L 258.00 257.00 L 256.00 257.00 L 255.00 256.00 L 254.00 255.00 L 252.00 255.00 L 251.00 254.00 L 250.00 253.00 L 248.00 253.00 L 247.00 252.00 L 246.00 251.00 L 244.00 251.00 L 243.00 250.00 L 242.00 249.00 L 240.00 249.00 L 239.00 248.00 L 238.00 247.00 L 236.00 247.00 L 235.00 246.00 L 234.00 245.00 L 232.00 245.00 L 231.00 244.00 L 230.00 243.00 L 228.00 243.00 L 227.00 242.00 L 226.00 241.00 L 224.00 241.00 L 223.00 240.00 L 222.00 239.00 L 220.00 239.00 L 219.00 238.00 L 218.00 237.00 L 216.00 237.00 L 215.00 238.00 L 215.00 240.00 L 215.00 242.00 L 214.00 243.00 L 212.00 243.00 L 210.00 243.00 L 209.00 242.00 L 209.00 240.00 L 209.00 238.00 L 210.00 237.00 L 212.00 237.00 L 214.00 237.00 L 215.00 236.00 L 214.00 235.00 L 212.00 235.00 L 210.00 235.00 L 209.00 234.00 L 208.00 233.00 L 206.00 233.00 L 204.00 233.00 L 203.00 232.00 L 202.00 231.00 L 200.00 231.00 L 199.00 230.00 L 198.00 229.00 L 196.00 229.00 L 194.00 229.00 L 193.00 228.00 L 192.00 227.00 L 190.00 227.00 L 188.00 227.00 L 187.00 226.00 L 186.00 225.00 L 184.00 225.00 L 182.00 225.00 L 180.00 225.00 L 179.00 224.00 L 178.00 223.00 L 176.00 223.00 L 174.00 223.00 L 172.00 223.00 L 171.00 222.00 L 170.00 221.00 L 168.00 221.00 L 166.00 221.00 L 164.00 221.00 L 162.00 221.00 L 160.00 221.00 L 158.00 221.00 L 156.00 221.00 L 154.00 221.00 L 152.00 221.00 L 150.00 221.00 L 148.00 221.00 L 146.00 221.00 L 144.00 221.00 Z" fill="#000" />
</svg>