<svg width="1024" height="1024" viewBox="0 0 1024 1024" xmlns="http://www.w3.org/2000/svg">
  <path d="M 115.00 246.00 L 95.00 282.00 L 81.00 326.00 L 67.00 388.00 L 65.00 420.00 L 49.00 510.00 L 33.00 658.00 L 27.00 736.00 L 27.00 756.00 L 30.00 759.00 L 40.00 759.00 L 74.00 747.00 L 258.00 673.00 L 388.00 627.00 L 484.00 603.00 L 562.00 593.00 L 636.00 595.00 L 694.00 609.00 L 736.00 635.00 L 864.00 727.00 L 894.00 741.00 L 910.00 745.00 L 920.00 743.00 L 925.00 738.00" fill="none" stroke="#ff4d4d" stroke-width="4" stroke-linecap="round" stroke-linejoin="round"/><path d="M 925.00 738.00 L 935.00 728.00 L 953.00 684.00 L 965.00 630.00 L 975.00 560.00 L 987.00 428.00 L 995.00 264.00 L 995.00 246.00 L 984.00 239.00 L 946.00 253.00 L 853.00 296.00 L 858.00 297.00 L 964.00 249.00 L 980.00 247.00 L 983.00 250.00 L 981.00 370.00 L 967.00 536.00 L 953.00 626.00 L 943.00 670.00 L 931.00 702.00 L 931.00 716.00 L 914.00 733.00 L 894.00 729.00 L 872.00 717.00 L 867.00 712.00 L 868.00 707.00 L 828.00 679.00" fill="none" stroke="#ffa94d" stroke-width="4" stroke-linecap="round" stroke-linejoin="round"/><path d="M 828.00 679.00 L 817.00 670.00 L 819.00 666.00 L 812.00 659.00 L 728.00 603.00 L 470.00 405.00" fill="none" stroke="#ffd43b" stroke-width="4" stroke-linecap="round" stroke-linejoin="round"/><path d="M 470.00 405.00 L 380.00 337.00 L 286.00 273.00 L 218.00 237.00 L 214.00 243.00 L 210.00 243.00 L 209.00 238.00 L 214.00 235.00 L 170.00 221.00 L 144.00 221.00 L 137.00 224.00 L 146.00 225.00 L 146.00 231.00 L 138.00 231.00 L 118.00 241.00 L 115.00 246.00" fill="none" stroke="#69db7c" stroke-width="4" stroke-linecap="round" stroke-linejoin="round"/>
</svg>