<svg width="1024" height="1024" viewBox="0 0 1024 1024" xmlns="http://www.w3.org/2000/svg">
  <path d="M 865.03 457.50 L 864.94 463.74 L 864.79 469.98 L 864.57 476.21 L 864.20 482.44 L 863.60 488.66 L 862.69 494.83 L 861.41 500.96 L 859.82 507.02 L 857.99 513.01 L 856.01 518.95 L 853.96 524.85 L 851.86 530.70 L 849.66 536.49 L 847.27 542.21 L 844.60 547.83 L 841.62 553.31 L 838.37 558.66 L 834.98 563.91 L 831.62 569.10 L 828.41 574.30 L 825.42 579.54 L 822.58 584.80 L 819.72 590.03 L 816.59 595.12 L 812.97 599.94 L 808.72 604.41 L 803.82 608.48 L 798.39 612.17 L 792.63 615.55 L 786.78 618.74 L 781.03 621.86 L 775.47 624.95 L 770.09 628.03 L 764.79 631.05 L 759.48 633.94 L 754.06 636.63 L 748.48 639.09 L 742.75 641.30 L 736.92 643.28 L 731.04 645.08 L 725.14 646.70 L 719.24 648.15 L 713.35 649.45 L 707.50 650.64 L 701.77 651.77 L 696.27 652.98 L 691.12 654.41 L 686.41 656.20 L 682.17 658.43 L 678.34 661.10 L 674.80 664.10 L 671.38 667.26 L 667.93 670.40 L 664.34 673.37 L 660.56 676.09 L 656.62 678.58 L 652.60 680.94 L 648.57 683.26 L 644.57 685.63 L 640.61 688.06 L 636.66 690.51 L 632.66 692.89 L 628.58 695.13 L 624.40 697.19 L 620.15 699.07 L 615.84 700.84 L 611.53 702.59 L 607.23 704.35 L 602.94 706.13 L 598.64 707.90 L 594.30 709.58 L 589.90 711.11 L 585.45 712.46 L 580.95 713.66 L 576.44 714.77 L 571.92 715.86 L 567.40 716.95 L 562.88 718.05 L 558.35 719.11 L 553.80 720.06 L 549.21 720.85 L 544.60 721.48 L 539.97 721.96 L 535.34 722.37 L 530.71 722.75 L 526.08 723.15 L 521.44 723.54 L 516.80 723.87 L 512.15 724.08 L 507.50 724.13 L 502.85 724.00 L 498.20 723.75 L 493.56 723.44 L 488.93 723.11 L 484.29 722.80 L 479.65 722.47 L 475.01 722.08 L 470.39 721.55 L 465.79 720.85 L 461.22 719.98 L 456.67 718.99 L 452.14 717.95 L 447.61 716.92 L 443.07 715.91 L 438.53 714.88 L 434.01 713.78 L 429.53 712.52 L 425.10 711.09 L 420.73 709.49 L 416.41 707.78 L 412.09 706.04 L 407.78 704.33 L 403.44 702.65 L 399.11 700.96 L 394.80 699.18 L 390.57 697.24 L 386.43 695.11 L 382.39 692.80 L 378.41 690.39 L 374.44 687.97 L 370.44 685.61 L 366.39 683.33 L 362.32 681.05 L 358.30 678.70 L 354.40 676.15 L 350.68 673.35 L 347.14 670.31 L 343.72 667.13 L 340.30 663.97 L 336.75 660.99 L 332.93 658.32 L 328.75 656.02 L 324.19 654.08 L 319.26 652.43 L 314.04 650.96 L 308.59 649.58 L 302.99 648.21 L 297.27 646.79 L 291.48 645.28 L 285.67 643.64 L 279.89 641.81 L 274.22 639.76 L 268.69 637.46 L 263.34 634.89 L 258.16 632.09 L 253.09 629.10 L 248.07 625.98 L 243.01 622.77 L 237.90 619.49 L 232.75 616.13 L 227.62 612.64 L 222.60 608.98 L 217.77 605.13 L 213.17 601.05 L 208.82 596.78 L 204.72 592.31 L 200.84 587.67 L 197.19 582.87 L 193.77 577.93 L 190.59 572.85 L 187.62 567.64 L 184.80 562.35 L 182.00 557.01 L 179.09 551.67 L 175.92 546.35 L 172.46 541.04 L 168.73 535.71 L 164.91 530.32 L 161.23 524.81 L 157.94 519.14 L 155.24 513.29 L 153.20 507.29 L 151.79 501.18 L 150.88 494.98 L 150.29 488.75 L 149.85 482.51 L 149.47 476.26 L 149.13 470.01 L 148.86 463.76 L 148.76 457.50 L 148.89 451.24 L 149.27 444.99 L 149.92 438.76 L 150.81 432.56 L 151.88 426.39 L 153.13 420.25 L 154.52 414.16 L 156.04 408.11 L 157.69 402.10 L 159.45 396.13 L 161.31 390.21 L 163.29 384.34 L 165.45 378.53 L 167.84 372.81 L 170.56 367.22 L 173.63 361.76 L 177.03 356.47 L 180.66 351.30 L 184.34 346.23 L 187.91 341.18 L 191.25 336.10 L 194.37 330.99 L 197.39 325.86 L 200.55 320.84 L 204.12 316.03 L 208.29 311.57 L 213.14 307.52 L 218.58 303.88 L 224.39 300.57 L 230.29 297.45 L 236.03 294.38 L 241.48 291.27 L 246.65 288.10 L 251.66 284.93 L 256.70 281.89 L 261.92 279.08 L 267.41 276.58 L 273.15 274.40 L 279.03 272.49 L 284.95 270.76 L 290.80 269.13 L 296.55 267.56 L 302.21 266.06 L 307.80 264.65 L 313.33 263.33 L 318.76 262.05 L 323.99 260.71 L 328.89 259.13 L 333.38 257.20 L 337.43 254.82 L 341.11 252.02 L 344.56 248.94 L 347.96 245.78 L 351.46 242.74 L 355.16 239.94 L 359.05 237.41 L 363.07 235.10 L 367.14 232.87 L 371.17 230.60 L 375.13 228.23 L 379.06 225.78 L 382.99 223.34 L 387.01 221.02 L 391.13 218.91 L 395.37 217.03 L 399.67 215.32 L 404.00 213.67 L 408.31 212.00 L 412.59 210.26 L 416.86 208.47 L 421.15 206.73 L 425.49 205.11 L 429.91 203.71 L 434.38 202.51 L 438.90 201.47 L 443.42 200.48 L 447.93 199.47 L 452.43 198.41 L 456.93 197.32 L 461.44 196.29 L 465.99 195.41 L 470.57 194.73 L 475.18 194.25 L 479.80 193.91 L 484.41 193.62 L 489.03 193.31 L 493.64 192.95 L 498.25 192.58 L 502.87 192.28 L 507.50 192.14 L 512.13 192.21 L 516.76 192.47 L 521.37 192.85 L 525.98 193.27 L 530.58 193.66 L 535.19 194.01 L 539.81 194.36 L 544.42 194.80 L 549.01 195.41 L 553.57 196.22 L 558.10 197.21 L 562.59 198.31 L 567.08 199.43 L 571.57 200.52 L 576.08 201.57 L 580.58 202.62 L 585.07 203.78 L 589.51 205.11 L 593.87 206.65 L 598.18 208.36 L 602.44 210.16 L 606.70 211.96 L 610.98 213.71 L 615.28 215.42 L 619.58 217.14 L 623.83 218.98 L 627.99 221.02 L 632.04 223.27 L 636.00 225.67 L 639.92 228.14 L 643.85 230.57 L 647.84 232.91 L 651.87 235.18 L 655.89 237.50 L 659.80 239.99 L 663.54 242.73 L 667.07 245.74 L 670.48 248.90 L 673.91 252.00 L 677.58 254.81 L 681.67 257.14 L 686.30 258.92 L 691.47 260.22 L 697.06 261.20 L 702.90 262.10 L 708.80 263.11 L 714.63 264.35 L 720.38 265.82 L 726.10 267.48 L 731.90 269.21 L 737.85 270.96 L 743.98 272.74 L 750.18 274.63 L 756.31 276.73 L 762.22 279.14 L 767.82 281.91 L 773.14 284.99 L 778.33 288.27 L 783.59 291.61 L 789.09 294.93 L 794.89 298.20 L 800.88 301.51 L 806.79 305.00 L 812.26 308.86 L 816.94 313.21 L 820.61 318.10 L 823.25 323.47 L 825.08 329.19 L 826.47 335.06 L 827.85 340.90 L 829.60 346.59 L 831.94 352.08 L 834.88 357.41 L 838.26 362.66 L 841.78 367.93 L 845.15 373.31 L 848.14 378.86 L 850.64 384.56 L 852.69 390.40 L 854.42 396.33 L 856.00 402.30 L 857.56 408.30 L 859.14 414.32 L 860.70 420.38 L 862.14 426.47 L 863.35 432.62 L 864.23 438.80 L 864.76 445.02 L 865.00 451.26 Z" fill="#000" />
</svg>