<svg width="1024" height="1024" viewBox="0 0 1024 1024" xmlns="http://www.w3.org/2000/svg">
  <path d="M 333.00 261.50 L 332.00 262.50 L 321.00 262.50 L 320.00 263.50 L 314.00 263.50 L 313.00 264.50 L 308.00 264.50 L 307.00 265.50 L 303.00 265.50 L 302.00 266.50 L 299.00 266.50 L 298.00 267.50 L 295.00 267.50 L 294.00 268.50 L 291.00 268.50 L 290.00 269.50 L 288.00 269.50 L 287.00 270.50 L 284.00 270.50 L 283.00 271.50 L 281.00 271.50 L 278.00 273.50 L 276.00 273.50 L 273.00 275.50 L 271.00 275.50 L 268.00 277.50 L 266.00 277.50 L 265.00 278.50 L 264.00 278.50 L 263.00 279.50 L 262.00 279.50 L 261.00 280.50 L 260.00 280.50 L 259.00 281.50 L 252.00 284.50 L 250.00 286.50 L 245.00 288.50 L 243.00 290.50 L 242.00 290.50 L 240.00 292.50 L 239.00 292.50 L 237.00 294.50 L 236.00 294.50 L 234.00 296.50 L 233.00 296.50 L 230.00 299.50 L 229.00 299.50 L 226.00 302.50 L 225.00 302.50 L 220.00 307.50 L 219.00 307.50 L 198.50 328.00 L 198.50 329.00 L 192.50 335.00 L 192.50 336.00 L 186.50 343.00 L 186.50 344.00 L 184.50 346.00 L 184.50 347.00 L 182.50 349.00 L 182.50 350.00 L 176.50 358.00 L 176.50 359.00 L 175.50 360.00 L 174.50 363.00 L 172.50 365.00 L 172.50 366.00 L 166.50 377.00 L 166.50 379.00 L 163.50 384.00 L 163.50 386.00 L 161.50 389.00 L 161.50 391.00 L 160.50 392.00 L 160.50 394.00 L 159.50 395.00 L 159.50 397.00 L 158.50 398.00 L 158.50 400.00 L 157.50 401.00 L 157.50 403.00 L 156.50 404.00 L 156.50 407.00 L 155.50 408.00 L 155.50 411.00 L 154.50 412.00 L 154.50 416.00 L 153.50 417.00 L 153.50 421.00 L 152.50 422.00 L 152.50 426.00 L 151.50 427.00 L 151.50 433.00 L 150.50 434.00 L 150.50 442.00 L 149.50 443.00 L 149.50 481.00 L 150.50 482.00 L 150.50 491.00 L 151.50 492.00 L 151.50 497.00 L 152.50 498.00 L 152.50 503.00 L 153.50 504.00 L 153.50 508.00 L 154.50 509.00 L 154.50 512.00 L 155.50 513.00 L 155.50 516.00 L 156.50 517.00 L 156.50 519.00 L 157.50 520.00 L 157.50 523.00 L 159.00 524.50 L 160.50 525.00 L 160.50 526.00 L 161.50 527.00 L 161.50 529.00 L 163.50 531.00 L 164.00 533.50 L 166.00 533.50 L 167.50 532.00 L 167.50 527.00 L 168.00 526.50 L 168.50 527.00 L 168.50 528.00 L 169.50 529.00 L 169.50 531.00 L 171.50 534.00 L 171.50 536.00 L 173.50 539.00 L 173.50 541.00 L 175.50 544.00 L 175.50 546.00 L 178.50 550.00 L 181.50 557.00 L 183.50 559.00 L 185.50 564.00 L 189.50 569.00 L 189.50 570.00 L 192.50 574.00 L 192.50 575.00 L 195.50 578.00 L 195.50 579.00 L 200.50 584.00 L 200.50 585.00 L 204.50 589.00 L 204.50 590.00 L 217.00 602.50 L 219.00 602.50 L 224.00 608.50 L 226.00 608.50 L 235.00 616.50 L 236.00 616.50 L 239.00 619.50 L 242.00 620.50 L 247.00 624.50 L 248.00 624.50 L 249.00 625.50 L 250.00 625.50 L 252.00 627.50 L 257.00 629.50 L 259.00 631.50 L 260.00 631.50 L 269.00 636.50 L 271.00 636.50 L 276.00 639.50 L 278.00 639.50 L 281.00 641.50 L 283.00 641.50 L 284.00 642.50 L 286.00 642.50 L 287.00 643.50 L 289.00 643.50 L 290.00 644.50 L 292.00 644.50 L 293.00 645.50 L 295.00 645.50 L 296.00 646.50 L 299.00 646.50 L 300.00 647.50 L 303.00 647.50 L 304.00 648.50 L 307.00 648.50 L 308.00 649.50 L 312.00 649.50 L 313.00 650.50 L 317.00 650.50 L 318.00 651.50 L 324.00 651.50 L 325.00 652.50 L 332.00 652.50 L 333.00 653.50 L 688.00 653.50 L 689.00 652.50 L 697.00 652.50 L 698.00 651.50 L 704.00 651.50 L 705.00 650.50 L 710.00 650.50 L 711.00 649.50 L 715.00 649.50 L 716.00 648.50 L 719.00 648.50 L 720.00 647.50 L 723.00 647.50 L 724.00 646.50 L 727.00 646.50 L 728.00 645.50 L 730.00 645.50 L 731.00 644.50 L 733.00 644.50 L 734.00 643.50 L 736.00 643.50 L 737.00 642.50 L 742.00 641.50 L 745.00 639.50 L 750.00 638.50 L 751.00 637.50 L 752.00 637.50 L 753.00 636.50 L 754.00 636.50 L 755.00 635.50 L 756.00 635.50 L 757.00 634.50 L 758.00 634.50 L 759.00 633.50 L 760.00 633.50 L 761.00 632.50 L 762.00 632.50 L 763.00 631.50 L 770.00 628.50 L 772.00 626.50 L 775.00 625.50 L 777.00 623.50 L 778.00 623.50 L 780.00 621.50 L 781.00 621.50 L 784.00 618.50 L 785.00 618.50 L 787.00 616.50 L 788.00 616.50 L 792.00 612.50 L 793.00 612.50 L 797.00 608.50 L 798.00 608.50 L 818.50 588.00 L 818.50 587.00 L 823.50 582.00 L 823.50 581.00 L 826.50 578.00 L 826.50 577.00 L 829.50 574.00 L 829.50 573.00 L 833.50 568.00 L 834.50 565.00 L 836.50 563.00 L 836.50 562.00 L 837.50 561.00 L 837.50 558.00 L 836.50 557.00 L 840.50 556.00 L 840.50 554.00 L 838.50 553.00 L 839.50 552.00 L 841.50 547.00 L 842.00 546.50 L 843.00 547.50 L 845.00 547.50 L 847.50 543.00 L 847.50 542.00 L 848.50 541.00 L 848.50 539.00 L 849.50 538.00 L 849.50 535.00 L 847.50 534.00 L 848.50 533.00 L 849.50 528.00 L 850.00 527.50 L 851.00 528.50 L 853.00 528.50 L 854.50 526.00 L 854.50 524.00 L 855.50 523.00 L 855.50 521.00 L 856.50 520.00 L 856.50 517.00 L 857.50 516.00 L 857.50 514.00 L 858.50 513.00 L 858.50 511.00 L 859.50 510.00 L 859.50 506.00 L 860.50 505.00 L 860.50 502.00 L 861.50 501.00 L 861.50 496.00 L 862.50 495.00 L 862.50 490.00 L 863.50 489.00 L 863.50 483.00 L 864.50 482.00 L 864.50 469.00 L 865.50 468.00 L 865.50 461.00 L 864.50 460.00 L 864.50 442.00 L 863.50 441.00 L 863.50 433.00 L 862.50 432.00 L 862.50 427.00 L 861.50 426.00 L 861.50 422.00 L 860.50 421.00 L 860.50 418.00 L 859.50 417.00 L 859.50 414.00 L 858.50 413.00 L 858.50 410.00 L 857.50 409.00 L 857.50 406.00 L 856.50 405.00 L 856.50 403.00 L 855.50 402.00 L 855.50 400.00 L 854.50 399.00 L 854.50 396.00 L 852.50 393.00 L 852.50 391.00 L 850.50 388.00 L 850.50 386.00 L 847.50 381.00 L 847.50 379.00 L 846.50 378.00 L 843.50 371.00 L 841.50 369.00 L 838.50 362.00 L 836.50 360.00 L 836.50 359.00 L 834.50 357.00 L 834.50 356.00 L 832.50 354.00 L 832.50 353.00 L 830.50 351.00 L 830.50 350.00 L 828.50 348.00 L 828.50 347.00 L 825.50 344.00 L 825.50 343.00 L 819.50 336.00 L 820.00 334.50 L 823.00 334.50 L 824.00 335.50 L 826.50 335.00 L 826.50 333.00 L 825.50 332.00 L 825.50 329.00 L 824.50 328.00 L 824.50 327.00 L 808.00 310.50 L 807.00 310.50 L 802.00 305.50 L 801.00 305.50 L 793.00 298.50 L 792.00 298.50 L 790.00 296.50 L 789.00 296.50 L 781.00 290.50 L 780.00 290.50 L 776.00 287.50 L 775.00 287.50 L 774.00 286.50 L 767.00 283.50 L 765.00 281.50 L 763.00 281.50 L 756.00 277.50 L 754.00 277.50 L 751.00 275.50 L 749.00 275.50 L 746.00 273.50 L 744.00 273.50 L 743.00 272.50 L 741.00 272.50 L 740.00 271.50 L 738.00 271.50 L 737.00 270.50 L 734.00 270.50 L 733.00 269.50 L 731.00 269.50 L 730.00 268.50 L 727.00 268.50 L 726.00 267.50 L 723.00 267.50 L 722.00 266.50 L 718.00 266.50 L 717.00 265.50 L 713.00 265.50 L 712.00 264.50 L 706.00 264.50 L 705.00 263.50 L 699.00 263.50 L 698.00 262.50 L 687.00 262.50 L 686.00 261.50 L 333.00 261.50 Z" fill="#000" />
</svg>