<svg width="1024" height="1024" viewBox="0 0 1024 1024" xmlns="http://www.w3.org/2000/svg">
  <path d="M 128.00 237.00 L 115.00 244.00 L 95.00 282.00 L 81.00 326.00 L 67.00 388.00 L 69.00 398.00 L 65.00 404.00 L 67.00 408.00 L 49.00 510.00 L 33.00 658.00 L 27.00 736.00 L 27.00 756.00 L 30.00 759.00 L 40.00 759.00 L 74.00 747.00 L 258.00 673.00 L 388.00 627.00 L 484.00 603.00 L 562.00 593.00 L 636.00 595.00 L 694.00 609.00 L 736.00 635.00 L 864.00 727.00 L 894.00 741.00 L 910.00 745.00 L 920.00 743.00 L 925.00 738.00" fill="none" stroke="#ff4d4d" stroke-width="4" stroke-linecap="round" stroke-linejoin="round"/><path d="M 925.00 738.00 L 935.00 728.00 L 953.00 684.00 L 973.00 576.00 L 991.00 364.00 L 995.00 264.00 L 995.00 246.00 L 992.00 243.00 L 984.00 239.00 L 970.00 243.00 L 853.00 296.00 L 858.00 297.00 L 964.00 249.00 L 980.00 245.00 L 983.00 250.00 L 981.00 370.00 L 967.00 536.00 L 953.00 626.00 L 943.00 670.00 L 931.00 702.00 L 931.00 716.00 L 914.00 733.00 L 894.00 729.00 L 836.00 693.00 L 763.00 638.00" fill="none" stroke="#ffa94d" stroke-width="4" stroke-linecap="round" stroke-linejoin="round"/><path d="M 763.00 638.00 L 758.00 631.00 L 828.00 683.00 L 831.00 682.00 L 811.00 666.00 L 815.00 662.00 L 812.00 659.00 L 728.00 603.00 L 656.00 547.00 L 652.00 545.00 L 648.00 549.00 L 647.00 546.00 L 651.00 544.00 L 646.00 539.00 L 640.00 543.00 L 639.00 540.00 L 643.00 538.00 L 638.00 533.00 L 635.00 534.00 L 636.00 539.00 L 632.00 537.00 L 628.00 531.00 L 621.00 528.00 L 625.00 524.00 L 616.00 517.00 L 615.00 520.00 L 619.00 524.00 L 612.00 521.00 L 611.00 518.00 L 615.00 516.00 L 608.00 511.00 L 604.00 515.00 L 599.00 510.00 L 607.00 510.00 L 598.00 503.00" fill="none" stroke="#ffd43b" stroke-width="4" stroke-linecap="round" stroke-linejoin="round"/><path d="M 598.00 503.00 L 590.00 497.00 L 589.00 500.00 L 593.00 504.00 L 586.00 501.00 L 585.00 498.00 L 589.00 496.00 L 582.00 491.00 L 578.00 495.00 L 577.00 492.00 L 581.00 490.00 L 576.00 485.00 L 570.00 489.00 L 567.00 486.00 L 571.00 482.00 L 568.00 479.00 L 564.00 483.00 L 552.00 475.00 L 547.00 470.00 L 548.00 467.00 L 552.00 471.00 L 555.00 470.00 L 550.00 465.00 L 484.00 415.00 L 480.00 413.00 L 476.00 417.00 L 475.00 414.00 L 479.00 412.00 L 476.00 409.00 L 472.00 407.00 L 468.00 411.00 L 467.00 408.00 L 471.00 406.00 L 466.00 401.00 L 380.00 337.00 L 332.00 305.00 L 349.00 320.00 L 348.00 323.00 L 322.00 305.00 L 319.00 300.00 L 325.00 300.00 L 320.00 295.00 L 262.00 259.00 L 218.00 237.00 L 215.00 240.00 L 219.00 244.00 L 214.00 245.00 L 205.00 238.00 L 208.00 233.00 L 170.00 221.00 L 138.00 223.00 L 154.00 227.00 L 155.00 230.00 L 138.00 231.00 L 128.00 237.00" fill="none" stroke="#69db7c" stroke-width="4" stroke-linecap="round" stroke-linejoin="round"/>
</svg>